<?xml version="1.0" encoding="utf-8"?>
<!-- Generator: Adobe Illustrator 14.0.0, SVG Export Plug-In . SVG Version: 6.00 Build 43363)  -->
<!DOCTYPE svg PUBLIC "-//W3C//DTD SVG 1.1//EN" "http://www.w3.org/Graphics/SVG/1.1/DTD/svg11.dtd">
<svg version="1.1" id="Layer_1" xmlns="http://www.w3.org/2000/svg" xmlns:xlink="http://www.w3.org/1999/xlink" x="0px" y="0px"
	 width="539px" height="188px" viewBox="0 0 539 188" enable-background="new 0 0 539 188" xml:space="preserve">
<pattern  x="-123.5" y="391.5" width="322" height="182" patternUnits="userSpaceOnUse" id="Unnamed_Pattern" viewBox="0 -182 322 182" overflow="visible">
	<g>
		<polygon fill="none" points="0,-182 322,-182 322,0 0,0 		"/>
		
			<linearGradient id="SVGID_1_" gradientUnits="userSpaceOnUse" x1="7745.8442" y1="-8448.6895" x2="7746.8442" y2="-8448.6895" gradientTransform="matrix(0 -182 -182 0 -1537500.375 1409743.625)">
			<stop  offset="0" style="stop-color:#ABABAB"/>
			<stop  offset="1" style="stop-color:#787878"/>
		</linearGradient>
		<polygon fill="url(#SVGID_1_)" points="322,0 322,-182 0,-182 0,0 		"/>
	</g>
</pattern>
<pattern  x="-123.5" y="391.5" width="322" height="182" patternUnits="userSpaceOnUse" id="Unnamed_Pattern_1" viewBox="0 -182 322 182" overflow="visible">
	<g>
		<polygon fill="none" points="0,-182 322,-182 322,0 0,0 		"/>
		
			<linearGradient id="SVGID_2_" gradientUnits="userSpaceOnUse" x1="7745.8442" y1="-8448.6895" x2="7746.8442" y2="-8448.6895" gradientTransform="matrix(0 -182 -182 0 -1537500.375 1409743.625)">
			<stop  offset="0" style="stop-color:#ABABAB"/>
			<stop  offset="1" style="stop-color:#787878"/>
		</linearGradient>
		<polygon fill="url(#SVGID_2_)" points="322,0 322,-182 0,-182 0,0 		"/>
	</g>
</pattern>
<pattern  x="-123.5" y="391.5" width="322" height="182" patternUnits="userSpaceOnUse" id="Unnamed_Pattern_2" viewBox="0 -182 322 182" overflow="visible">
	<g>
		<polygon fill="none" points="0,-182 322,-182 322,0 0,0 		"/>
		
			<linearGradient id="SVGID_3_" gradientUnits="userSpaceOnUse" x1="7745.8442" y1="-8448.6895" x2="7746.8442" y2="-8448.6895" gradientTransform="matrix(0 -182 -182 0 -1537500.375 1409743.625)">
			<stop  offset="0" style="stop-color:#ABABAB"/>
			<stop  offset="1" style="stop-color:#787878"/>
		</linearGradient>
		<polygon fill="url(#SVGID_3_)" points="322,0 322,-182 0,-182 0,0 		"/>
	</g>
</pattern>
<pattern  x="-123.5" y="391.5" width="322" height="182" patternUnits="userSpaceOnUse" id="Unnamed_Pattern_3" viewBox="0 -182 322 182" overflow="visible">
	<g>
		<polygon fill="none" points="0,-182 322,-182 322,0 0,0 		"/>
		
			<linearGradient id="SVGID_4_" gradientUnits="userSpaceOnUse" x1="7745.8442" y1="-8448.6895" x2="7746.8442" y2="-8448.6895" gradientTransform="matrix(0 -182 -182 0 -1537500.375 1409743.625)">
			<stop  offset="0" style="stop-color:#ABABAB"/>
			<stop  offset="1" style="stop-color:#787878"/>
		</linearGradient>
		<polygon fill="url(#SVGID_4_)" points="322,0 322,-182 0,-182 0,0 		"/>
	</g>
</pattern>
<pattern  x="-123.5" y="391.5" width="322" height="182" patternUnits="userSpaceOnUse" id="Unnamed_Pattern_4" viewBox="0 -182 322 182" overflow="visible">
	<g>
		<polygon fill="none" points="0,-182 322,-182 322,0 0,0 		"/>
		
			<linearGradient id="SVGID_5_" gradientUnits="userSpaceOnUse" x1="7745.8442" y1="-8448.6895" x2="7746.8442" y2="-8448.6895" gradientTransform="matrix(0 -182 -182 0 -1537500.375 1409743.625)">
			<stop  offset="0" style="stop-color:#ABABAB"/>
			<stop  offset="1" style="stop-color:#787878"/>
		</linearGradient>
		<polygon fill="url(#SVGID_5_)" points="322,0 322,-182 0,-182 0,0 		"/>
	</g>
</pattern>
<g>
	<path fill="#69AFD8" d="M53.199,112.06c-14.587,0-25.282-12.24-25.282-27.35v-0.195c0-15.11,10.603-27.549,25.463-27.549
		c9.151,0,14.863,3.362,19.389,8.885l-8.424,9.873c-3.085-3.552-6.167-5.826-11.057-5.826c-6.888,0-11.779,6.615-11.779,14.422
		v0.195c0,8.097,4.802,14.606,12.324,14.606c4.618,0,7.791-2.161,11.145-5.624l8.061,8.893
		C68.324,108.009,62.892,112.06,53.199,112.06"/>
	<path fill="#69AFD8" d="M123.247,111.876c-15.037,0-26.184-12.149-26.184-27.35V84.33c0-15.202,11.235-27.549,26.368-27.549
		c15.035,0,26.188,12.144,26.188,27.354v0.195C149.618,99.528,138.371,111.876,123.247,111.876 M136.025,84.33
		c0-7.802-5.169-14.616-12.779-14.616c-7.884,0-12.586,6.615-12.586,14.421v0.195c0,7.799,5.16,14.604,12.77,14.604
		c7.88,0,12.595-6.604,12.595-14.408V84.33z"/>
	<path fill="#69AFD8" d="M185.459,111.946v-7.498c-3.169,4.435-7.253,8.488-14.219,8.488c-10.43,0-16.496-7.5-16.496-19.646V59.026
		h13.776V88.55c0,7.113,3.081,10.757,8.337,10.757c5.248,0,8.602-3.645,8.602-10.757V59.026h13.769v52.92H185.459z"/>
	<path fill="#69AFD8" d="M242.488,111.792v-7.604c-3.346,4.945-7.968,8.594-15.133,8.594c-11.321,0-22.106-9.674-22.106-27.346
		v-0.195c0-17.676,10.601-27.354,22.106-27.354c7.342,0,11.868,3.652,15.133,7.901V39.724h13.769v72.068H242.488z M242.666,85.241
		c0-8.787-5.344-14.613-11.771-14.613c-6.435,0-11.868,5.719-11.868,14.613v0.195c0,8.785,5.433,14.606,11.868,14.606
		c6.427,0,11.771-5.821,11.771-14.606V85.241z"/>
	<rect x="77.878" y="36.308" fill="#69AFD8" width="14.72" height="76.083"/>
	<pattern  id="SVGID_6_" xlink:href="#Unnamed_Pattern" patternTransform="matrix(1 0 0 -1 17.2363 -1371)">
	</pattern>
	<path fill="url(#SVGID_6_)" d="M294.264,74.414c-2.354-2.924-5.457-4.387-9.31-4.387c-1.356,0-2.675,0.321-3.959,0.963
		s-1.926,1.749-1.926,3.317c0,1.284,0.657,2.231,1.979,2.836c1.318,0.606,2.995,1.142,5.028,1.604
		c2.033,0.465,4.208,0.964,6.526,1.499s4.495,1.374,6.527,2.514c2.033,1.142,3.709,2.694,5.029,4.654
		c1.319,1.963,1.98,4.585,1.98,7.865c0,3.354-0.732,6.117-2.194,8.293c-1.463,2.176-3.335,3.924-5.617,5.242
		c-2.284,1.321-4.853,2.247-7.704,2.782c-2.854,0.535-5.671,0.803-8.453,0.803c-3.638,0-7.312-0.519-11.021-1.552
		c-3.71-1.033-6.848-2.87-9.416-5.511l9.737-10.807c1.498,1.856,3.156,3.264,4.975,4.227c1.818,0.963,3.941,1.444,6.367,1.444
		c1.854,0,3.531-0.267,5.029-0.803c1.498-0.535,2.246-1.515,2.246-2.942c0-1.354-0.66-2.37-1.979-3.05
		c-1.321-0.677-2.996-1.246-5.029-1.711c-2.032-0.464-4.21-0.963-6.526-1.498c-2.319-0.535-4.495-1.338-6.528-2.408
		c-2.033-1.07-3.71-2.584-5.029-4.547c-1.32-1.961-1.979-4.583-1.979-7.865c0-3.066,0.623-5.706,1.872-7.918
		c1.247-2.21,2.889-4.029,4.922-5.457c2.033-1.426,4.369-2.478,7.009-3.156c2.638-0.678,5.312-1.017,8.025-1.017
		c3.424,0,6.883,0.5,10.379,1.498c3.494,1,6.455,2.782,8.881,5.35L294.264,74.414z"/>
	<pattern  id="SVGID_7_" xlink:href="#Unnamed_Pattern_1" patternTransform="matrix(1 0 0 -1 17.2363 -1371)">
	</pattern>
	<path fill="url(#SVGID_7_)" d="M349.795,71.953h-14.123v17.334c0,1.428,0.07,2.729,0.213,3.906
		c0.143,1.176,0.463,2.193,0.963,3.049s1.266,1.517,2.301,1.979c1.033,0.465,2.408,0.695,4.119,0.695
		c0.857,0,1.98-0.089,3.371-0.267s2.443-0.59,3.156-1.23v13.374c-1.783,0.643-3.637,1.07-5.563,1.284s-3.817,0.321-5.671,0.321
		c-2.711,0-5.207-0.286-7.49-0.856s-4.279-1.479-5.992-2.729c-1.711-1.247-3.049-2.87-4.012-4.868
		c-0.963-1.996-1.445-4.423-1.445-7.276V71.953H309.35v-12.84h10.271V43.705h16.051v15.408h14.123V71.953z"/>
	<pattern  id="SVGID_8_" xlink:href="#Unnamed_Pattern_2" patternTransform="matrix(1 0 0 -1 17.2363 -1371)">
	</pattern>
	<path fill="url(#SVGID_8_)" d="M390.562,104.588h-0.215c-1.783,2.782-4.156,4.78-7.115,5.992c-2.961,1.212-6.082,1.819-9.361,1.819
		c-2.426,0-4.762-0.34-7.01-1.017c-2.246-0.677-4.227-1.693-5.938-3.05c-1.713-1.354-3.068-3.031-4.066-5.028
		c-1-1.996-1.498-4.315-1.498-6.955c0-2.996,0.551-5.527,1.658-7.598c1.105-2.068,2.604-3.78,4.494-5.136
		c1.889-1.354,4.047-2.408,6.473-3.156c2.426-0.749,4.939-1.301,7.545-1.659c2.604-0.356,5.205-0.57,7.811-0.642
		c2.604-0.07,5.01-0.107,7.223-0.107c0-2.852-1.018-5.118-3.049-6.794c-2.033-1.676-4.441-2.515-7.224-2.515
		c-2.64,0-5.048,0.553-7.222,1.659c-2.178,1.106-4.119,2.621-5.832,4.547l-8.561-8.774c2.996-2.782,6.489-4.869,10.486-6.26
		c3.994-1.39,8.133-2.086,12.412-2.086c4.709,0,8.576,0.589,11.609,1.766c3.031,1.177,5.457,2.907,7.275,5.189
		c1.82,2.284,3.086,5.082,3.799,8.399c0.713,3.318,1.07,7.153,1.07,11.503v26.429h-14.766V104.588z M386.604,88.324
		c-1.215,0-2.729,0.054-4.547,0.161c-1.82,0.107-3.568,0.411-5.244,0.909c-1.676,0.5-3.104,1.249-4.279,2.247
		c-1.178,1-1.766,2.391-1.766,4.173c0,1.926,0.818,3.354,2.461,4.279c1.641,0.928,3.352,1.392,5.137,1.392
		c1.566,0,3.084-0.214,4.547-0.642c1.461-0.429,2.764-1.033,3.904-1.819c1.141-0.784,2.051-1.782,2.729-2.996
		c0.678-1.212,1.018-2.638,1.018-4.28v-3.424H386.604z"/>
	<pattern  id="SVGID_9_" xlink:href="#Unnamed_Pattern_3" patternTransform="matrix(1 0 0 -1 17.2363 -1371)">
	</pattern>
	<path fill="url(#SVGID_9_)" d="M450.588,75.912c-0.785-1.14-1.891-2.086-3.316-2.835c-1.428-0.749-2.961-1.124-4.602-1.124
		c-4.066,0-7.223,1.214-9.469,3.638c-2.248,2.426-3.371,5.601-3.371,9.523c0,3.924,1.123,7.099,3.371,9.522
		c2.246,2.426,5.402,3.639,9.469,3.639c1.783,0,3.318-0.392,4.602-1.178c1.283-0.783,2.389-1.711,3.316-2.781l10.594,11.128
		c-2.498,2.568-5.441,4.37-8.828,5.403c-3.389,1.033-6.617,1.552-9.684,1.552c-3.996,0-7.758-0.643-11.287-1.925
		c-3.531-1.285-6.6-3.121-9.203-5.512c-2.605-2.389-4.654-5.26-6.152-8.612c-1.498-3.354-2.246-7.099-2.246-11.236
		c0-4.136,0.748-7.881,2.246-11.235c1.498-3.352,3.547-6.222,6.152-8.613c2.604-2.39,5.672-4.227,9.203-5.511
		c3.529-1.284,7.291-1.926,11.287-1.926c3.066,0,6.295,0.519,9.684,1.552c3.387,1.034,6.33,2.835,8.828,5.403L450.588,75.912z"/>
	<pattern  id="SVGID_10_" xlink:href="#Unnamed_Pattern_4" patternTransform="matrix(1 0 0 -1 17.2363 -1371)">
	</pattern>
	<polygon fill="url(#SVGID_10_)" points="466.959,30.223 483.008,30.223 483.008,79.657 500.772,59.113 520.459,59.113 
		499.807,82.546 520.994,111.115 500.772,111.115 483.223,84.793 483.008,84.793 483.008,111.115 466.959,111.115 	"/>
</g>
<line fill="#69AFD8" stroke="#6699CC" stroke-width="0.5" x1="41.994" y1="125" x2="520.994" y2="125"/>
<text transform="matrix(1 0 0 1 73.0391 153)" fill="#8A8A8A" font-family="'MyriadPro-Regular'" font-size="36">open source cloud computing </text>
</svg>
