<?xml version="1.0" encoding="UTF-8" standalone="no"?>
<!-- Created with Inkscape (http://www.inkscape.org/) -->

<svg
   xmlns:dc="http://purl.org/dc/elements/1.1/"
   xmlns:cc="http://creativecommons.org/ns#"
   xmlns:rdf="http://www.w3.org/1999/02/22-rdf-syntax-ns#"
   xmlns:svg="http://www.w3.org/2000/svg"
   xmlns="http://www.w3.org/2000/svg"
   xmlns:xlink="http://www.w3.org/1999/xlink"
   xmlns:sodipodi="http://sodipodi.sourceforge.net/DTD/sodipodi-0.dtd"
   xmlns:inkscape="http://www.inkscape.org/namespaces/inkscape"
   width="300"
   height="250"
   id="svg5013"
   version="1.1"
   inkscape:version="0.48.2 r9819"
   sodipodi:docname="scale_10x_300x250_banner.svg"
   inkscape:export-filename="/home/darkwingduck/Devel/SCALE/scale_10x_300x250_banner.png"
   inkscape:export-xdpi="90"
   inkscape:export-ydpi="90">
  <defs
     id="defs5015">
    <path
       transform="matrix(-2.6252346,0.91496521,-0.91496521,-2.6252346,-750.9021,2367.8709)"
       d="m -317.5363,561.72845 a 42.414597,41.268257 0 1 1 -84.82919,0 42.414597,41.268257 0 1 1 84.82919,0 z"
       sodipodi:ry="41.268257"
       sodipodi:rx="42.414597"
       sodipodi:cy="561.72845"
       sodipodi:cx="-359.9509"
       id="path4916"
       style="fill:#8badff;fill-opacity:1;fill-rule:nonzero"
       sodipodi:type="arc" />
  </defs>
  <sodipodi:namedview
     id="base"
     pagecolor="#ffffff"
     bordercolor="#666666"
     borderopacity="1.0"
     inkscape:pageopacity="0.0"
     inkscape:pageshadow="2"
     inkscape:zoom="1.5842202"
     inkscape:cx="195.13304"
     inkscape:cy="36.760901"
     inkscape:document-units="px"
     inkscape:current-layer="layer11"
     showgrid="false"
     inkscape:window-width="1920"
     inkscape:window-height="1145"
     inkscape:window-x="-2"
     inkscape:window-y="-3"
     inkscape:window-maximized="1"
     showguides="true"
     inkscape:guide-bbox="true" />
  <metadata
     id="metadata5018">
    <rdf:RDF>
      <cc:Work
         rdf:about="">
        <dc:format>image/svg+xml</dc:format>
        <dc:type
           rdf:resource="http://purl.org/dc/dcmitype/StillImage" />
        <dc:title></dc:title>
      </cc:Work>
    </rdf:RDF>
  </metadata>
  <g
     inkscape:label="Layer 1"
     inkscape:groupmode="layer"
     id="layer1"
     transform="translate(0,-802.36218)" />
  <g
     inkscape:groupmode="layer"
     id="layer11"
     inkscape:label="Round Shape"
     transform="translate(0,-802.36218)">
    <path
       transform="matrix(0.37880418,0,0,0.37880418,284.45124,752.9366)"
       sodipodi:type="arc"
       style="fill:#ffffff;fill-opacity:1;fill-rule:nonzero;stroke:#8cadcb;stroke-width:4.69635772999999990;stroke-linejoin:miter;stroke-miterlimit:4;stroke-opacity:1;stroke-dasharray:4.69635768000000020, 14.08907306999999953;stroke-dashoffset:0"
       id="path5110"
       sodipodi:cx="-360"
       sodipodi:cy="440.93362"
       sodipodi:rx="302.85715"
       sodipodi:ry="302.85715"
       d="m -57.142853,440.93362 c 0,167.26339 -135.593767,302.85715 -302.857147,302.85715 -167.26338,0 -302.85715,-135.59376 -302.85715,-302.85715 0,-167.26338 135.59377,-302.85714 302.85715,-302.85714 167.26338,0 302.857147,135.59376 302.857147,302.85714 z"
       inkscape:export-xdpi="90"
       inkscape:export-ydpi="90"
       inkscape:export-filename="/home/darkwingduck/Devel/SCALE/scale_10x_300x250_banner.png" />
    <text
       xml:space="preserve"
       style="font-size:18px;font-style:normal;font-variant:normal;font-weight:500;font-stretch:normal;line-height:125%;letter-spacing:0px;word-spacing:0px;fill:#000000;fill-opacity:1;stroke:none;font-family:OCRA;-inkscape-font-specification:OCRA Medium"
       id="text5752"
       sodipodi:linespacing="125%"
       transform="matrix(-0.90313644,0.42935372,-0.42935372,-0.90313644,674.13202,1683.938)"><textPath
         xlink:href="#path5110"
         id="textPath5756"><tspan
   style="font-size:16px"
   id="tspan5754">The Tenth Annual</tspan></textPath></text>
  </g>
  <g
     inkscape:groupmode="layer"
     id="layer8"
     inkscape:label="Button"
     transform="translate(0,-802.36218)">
    <text
       xml:space="preserve"
       style="font-size:17.67616463px;font-style:normal;font-variant:normal;font-weight:500;font-stretch:normal;line-height:125%;letter-spacing:0px;word-spacing:0px;fill:#000000;fill-opacity:1;stroke:none;font-family:OCRA;-inkscape-font-specification:OCRA Medium"
       id="text4918"
       sodipodi:linespacing="125%"
       transform="matrix(0.8225339,0.2444041,-0.2444041,0.8225339,548.61305,531.45276)"><textPath
         xlink:href="#path4916"
         id="textPath4925"><tspan
   id="tspan4920">Southern California Linux Expo</tspan></textPath></text>
  </g>
  <g
     inkscape:groupmode="layer"
     id="layer9"
     inkscape:label="Penguin"
     transform="translate(0,-802.36218)">
    <g
       id="g5360"
       transform="matrix(0.80073822,0,0,0.80073822,159.25138,888.56323)">
      <path
         inkscape:connector-curvature="0"
         style="fill:#000000"
         id="path3477"
         d="m 55.86355,201.19245 c 2.0042,-0.47232 2.9555,-1.38342 4.6162,-4.42115 0.52451,-0.95944 1.78763,-2.11951 2.80694,-2.57795 2.90494,-1.3065 50.64106,-4.86762 53.98319,-4.02716 0.7983,0.20076 2.53151,1.78397 3.99181,3.64634 3.08241,3.93112 4.277,4.5671 7.6096,4.05126 5.88404,-0.91077 6.48445,-2.71621 5.98719,-18.00356 -0.88768,-27.29022 -5.04649,-44.5729 -16.02443,-66.59254 -2.64742,-5.31021 -4.90664,-9.84478 -5.02048,-10.0768 -0.11384,-0.23203 0.73014,-0.42187 1.87551,-0.42187 3.01208,0 12.15599,-2.23027 13.30892,-3.246146 2.35431,-2.07445 0.082,-5.95041 -3.867,-6.59614 -1.19236,-0.19497 -3.19011,-0.71922 -4.43943,-1.16501 -3.28103,-1.17073 -11.95483,-6.27805 -15.89783,-9.36098 -5.22896,-4.08839 -5.2471,-4.25979 -2.8752,-27.16223 1.61512,-15.595095 1.88112,-21.471272 1.17732,-26.008275 C 101.60208,19.60067 95.98235,12.751772 87.4496,10.16177 84.35997,9.223951 75.4106,9.080246 72.30347,9.918549 c -7.02488,1.895314 -12.06929,8.913224 -13.77501,19.164126 -0.46857,2.81596 -0.97215,3.998907 -2.19128,5.147475 -2.18051,2.054296 -2.08491,4.0889 0.2979,6.340597 1.28352,1.212895 2.09647,2.678015 2.55989,4.613559 0.80937,3.380476 2.52821,6.398018 3.64442,6.398018 1.26058,0 1.35566,-1.21328 0.28649,-3.656087 -0.54165,-1.237537 -1.16212,-3.21484 -1.37883,-4.394007 -0.35607,-1.937501 -0.26599,-2.177477 0.93554,-2.492303 2.73333,-0.716186 9.94256,-4.699226 10.75547,-5.942315 0.46392,-0.709436 1.13368,-3.175662 1.48835,-5.480503 0.76359,-4.962359 2.30004,-8.412489 4.6158,-10.364902 1.33545,-1.12591 2.2973,-1.419356 4.65237,-1.419356 5.25382,0 7.79706,3.210767 7.85652,9.918621 0.0395,4.458401 0.40236,3.627747 -11.88411,27.205802 -7.90268,15.16543 -11.48223,25.00014 -13.40675,36.83468 -1.56464,9.621526 -0.60824,13.721276 8.82133,37.813946 7.27861,18.59694 8.54565,23.26056 8.60215,31.6622 0.0279,4.14859 -0.23249,7.25156 -0.726,8.65152 -2.65993,7.5456 -14.45545,12.26238 -30.97267,12.38532 -10.10528,0.0752 -10.14648,0.0486 -11.36909,-7.34759 -2.94845,-17.83669 -3.77665,-40.56079 -1.86221,-51.09491 2.27028,-12.4921 5.99039,-23.01598 14.60137,-41.306026 5.2333,-11.11574 5.71684,-12.28996 6.43634,-15.62998 0.39798,-1.84751 0.33339,-2.52245 -0.29109,-3.04174 -1.15575,-0.96107 -1.95029,0.0379 -2.85368,3.58794 -0.41331,1.62423 -2.20054,6.09579 -3.9716,9.93681 l -3.22012,6.98367 -3.63528,1.22925 c -4.38793,1.48376 -7.94298,3.25253 -8.92837,4.44219 -0.42549,0.51368 -0.58095,1.46009 -0.37494,2.28251 0.40065,1.59948 2.11759,2.24415 5.83549,2.1911 2.00506,-0.0286 2.34723,0.11745 2.02393,0.86389 -3.40574,7.863226 -6.89098,19.344206 -8.41574,27.722926 -3.6098,19.8361 1.21292,62.62963 8.45328,75.00862 1.98479,3.39343 5.43765,4.35796 10.95021,3.05885 z m -9.15028,-5.75301 c -1.08743,-2.31715 -3.74817,-10.00327 -3.74817,-10.82741 0,-0.0892 1.07366,0.089 2.38591,0.39608 3.2134,0.75191 14.80697,0.20574 20.35036,-0.9587 10.7409,-2.25624 17.31141,-6.27149 19.99343,-12.21804 1.19257,-2.64416 1.33856,-3.77107 1.33207,-10.28202 -0.007,-6.5576 -0.19593,-7.97118 -1.83478,-13.69483 -1.00511,-3.51034 -4.33298,-12.74926 -7.39527,-20.53093 -7.20283,-18.30336 -8.55744,-22.88716 -8.58625,-29.054496 -0.0572,-12.24067 5.17427,-27.0598 17.72591,-50.212444 3.56098,-6.568558 6.90227,-13.443365 7.42508,-15.277345 2.28158,-8.003721 -1.07219,-15.949601 -7.48518,-17.734155 -2.87747,-0.800723 -3.97996,-0.723392 -6.58371,0.461788 -4.42564,2.014473 -7.55649,7.331741 -8.42688,14.311739 -0.4754,3.812481 -1.79256,5.112736 -7.55643,7.459399 -3.85841,1.570886 -6.35674,1.620154 -6.63847,0.130914 -0.2382,-1.25912 3.45744,-3.145698 7.96802,-4.067582 2.76012,-0.564117 3.43079,-0.911466 3.43079,-1.776848 0,-0.88319 -0.4018,-1.07217 -2.24555,-1.056161 -1.23506,0.01074 -3.03649,0.214044 -4.00319,0.451838 l -1.75762,0.432347 0.50002,-2.701803 c 1.33252,-7.200163 4.18634,-12.262049 8.26893,-14.666766 2.46231,-1.450345 2.99203,-1.534831 9.62311,-1.534831 6.00746,0 7.39513,0.174929 9.64224,1.215482 6.24226,2.890563 10.24121,8.902188 11.07667,16.651579 0.48087,4.460352 -0.033,14.642563 -1.31238,26.007249 -1.24065,11.02022 -1.6315,17.8671 -1.18878,20.82514 0.3228,2.15677 0.89628,3.15863 3.01988,5.27565 4.68603,4.6715 17.04402,12.03246 21.4062,12.75046 2.54201,0.41841 5.07426,1.38117 5.07426,1.92923 0,0.66943 -7.16971,2.31445 -11.56948,2.6545 -4.62081,0.357136 -7.91056,-0.31415 -14.77817,-3.01555 -4.00984,-1.57728 -4.9003,-1.75758 -5.5358,-1.12083 -0.63551,0.63675 -0.61778,0.89864 0.11023,1.62807 0.9558,0.95768 8.46436,3.962716 11.56321,4.627766 1.08067,0.23194 2.3869,0.64302 2.90273,0.91354 1.21163,0.63539 10.47847,19.41476 13.04496,26.43577 6.1213,16.74567 8.88661,33.23244 8.9836,53.56005 0.0471,9.86614 -0.024,10.64532 -1.0392,11.39044 -0.59935,0.43992 -1.99803,0.79984 -3.10816,0.79984 -1.77103,0 -2.27777,-0.34806 -4.13434,-2.83974 -3.08435,-4.13948 -4.84097,-5.0305 -9.92251,-5.03303 -7.61275,-0.004 -47.62805,2.97284 -50.23475,3.73683 -1.9807,0.58052 -4.66612,2.95061 -5.96319,5.26298 l -1.26092,2.24791 -4.06628,0 -4.06628,0 -1.38587,-2.95308 z M 42.68441,90.121934 c 1.54382,-0.71693 3.36725,-1.46967 4.05206,-1.67277 1.17518,-0.34853 1.21151,-0.27267 0.64682,1.35038 -0.58261,1.67457 -0.68884,1.71842 -4.05207,1.67277 l -3.45376,-0.0469 2.80695,-1.30349 z M 89.24789,27.270041 c 1.71654,-2.455521 0.70247,-6.022571 -2.09858,-7.381819 -2.87435,-1.394821 -4.88696,0.08568 -4.88696,3.594915 0,4.145869 4.88381,6.79342 6.98554,3.786904 z" />
      <path
         inkscape:connector-curvature="0"
         style="fill:#8cadcb;fill-opacity:1;fill-rule:nonzero"
         id="path4443"
         d="m 79.8884,12.62497 c 1.3099,0.02025 2.64166,0.07653 3.66658,0.1582 3.20383,0.255304 3.98386,0.435335 5.63143,1.248028 5.55398,2.739579 9.44208,8.159958 10.59622,14.800549 0.63729,3.666729 0.17844,15.206387 -1.10523,27.737847 -1.39971,13.66439 -1.57749,20.56174 -0.56139,22.76332 2.15638,4.67221 16.66978,14.2545 24.45552,16.15404 1.4128,0.34469 2.97164,0.82975 3.4736,1.08983 l 0.91225,0.4746 -0.73682,0.38671 c -1.18124,0.60872 -6.09169,1.67011 -9.54362,2.05661 -3.85161,0.43125 -6.55701,0.15633 -10.94709,-1.24803 -0.62715,-0.20062 -1.29562,-0.43762 -1.99995,-0.68553 -2.44086,-0.85915 -5.21361,-1.78372 -6.17528,-2.05661 -1.70582,-0.48405 -1.76076,-0.46817 -2.3859,0.1582 -0.5043,0.50529 -0.58049,0.76772 -0.33333,1.23045 0.57346,1.07363 7.16733,3.840086 12.84178,5.396396 0.92842,0.25463 1.97859,0.77751 2.33328,1.16014 1.39939,1.5096 7.95806,14.52873 11.10498,22.04262 4.02904,9.62015 7.0682,20.65836 8.7717,31.93895 1.13979,7.54766 1.55325,13.39012 1.71926,23.87072 0.19996,12.62388 0.20286,12.59269 -2.40345,13.2537 -1.22604,0.31095 -1.97663,0.34666 -2.56134,0.14063 -0.4574,-0.16118 -1.88793,-1.50952 -3.17536,-3.00582 -2.84166,-3.3027 -4.0899,-4.10734 -7.03491,-4.48235 -3.09411,-0.39399 -15.51444,0.25465 -36.15697,1.88083 -12.06515,0.95047 -16.74155,1.50928 -17.94691,2.12692 -1.76244,0.9031 -3.74568,2.85884 -5.03496,4.99211 l -1.2105,2.02145 -3.96481,0 -3.98236,0 -0.68419,-1.59958 c -1.03489,-2.3995 -3.27327,-8.41035 -3.80692,-10.23031 l -0.45613,-1.59958 1.26313,0.22851 c 2.4735,0.44485 14.45157,0.21656 18.17497,-0.35156 9.47954,-1.44639 16.80343,-4.58668 20.56089,-8.8065 3.36388,-3.77784 4.3231,-7.74639 3.96481,-16.52318 -0.32426,-7.94302 -1.24415,-11.08449 -9.70151,-33.39792 -7.99264,-21.08733 -8.59803,-23.54019 -7.84191,-31.552236 1.05567,-11.18605 5.70286,-23.98364 15.3154,-42.1341 C 94.16809,34.807063 95.42083,31.666056 95.081,26.84545 94.62049,20.312891 91.59572,16.104709 86.37947,14.769467 c -2.37664,-0.608362 -4.00023,-0.433579 -6.24546,0.667959 -4.29906,2.109178 -7.23697,7.03105 -8.36821,13.97439 -0.41601,2.553412 -1.20831,4.172194 -2.45607,5.062421 -0.53042,0.378433 -1.20896,0.785609 -1.96487,1.177716 -0.37795,0.196056 -0.76565,0.390757 -1.17541,0.580069 -2.04877,0.94656 -4.40231,1.751463 -6.01739,2.021453 -0.84442,0.141163 -1.26725,0.05096 -1.82451,-0.421868 l -0.71928,-0.615225 0.75436,-0.667959 c 1.17866,-1.015341 4.13797,-2.232038 7.26298,-3.005812 2.17962,-0.539688 2.94193,-0.879072 3.29816,-1.423806 0.3907,-0.597461 0.41342,-0.780895 0.0702,-1.195294 -0.34289,-0.413965 -0.91028,-0.461417 -3.47359,-0.333979 -1.67846,0.08345 -3.298,0.255321 -3.61395,0.386713 -0.53191,0.221194 -0.56983,0.132973 -0.36841,-1.212872 0.4341,-2.900424 1.45503,-6.18202 2.75432,-8.876814 1.66892,-3.461436 3.78563,-5.761074 6.54369,-7.083873 1.7379,-0.833517 2.41634,-0.962282 5.49109,-1.124983 0.96251,-0.05091 2.25142,-0.07299 3.56131,-0.05271 z" />
      <path
         inkscape:connector-curvature="0"
         style="fill:#ffffff;fill-opacity:1;stroke:#000000;stroke-width:0.56193995px;stroke-linecap:butt;stroke-linejoin:miter;stroke-opacity:1"
         id="path4453"
         d="m 63.34494,51.770844 c 0.89618,-1.29097 -0.0529,-3.853821 -0.4035,-4.886645 -1.16299,-3.363028 -1.41752,-4.882491 -0.87717,-5.290933 0.22523,-0.170254 1.37204,-0.675507 2.54379,-1.124982 1.17176,-0.449481 3.55803,-1.675178 5.31566,-2.724567 3.80496,-2.271755 3.9771,-2.527503 5.19285,-8.120966 1.20831,-5.559287 2.24439,-8.024849 4.15779,-9.861174 1.3495,-1.295148 3.32042,-1.874963 5.26302,-1.775363 l 3e-5,0 c 1.9426,0.0996 3.86756,0.87401 5.12268,2.302698 1.50372,1.711678 1.88736,2.987554 2.08766,6.732317 0.22087,4.129461 -0.0538,5.003505 -4.50866,13.763456 -13.57913,26.701549 -15.34711,30.556439 -17.89428,39.128299 -2.2664,7.62702 -3.59052,15.76086 -3.24553,19.96843 0.46627,5.686736 1.69552,9.641516 8.99977,28.968296 8.49186,22.46913 8.65612,23.10404 8.66645,33.09909 l 0.0175,6.85536 -0.99997,2.03903 c -2.69382,5.48267 -10.28853,9.2487 -21.71875,10.75765 -1.97249,0.2604 -5.62089,0.40187 -9.75414,0.36913 -6.1884,-0.049 -6.65081,-0.1012 -7.45595,-0.70311 -1.44233,-1.0783 -1.87762,-2.24902 -2.6666,-7.15419 -2.78264,-17.29999 -3.56263,-38.24272 -1.84205,-49.58711 1.0469,-6.90264 4.11215,-17.35416 7.59629,-25.874596 0.91471,-2.23691 4.04997,-9.32196 6.96474,-15.74975 6.21921,-13.71492 6.83924,-15.48456 6.57878,-18.86103 m 24.7187,-44.788365 c -0.62015,0.0022 -1.17377,0.19163 -1.66663,0.580069 -2.36055,1.860457 -1.50227,6.950327 1.40348,8.331901 1.68128,0.799384 2.86182,0.667598 3.9999,-0.474602 2.27563,-2.283889 1.41504,-6.290677 -1.68417,-7.874877 -0.75124,-0.384007 -1.43244,-0.564702 -2.05258,-0.562491 z" />
    </g>
    <g
       id="g5348"
       transform="matrix(-0.37880418,0,0,0.37880418,323.03512,969.47475)">
      <path
         inkscape:connector-curvature="0"
         style="fill:#000000"
         id="path15053-4"
         d="m 466.80632,191.02994 c -1.22358,-0.97494 -1.76803,-2.21109 -1.98172,-4.49939 -0.10279,-1.10079 -0.34045,-2.20852 -0.52812,-2.46162 -0.90735,-1.22368 -19.32018,-3.85744 -36.62081,-5.2382 -7.42842,-0.59287 -8.55575,-0.47254 -10.46843,1.11734 -5.79454,4.81663 -6.35122,5.20352 -7.4868,5.20352 -1.26549,0 -12.28161,-5.23945 -12.74063,-6.05964 -0.79811,-1.42615 0.95862,-2.99318 5.38381,-4.80248 l 2.3662,-0.96745 -0.90375,-2.19161 c -8.00895,-19.42192 -10.59362,-39.05243 -7.52603,-57.16035 1.29169,-7.625 3.5511,-15.562352 6.62907,-23.288211 0.69068,-1.733668 1.25561,-3.25358 1.25539,-3.377584 -2.1e-4,-0.124001 -1.00797,-0.23059 -2.23945,-0.236863 -2.88603,-0.0147 -4.42739,-0.54333 -5.04036,-1.728661 -0.83224,-1.609354 0.12174,-3.147015 2.8013,-4.51536 1.26318,-0.645051 8.62346,-3.474631 9.03817,-3.474631 0.18812,0 4.68013,-9.493675 5.79248,-12.24215 0.55918,-1.381652 1.19194,-3.327664 1.4061,-4.324469 0.21418,-0.996806 0.51072,-2.055627 0.65892,-2.352935 0.38488,-0.771976 1.68707,-0.679281 2.23646,0.159203 0.39813,0.607584 0.40301,0.963596 0.0371,2.702793 -0.5767,2.741491 -1.75987,5.608985 -5.77187,13.988404 -7.86825,16.433574 -11.23114,25.521964 -13.34179,36.056934 -1.3931,6.95338 -1.60076,9.29806 -1.58603,17.90585 0.0145,8.49568 0.28838,11.5448 1.72278,19.18565 0.65194,3.47272 0.67916,3.53615 2.12492,4.9478 2.66708,2.60419 9.58126,5.50614 16.84235,7.06893 4.36105,0.93862 12.20394,1.19295 14.96517,0.4853 2.5562,-0.6551 4.41362,-1.7478 5.23777,-3.08133 1.79676,-2.90718 2.64963,-7.87842 2.16146,-12.59879 -0.64895,-6.27552 -2.69461,-12.88644 -7.77268,-25.11875 -8.04839,-19.38749 -9.37149,-23.711404 -9.31045,-30.426813 0.0716,-7.878881 3.49213,-20.007424 9.03783,-32.046648 2.09344,-4.544677 3.42773,-7.096163 9.88617,-18.904844 4.45911,-8.153079 5.05901,-9.684828 5.22155,-13.332654 0.16726,-3.754007 -0.40783,-5.94533 -2.03352,-7.74843 -1.43483,-1.591441 -3.16879,-2.396509 -5.16157,-2.396509 -4.15075,0 -7.19613,3.517424 -8.33241,9.623949 -0.26238,1.410015 -0.55199,3.212447 -0.64355,4.0054 -0.24986,2.16344 -1.44431,3.561788 -4.48799,5.254206 -1.42909,0.79464 -3.74506,1.837146 -5.14655,2.31668 -2.28453,0.781666 -2.54755,0.951785 -2.54178,1.644108 0.006,0.711375 1.17916,4.327564 2.17994,6.719042 0.38438,0.918483 0.36474,1.060212 -0.22904,1.654014 -0.76534,0.765332 -1.68346,0.595924 -2.33676,-0.431165 -0.7018,-1.103339 -1.73727,-3.927792 -2.23084,-6.085156 -0.25224,-1.102421 -0.60731,-2.053971 -0.78906,-2.114557 -0.67206,-0.224014 -2.19705,-1.695912 -2.63543,-2.54365 -0.9684,-1.872693 -0.22793,-4.288517 1.65553,-5.401095 0.82514,-0.487424 0.94175,-0.752236 1.13607,-2.57979 0.54822,-5.156427 2.58081,-10.678237 5.18415,-14.083342 3.57834,-4.6804908 7.85608,-6.2415625 16.28326,-5.9422691 3.37735,0.1199485 4.63976,0.3009646 6.64115,0.9522667 5.40621,1.7593244 9.29263,5.1338924 11.70196,10.1608014 1.87667,3.915563 2.45042,6.403578 2.48922,10.794357 l 0.0319,3.609527 2.30963,1.509928 c 4.6063,3.011385 9.44585,9.117634 12.09344,15.258755 2.08042,4.825585 2.863,8.195947 2.85761,12.306914 -0.004,3.23407 -0.0922,3.782805 -0.9825,6.126368 -1.2525,3.297133 -2.59852,5.69448 -6.09894,10.862619 -3.35547,4.95414 -4.41312,6.724902 -4.77931,8.001742 -0.24423,0.851568 -2.4e-4,1.43468 2.36971,5.663282 3.55011,6.334322 8.82481,17.017133 11.02101,22.320743 3.80555,9.19005 7.06575,20.40963 8.39234,28.88127 0.67896,4.33578 0.93662,15.05956 0.46918,19.52702 -0.66177,6.32483 -2.24787,12.66976 -4.14703,16.58951 -0.44641,0.92137 -0.77783,1.70203 -0.73649,1.7348 6.61429,5.24297 7.48497,6.76079 4.45997,7.77495 -1.76899,0.59308 -11.46869,1.96876 -15.19598,2.15521 -3.17607,0.15887 -3.45363,0.12547 -4.25342,-0.51179 z m 10.89457,-3.14175 c 2.63329,-0.35309 4.97743,-0.74543 5.2092,-0.87187 0.29918,-0.16321 -0.35035,-0.87977 -2.23945,-2.47057 -1.46347,-1.23238 -2.66086,-2.37802 -2.66086,-2.54586 0,-0.16785 0.28541,-0.70599 0.63424,-1.19588 3.8122,-5.35375 6.31358,-20.19494 5.2543,-31.17484 -1.62503,-16.84399 -7.60735,-33.7943 -19.49835,-55.246573 -2.95792,-5.336321 -3.13453,-5.754297 -3.00426,-7.110095 0.18711,-1.947197 1.1987,-3.856271 5.24346,-9.895411 5.8596,-8.748856 7.47999,-12.974447 6.74427,-17.587519 -1.55648,-9.759413 -8.39311,-20.574182 -14.98822,-23.709651 -3.21061,-1.526398 -3.37816,-0.805095 -0.75516,3.250923 2.52422,3.903273 3.31331,5.530833 4.01873,8.288986 1.06194,4.152161 0.6493,8.708283 -1.04193,11.50437 -1.08847,1.799551 -3.60174,4.283081 -6.76287,6.682838 -3.16639,2.40375 -4.27973,2.778697 -4.88617,1.645544 -0.51638,-0.964814 -0.14855,-1.565641 1.88386,-3.07724 1.71637,-1.27655 1.85398,-1.465646 1.68587,-2.31668 -0.10068,-0.50967 -0.26683,-2.849338 -0.36922,-5.199264 -0.21042,-4.829169 0.10584,-7.803718 1.41084,-13.269319 l 0.85948,-3.599617 -0.72696,-1.219049 c -0.39982,-0.670479 -0.81112,-1.833121 -0.91399,-2.583655 -0.16773,-1.223698 -0.0862,-1.47945 0.78952,-2.47684 0.5371,-0.611733 1.28263,-1.155782 1.65671,-1.209001 0.66023,-0.09392 0.67907,-0.205381 0.64267,-3.803448 -0.0471,-4.660718 -0.91626,-7.637544 -3.24745,-11.122967 -3.35948,-5.022816 -8.31964,-7.35133 -15.71183,-7.375788 -6.24339,-0.02066 -9.27614,0.981918 -11.94307,3.948176 -2.3418,2.60465 -4.49131,7.72783 -5.22878,12.462528 l -0.20403,1.309746 1.50625,-0.453507 c 0.82841,-0.24943 2.28533,-0.541739 3.23755,-0.649576 2.17456,-0.246254 3.05647,0.162915 3.05647,1.418052 0,1.088543 -0.70693,1.544454 -2.39477,1.544454 -2.09947,0 -6.659,1.674978 -8.1646,2.999328 -0.78579,0.691174 -0.1319,1.942922 1.01492,1.942922 2.0511,0 9.6428,-3.412244 10.7646,-4.838367 0.36736,-0.467049 0.66739,-1.520447 0.8028,-2.818717 0.70604,-6.768913 3.47657,-11.902024 7.48643,-13.870371 1.50754,-0.740028 2.13008,-0.863921 4.26609,-0.849002 2.07303,0.01449 2.79506,0.161349 4.2196,0.858324 3.24116,1.585749 5.20555,4.644684 5.85818,9.122397 0.77911,5.345474 -0.23034,8.289504 -7.146,20.840959 -9.43303,17.120302 -13.55533,27.047193 -15.95813,38.428473 -2.24499,10.633864 -1.44252,14.491343 7.44819,35.803787 6.1342,14.70463 8.36349,22.24688 8.70667,29.45679 0.37141,7.80268 -2.25444,14.10561 -6.65202,15.96711 -7.28065,3.0819 -21.74535,1.38839 -32.32461,-3.78451 -1.52184,-0.74413 -2.82811,-1.29184 -2.9028,-1.21715 -0.22089,0.22087 2.00461,6.66651 4.14438,12.0034 1.09379,2.7281 1.98874,5.05745 1.98874,5.17633 0,0.11888 -0.72976,0.45454 -1.62168,0.7459 -0.89192,0.29136 -2.52209,0.93368 -3.62261,1.42737 l -2.00093,0.89762 1.38315,0.80066 c 0.76074,0.44036 2.63116,1.39999 4.15656,2.13251 l 2.77337,1.33185 1.08776,-0.80938 c 0.59823,-0.44516 2.06073,-1.6681 3.24996,-2.71766 3.47558,-3.06736 3.53071,-3.08547 9.26673,-3.044 9.51074,0.0688 35.15373,3.17996 41.07772,4.98386 2.40897,0.73355 3.10243,1.708 3.40639,4.7867 0.33225,3.36532 0.39815,3.4346 3.03844,3.1944 1.21486,-0.11052 4.36336,-0.48984 6.99665,-0.84293 z M 405.25391,83.951804 c 0.27597,-0.1059 0.77668,-0.731404 1.11266,-1.390008 0.51322,-1.005958 0.53614,-1.197468 0.14342,-1.197468 -0.73936,0 -6.03177,2.196661 -6.03177,2.503544 0,0.311294 4.00001,0.381591 4.77569,0.08393 z m 53.1541,-27.144284 c 0.93983,-2.059417 1.17736,-4.175985 0.76265,-6.795595 -0.32057,-2.024957 -1.99958,-6.332258 -2.46835,-6.332258 -0.1163,0 -0.54451,1.633259 -0.95157,3.629465 -0.57112,2.800727 -0.74086,4.616899 -0.74339,7.953935 -0.002,2.378458 0.1112,4.602471 0.25111,4.942251 0.23516,0.571123 0.33708,0.524465 1.34955,-0.617782 0.60235,-0.679559 1.41235,-1.930566 1.8,-2.780016 z M 442.79624,26.170378 c -2.18568,-0.875359 -3.5431,-3.109905 -3.31724,-5.460677 0.18339,-1.908602 0.97653,-2.66796 2.78663,-2.66796 1.0818,0 1.43597,0.189597 2.57522,1.378588 2.50544,2.614846 2.13521,6.340297 -0.67486,6.790421 -0.49852,0.07985 -1.11491,0.06169 -1.36975,-0.04037 z" />
      <path
         inkscape:connector-curvature="0"
         style="fill:#8cadcb;fill-opacity:1;fill-rule:nonzero;stroke:#8cadcb;stroke-width:0.23886813;stroke-opacity:1"
         id="path15866"
         d="m 468.60605,188.45014 c -0.27308,-0.20343 -0.54389,-1.14217 -0.84974,-2.94548 -0.2469,-1.45579 -0.63118,-2.92508 -0.85396,-3.26509 -0.92919,-1.41812 -4.31448,-2.28551 -14.67809,-3.76088 -17.15868,-2.44272 -32.23953,-3.44922 -34.91727,-2.33039 -0.45995,0.19218 -2.33816,1.59838 -4.17379,3.12489 -1.83563,1.5265 -3.47565,2.77811 -3.6445,2.78135 -0.41311,0.008 -7.95327,-3.87632 -7.80759,-4.022 0.0631,-0.0631 1.64599,-0.72745 3.5175,-1.4763 2.31247,-0.9253 3.37875,-1.46707 3.32787,-1.69086 -0.0412,-0.18112 -1.18614,-3.28531 -2.54436,-6.89819 -2.30246,-6.12462 -3.56477,-9.79125 -3.41564,-9.92146 0.0347,-0.0303 1.59388,0.62603 3.46475,1.4586 4.68461,2.08473 9.24763,3.45496 14.3941,4.32242 3.60164,0.60708 11.80571,0.61044 14.3818,0.006 3.9233,-0.92069 5.93168,-2.50814 7.63724,-6.03656 2.40215,-4.96954 2.51254,-12.21985 0.31612,-20.76231 -1.14738,-4.46244 -2.83737,-9.11606 -7.63275,-21.01774 -7.99468,-19.842053 -8.77175,-23.172954 -7.38431,-31.652695 1.64422,-10.049119 5.86978,-21.317691 13.03275,-34.755316 1.1205,-2.102041 3.32627,-6.240431 4.9017,-9.196422 5.05068,-9.47663 5.68403,-11.209816 5.67377,-15.52643 -0.014,-5.908368 -1.89786,-9.676776 -5.86779,-11.738009 -1.48264,-0.769808 -1.61878,-0.794535 -4.39644,-0.798489 -2.7938,-0.004 -2.90324,0.01591 -4.31988,0.78449 -3.87188,2.100666 -6.35624,6.428008 -7.37841,12.851958 -0.53493,3.361846 -0.67579,3.686351 -1.97653,4.553521 -2.41262,1.608431 -7.76584,3.891192 -9.25651,3.947231 -0.96843,0.03641 -1.6031,-0.418198 -1.50446,-1.077621 0.15512,-1.037026 4.88986,-3.029269 8.26647,-3.478291 0.96018,-0.127686 1.90072,-0.360744 2.09009,-0.517908 0.47647,-0.395429 0.44255,-1.99822 -0.0509,-2.407537 -0.55767,-0.462551 -3.13553,-0.355379 -5.39895,0.224452 -1.01727,0.260602 -1.84958,0.429179 -1.84958,0.37462 0,-0.05456 0.21842,-1.107339 0.48538,-2.33951 1.44305,-6.660458 4.54873,-11.768753 8.20528,-13.496234 2.25475,-1.065215 3.88589,-1.326197 8.26898,-1.323028 3.28431,0.0025 4.2966,0.09216 6.07258,0.538591 3.93608,0.989423 6.86872,2.870954 9.10737,5.843118 2.64098,3.506329 3.63505,6.539018 3.85625,11.764546 l 0.14171,3.347597 -1.12548,0.711406 c -1.61071,1.018119 -2.14771,1.985024 -1.96624,3.540341 0.0793,0.679433 0.45615,1.842678 0.8375,2.584989 l 0.69336,1.349657 -0.67796,2.830535 c -1.46284,6.107529 -1.8131,10.603609 -1.3408,17.211354 l 0.19128,2.676276 -1.67243,1.366297 c -1.97247,1.611399 -2.42201,2.421376 -1.83832,3.312201 0.79215,1.208967 2.1375,0.654666 6.13751,-2.52874 3.9946,-3.1791 5.99963,-5.753833 6.78629,-8.714535 0.55083,-2.07315 0.51219,-5.972435 -0.0839,-8.4693 -0.63123,-2.643888 -1.23631,-3.963246 -3.71427,-8.098968 -2.15272,-3.592877 -2.47267,-4.474158 -1.51864,-4.182957 2.41109,0.735938 5.12971,2.642535 7.42525,5.207396 4.31148,4.81732 7.70147,11.570896 9.00643,17.942702 1.10455,5.393253 -0.0417,8.675386 -6.52593,18.686567 -4.319,6.668183 -5.02676,8.084246 -5.05046,10.104734 -0.018,1.530556 0.0189,1.622306 2.59267,6.44944 10.78698,20.231351 15.46488,31.980541 18.26473,45.874311 1.26979,6.30109 1.57842,9.36756 1.57353,15.63424 -0.008,9.99349 -1.50462,17.79046 -4.6036,23.9801 l -1.36225,2.72083 2.48126,2.32028 c 1.36469,1.27615 2.38554,2.37861 2.26856,2.44991 -0.31613,0.19266 -4.4519,0.81591 -9.05083,1.36394 -4.81598,0.57389 -4.46777,0.56068 -4.96744,0.18846 l 0,0 z" />
      <path
         inkscape:connector-curvature="0"
         style="fill:#8cadcb;fill-opacity:1;fill-rule:nonzero;stroke:#8cadcb;stroke-width:0.23886813;stroke-opacity:1"
         id="path15872"
         d="m 401.55474,83.918502 -0.83604,-0.152329 1.55265,-0.683344 c 1.95476,-0.860328 4.10882,-1.617465 4.237,-1.489285 0.15542,0.155428 -0.56151,1.418868 -1.04754,1.84606 -0.50295,0.44206 -2.65808,0.706288 -3.90607,0.478898 z" />
      <path
         inkscape:connector-curvature="0"
         style="fill:#ffffff;fill-opacity:1;fill-rule:nonzero;stroke:#ffffff;stroke-width:0.23886813;stroke-opacity:1"
         id="path15876"
         d="m 424.48609,161.03137 c -4.73947,-0.3718 -9.58364,-1.5161 -14.56935,-3.44158 -5.27789,-2.03833 -8.68213,-4.44266 -9.31961,-6.58223 -0.39952,-1.34095 -1.61673,-8.71257 -1.93265,-11.70454 -0.16542,-1.56659 -0.29115,-6.13422 -0.29259,-10.62964 -0.003,-8.59475 0.15593,-10.39191 1.51406,-17.14564 1.98396,-9.86585 4.63933,-17.298952 11.41074,-31.94176 6.84864,-14.809825 7.50274,-16.4217 7.82699,-19.287665 0.14632,-1.293291 0.10834,-1.492828 -0.37641,-1.977586 l -0.53916,-0.539156 1.38762,-5.161677 c 1.26739,-4.714475 1.45657,-5.226557 2.18351,-5.9105 0.43775,-0.411853 0.7959,-0.798158 0.7959,-0.85846 0,-0.0603 -0.54269,-1.652373 -1.20598,-3.537941 -0.68343,-1.942814 -1.17506,-3.733515 -1.13462,-4.1327 0.0668,-0.659778 0.24538,-0.774188 2.81834,-1.805948 5.01143,-2.00959 7.83619,-3.856231 8.62437,-5.638061 0.24119,-0.545254 0.60705,-2.057941 0.81302,-3.361524 1.27546,-8.072611 4.02344,-11.865161 8.59715,-11.865161 2.79277,0 4.97071,1.501885 6.30586,4.348445 0.57733,1.230889 0.62104,1.561433 0.61739,4.668827 -0.002,2.157067 -0.1179,3.683324 -0.325,4.299628 -0.72205,2.14878 -2.25522,5.218186 -6.92027,13.854352 -8.62926,15.974918 -12.38337,24.823091 -14.95899,35.25726 -1.29351,5.240167 -1.6579,7.977655 -1.65018,12.396935 0.0111,6.379652 0.82632,9.137767 7.89764,26.721132 5.1122,12.71188 7.35029,19.08408 8.35901,23.79948 0.58812,2.74925 0.66144,3.57087 0.63946,7.16605 -0.0225,3.67266 -0.0862,4.26621 -0.66679,6.21057 -0.35308,1.18239 -0.96585,2.65568 -1.36172,3.27397 -1.99204,3.11125 -6.34837,4.16758 -14.53774,3.52512 l 0,0 z M 445.77808,25.404166 c 1.18682,-1.32828 1.12651,-3.204089 -0.16651,-5.179149 -0.99437,-1.51888 -2.13472,-2.267016 -3.45549,-2.267016 -1.42986,0 -2.27747,0.634047 -2.63813,1.973434 -0.55745,2.070201 0.38526,4.586276 2.14135,5.71521 0.93665,0.602142 1.27564,0.691452 2.28035,0.600768 0.94305,-0.08512 1.31241,-0.254536 1.83843,-0.843247 l 0,0 z" />
    </g>
    <text
       xml:space="preserve"
       style="font-size:20.54128838px;font-style:normal;font-variant:normal;font-weight:500;font-stretch:normal;line-height:125%;letter-spacing:0px;word-spacing:0px;fill:#000000;fill-opacity:1;stroke:none;font-family:OCRA;-inkscape-font-specification:OCRA Medium"
       x="48.970936"
       y="957.77728"
       id="text5701"
       sodipodi:linespacing="125%"><tspan
         sodipodi:role="line"
         id="tspan5703"
         x="48.970936"
         y="957.77728"
         style="font-size:13.69419193px;font-style:normal;font-variant:normal;font-weight:bold;font-stretch:normal;font-family:OCRABold;-inkscape-font-specification:OCRABold Bold">January, 20-22</tspan></text>
    <text
       xml:space="preserve"
       style="font-size:10.09782887px;font-style:normal;font-variant:normal;font-weight:500;font-stretch:normal;line-height:125%;letter-spacing:0px;word-spacing:0px;fill:#000000;fill-opacity:1;stroke:none;font-family:OCRA;-inkscape-font-specification:OCRA Medium"
       x="59.549488"
       y="978.96558"
       id="text5705"
       sodipodi:linespacing="125%"><tspan
         sodipodi:role="line"
         id="tspan5707"
         x="59.549488"
         y="978.96558"
         style="font-style:normal;font-variant:normal;font-weight:bold;font-stretch:normal;font-family:OCRABold;-inkscape-font-specification:OCRABold Bold">Los Angeles,</tspan><tspan
         sodipodi:role="line"
         x="59.549488"
         y="991.58789"
         id="tspan5709"
         style="font-style:normal;font-variant:normal;font-weight:bold;font-stretch:normal;font-family:OCRABold;-inkscape-font-specification:OCRABold Bold">California</tspan></text>
  </g>
  <g
     inkscape:groupmode="layer"
     id="layer10"
     inkscape:label="10X"
     transform="translate(0,-802.36218)">
    <text
       xml:space="preserve"
       style="font-size:5.15147257000000014px;font-style:normal;font-variant:normal;font-weight:500;font-stretch:normal;line-height:125%;letter-spacing:0px;word-spacing:0px;fill:#8cadcb;fill-opacity:1;stroke:none;font-family:OCRA;-inkscape-font-specification:OCRA Medium"
       x="56.41795"
       y="937.31641"
       id="text5068"
       sodipodi:linespacing="125%"><tspan
         sodipodi:role="line"
         id="tspan5070"
         x="56.41795"
         y="937.31641"
         style="font-size:61.57690810999999798px;fill:#8cadcb;fill-opacity:1">10x</tspan></text>
    <path
       inkscape:connector-curvature="0"
       id="path5731"
       style="font-size:35.59093093999999979px;font-style:normal;font-variant:normal;font-weight:500;font-stretch:normal;line-height:125%;letter-spacing:0px;word-spacing:0px;fill:#8cadcb;fill-opacity:1;stroke:none;font-family:OCRA;-inkscape-font-specification:OCRA Medium"
       d="m 89.973731,849.58374 c 0.142357,-0.0237 1.708356,-0.0356 4.698003,-0.0356 2.989624,2e-5 4.567487,0.0119 4.733594,0.0356 1.091442,0.14239 2.004942,0.59321 2.740502,1.35245 0.73553,0.7593 1.16262,1.6728 1.28127,2.74051 0.0949,0.71184 -0.0712,1.26943 -0.49827,1.67277 -0.3322,0.30847 -0.7237,0.4627 -1.1745,0.46268 -0.16611,2e-5 -0.32034,-0.0118 -0.46268,-0.0356 -0.30848,-0.0949 -0.55761,-0.24912 -0.74741,-0.46268 -0.28475,-0.30843 -0.45084,-0.69993 -0.49828,-1.1745 -10e-6,-0.16607 -0.0237,-0.30843 -0.07118,-0.42709 -0.118654,-0.33216 -0.355926,-0.55757 -0.711819,-0.67623 l -0.142364,-0.0712 -4.377684,0 -4.413275,0 -0.07118,0.0712 c -0.213553,0.14239 -0.272871,0.32034 -0.177955,0.53386 0.04745,0.0475 2.159174,2.76425 6.335186,8.15033 4.199711,5.3861 6.335171,8.1266 6.406371,8.2215 0.33216,0.49828 0.53384,1.04401 0.60504,1.63718 0.11862,0.9491 -0.0949,1.82701 -0.64063,2.63373 -0.54575,0.783 -1.2813,1.29314 -2.20664,1.53041 -0.26102,0.0712 -0.581338,0.11864 -0.960957,0.14237 -0.355926,0 -1.767698,0 -4.235321,0 -2.965921,0 -4.53192,-0.0119 -4.698003,-0.0356 -1.091462,-0.14237 -2.004962,-0.59319 -2.740502,-1.35246 -0.73555,-0.75927 -1.162641,-1.67277 -1.281273,-2.7405 -0.07119,-0.66436 0.08304,-1.19822 0.462682,-1.60159 0.213541,-0.23727 0.474541,-0.3915 0.783,-0.46268 0.118632,-0.0475 0.260995,-0.0712 0.427091,-0.0712 0.450813,10e-6 0.842313,0.15424 1.174501,0.46269 0.332175,0.30846 0.51013,0.71182 0.533864,1.21009 0.02372,0.18982 0.04745,0.33218 0.07118,0.42709 0.142356,0.33218 0.379629,0.55759 0.711819,0.67623 l 0.142363,0.0712 4.377685,0 4.342093,0 0.106773,-0.0356 c 0.260985,-0.11864 0.332165,-0.29659 0.213545,-0.53387 -10e-6,-0.0475 -2.111743,-2.76422 -6.335185,-8.15032 -4.199736,-5.4098 -6.33519,-8.16217 -6.406368,-8.2571 -0.403367,-0.64061 -0.605049,-1.34057 -0.605045,-2.09986 -4e-6,-0.78298 0.213541,-1.48293 0.640636,-2.09987 0.640632,-0.97279 1.530404,-1.54224 2.66932,-1.70836" />
    <path
       inkscape:connector-curvature="0"
       id="path5733"
       style="font-size:35.59093093999999979px;font-style:normal;font-variant:normal;font-weight:500;font-stretch:normal;line-height:125%;letter-spacing:0px;word-spacing:0px;fill:#8cadcb;fill-opacity:1;stroke:none;font-family:OCRA;-inkscape-font-specification:OCRA Medium"
       d="m 120.25605,849.58374 c 0.21353,-0.0237 1.44735,-0.0356 3.70146,-0.0356 2.25407,2e-5 3.42857,0.0119 3.5235,0.0356 0.40334,0.0712 0.73553,0.27289 0.99655,0.60504 0.26098,0.30848 0.39148,0.66439 0.3915,1.06773 -2e-5,0.33221 -0.0949,0.65253 -0.28473,0.96096 -0.18984,0.28475 -0.43898,0.48643 -0.74741,0.60504 -0.16611,0.0712 -0.36779,0.11866 -0.60505,0.14237 -0.23729,2e-5 -1.30501,2e-5 -3.20318,0 -2.27783,2e-5 -3.4642,0.0119 -3.55909,0.0356 -0.35592,0.11866 -0.65251,0.32034 -0.88978,0.60504 -0.0712,0.0949 -0.4271,0.79489 -1.06772,2.09987 -1.66092,3.27438 -2.56256,5.07765 -2.70491,5.40982 -0.11865,0.26102 -0.20169,0.56947 -0.24914,0.92536 -0.0237,0.16611 -0.0356,0.39152 -0.0356,0.67623 -1e-5,0.28474 0.0119,0.51015 0.0356,0.67623 0.0475,0.35592 0.13049,0.66438 0.24914,0.92536 0.14235,0.3322 1.04399,2.14733 2.70491,5.44542 0.64062,1.28128 0.99653,1.96937 1.06772,2.06427 0.23727,0.28473 0.53386,0.48641 0.88978,0.60505 0.0949,0.0237 1.28126,0.0356 3.55909,0.0356 1.89817,0 2.96589,0.0119 3.20318,0.0356 0.23726,0 0.43894,0.0356 0.60505,0.10677 0.30843,0.11864 0.55757,0.33219 0.74741,0.64064 0.1898,0.28473 0.28471,0.59318 0.28473,0.92536 -2e-5,0.40337 -0.13052,0.77114 -0.3915,1.10332 -0.26102,0.30846 -0.59321,0.49827 -0.99655,0.56946 -0.11866,0.0237 -1.29315,0.0356 -3.5235,0.0356 -2.20665,0 -3.40488,-0.0119 -3.59469,-0.0356 -1.66092,-0.18982 -2.93032,-0.99655 -3.80823,-2.42019 -0.0712,-0.11863 -0.71182,-1.37618 -1.92191,-3.77264 -1.21009,-2.42017 -1.85073,-3.72517 -1.92191,-3.915 -0.28473,-0.66435 -0.47455,-1.37617 -0.56945,-2.13545 -0.0237,-0.21354 -0.0356,-0.51013 -0.0356,-0.88978 -1e-5,-0.37962 0.0119,-0.67621 0.0356,-0.88977 0.0949,-0.75926 0.28472,-1.47108 0.56945,-2.13546 0.0712,-0.1898 0.71182,-1.48293 1.92191,-3.87941 1.21009,-2.42016 1.85072,-3.68957 1.92191,-3.80823 0.87791,-1.39988 2.11172,-2.20661 3.70146,-2.42018" />
    <path
       inkscape:connector-curvature="0"
       id="path5735"
       style="font-size:35.59093093999999979px;font-style:normal;font-variant:normal;font-weight:500;font-stretch:normal;line-height:125%;letter-spacing:0px;word-spacing:0px;fill:#8cadcb;fill-opacity:1;stroke:none;font-family:OCRA;-inkscape-font-specification:OCRA Medium"
       d="m 142.56959,849.26541 c 0.0474,2e-5 1.23381,2e-5 3.55909,0 1.9219,2e-5 3.01335,0.0119 3.27437,0.0356 0.28471,2e-5 0.56944,0.0356 0.85418,0.10677 1.04398,0.26102 1.91003,0.79488 2.59814,1.60159 0.7118,0.78302 1.12702,1.70838 1.24568,2.77609 -2e-5,0.14238 0.0593,1.66093 0.17795,4.55564 0.0949,2.94219 0.16607,5.06578 0.21355,6.37078 0.0474,1.37619 0.0593,2.11173 0.0356,2.20664 -0.0475,0.40336 -0.22543,0.74741 -0.53386,1.03213 -0.47457,0.45082 -1.0203,0.58132 -1.63719,0.39151 -0.61692,-0.18982 -1.00842,-0.60505 -1.1745,-1.24569 -0.0237,-0.0949 -0.0356,-0.16609 -0.0356,-0.21354 -2e-5,-0.0712 -0.0119,-0.10677 -0.0356,-0.10678 -2e-5,10e-6 -0.40338,0.23728 -1.21009,0.71182 -0.94911,0.54573 -1.5067,0.84232 -1.67277,0.88978 -0.0949,0.0237 -1.10334,0.0356 -3.02523,0.0356 -1.58974,0 -2.5151,0 -2.7761,0 -0.261,-0.0237 -0.54573,-0.0712 -0.85418,-0.14237 -0.92537,-0.23727 -1.72023,-0.69995 -2.38459,-1.38804 -0.78301,-0.80673 -1.24569,-1.77955 -1.38805,-2.91846 -0.0237,-0.21354 -0.0356,-0.73554 -0.0356,-1.566 0,-0.83045 0.0119,-1.35245 0.0356,-1.566 0.14236,-1.11518 0.60504,-2.07613 1.38805,-2.88287 0.75927,-0.80671 1.70836,-1.30499 2.84727,-1.49482 l 0.28473,-0.0356 3.73705,0 3.73705,0 0.28472,0.0356 c 0.18981,0.0475 0.34403,0.0949 0.46269,0.14237 0.14234,0.0237 0.21352,0.0356 0.21354,0.0356 0.0237,-0.0237 0.0119,-0.43894 -0.0356,-1.24568 -0.0237,-0.80672 -0.0356,-1.2694 -0.0356,-1.38805 -0.11865,-0.61689 -0.48643,-1.03212 -1.10332,-1.24568 l -0.21354,-0.0712 -3.45232,-0.0356 c -1.92193,2e-5 -3.00152,2e-5 -3.23878,0 -0.23728,-0.0237 -0.45083,-0.083 -0.64064,-0.17795 -0.4271,-0.21353 -0.72369,-0.56944 -0.88977,-1.06773 -0.0237,-0.0949 -0.0356,-0.23725 -0.0356,-0.42709 -1e-5,-0.21353 0.0119,-0.37962 0.0356,-0.49827 0.0712,-0.21353 0.17795,-0.41521 0.32032,-0.60505 0.28472,-0.33216 0.65249,-0.53384 1.10332,-0.60504 m 7.26055,10.64168 -0.21355,-0.0712 -3.48791,0 c -2.32528,10e-6 -3.52351,0.0119 -3.59468,0.0356 -0.0712,10e-6 -0.1661,0.0119 -0.28473,0.0356 -0.52201,0.18983 -0.86605,0.5576 -1.03214,1.10332 l -0.0356,0.17796 0,1.21009 0,1.24568 0.0356,0.14237 c 0.18981,0.59318 0.56945,0.98468 1.13891,1.1745 0.0949,0.0237 0.94908,0.0356 2.56255,0.0356 l 2.45577,0 1.81514,-1.03214 c 1.21008,-0.71181 1.81512,-1.06772 1.81514,-1.06773 -2e-5,10e-6 -0.0119,-0.28472 -0.0356,-0.85418 -0.0238,-0.56945 -0.0475,-0.91349 -0.0712,-1.03214 -0.0949,-0.33217 -0.27288,-0.60503 -0.53387,-0.81859 -0.16611,-0.11863 -0.34406,-0.21354 -0.53386,-0.28473" />
    <path
       inkscape:connector-curvature="0"
       id="path5737"
       style="font-size:35.59093093999999979px;font-style:normal;font-variant:normal;font-weight:500;font-stretch:normal;line-height:125%;letter-spacing:0px;word-spacing:0px;fill:#8cadcb;fill-opacity:1;stroke:none;font-family:OCRA;-inkscape-font-specification:OCRA Medium"
       d="m 164.37768,849.58374 c 0.23727,-0.0474 0.4864,-0.0356 0.74741,0.0356 0.23727,0.0475 0.45081,0.15425 0.64064,0.32032 0.26099,0.2373 0.45081,0.53389 0.56945,0.88977 0.0237,0.0949 0.0356,3.72521 0.0356,10.89083 l 0,10.74846 5.94369,0 c 3.93871,0 5.95553,0.0119 6.05046,0.0356 0.40334,0.0712 0.73552,0.27287 0.99654,0.60504 0.26098,0.30846 0.39148,0.66437 0.3915,1.06773 -2e-5,0.40337 -0.13052,0.77114 -0.3915,1.10332 -0.26102,0.30846 -0.5932,0.49827 -0.99654,0.56946 -0.0949,0.0237 -2.6812,0.0356 -7.75883,0.0356 l -7.61646,0 0,-12.38565 c 0,-6.7148 0,-10.48744 0,-11.31791 0,-0.85416 0.0356,-1.3643 0.10678,-1.53041 0.0712,-0.1898 0.20167,-0.37961 0.3915,-0.56946 0.26099,-0.26097 0.55758,-0.42706 0.88977,-0.49827" />
    <path
       inkscape:connector-curvature="0"
       id="path5739"
       style="font-size:35.59093093999999979px;font-style:normal;font-variant:normal;font-weight:500;font-stretch:normal;line-height:125%;letter-spacing:0px;word-spacing:0px;fill:#8cadcb;fill-opacity:1;stroke:none;font-family:OCRA;-inkscape-font-specification:OCRA Medium"
       d="m 188.43159,862.71679 0,-13.16864 7.61646,0 c 5.07762,2e-5 7.66389,0.0119 7.75882,0.0356 0.40335,0.0712 0.73553,0.27289 0.99655,0.60504 0.26098,0.30848 0.39148,0.66439 0.3915,1.06773 -2e-5,0.40339 -0.13052,0.77116 -0.3915,1.10332 -0.26102,0.30848 -0.5932,0.4983 -0.99655,0.56946 -0.0949,0.0237 -2.11174,0.0356 -6.05046,0.0356 l -5.94368,0 0,4.02177 0,4.02178 2.66932,0 c 1.47108,10e-6 2.30153,0.0119 2.49136,0.0356 0.21354,10e-6 0.41522,0.0475 0.60505,0.14236 0.33217,0.16611 0.5813,0.42711 0.74741,0.783 0.11862,0.21356 0.17794,0.4627 0.17795,0.74741 -1e-5,0.26102 -0.0593,0.51015 -0.17795,0.74741 -0.16611,0.3322 -0.41524,0.5932 -0.74741,0.783 -0.18983,0.0712 -0.39151,0.11865 -0.60505,0.14237 -0.18983,10e-6 -1.02028,0.0119 -2.49136,0.0356 l -2.66932,0 0,4.02177 0,4.02178 5.94368,0 c 3.93872,0 5.95553,0.0119 6.05046,0.0356 0.40335,0.0712 0.73553,0.27287 0.99655,0.60504 0.26098,0.30846 0.39148,0.66437 0.3915,1.06773 -2e-5,0.40337 -0.13052,0.77114 -0.3915,1.10332 -0.26102,0.30846 -0.5932,0.49827 -0.99655,0.56946 -0.0949,0.0237 -2.6812,0.0356 -7.75882,0.0356 l -7.61646,0 0,-13.16865" />
  </g>
</svg>
