<?xml version="1.0" encoding="UTF-8" standalone="no"?>
<!-- Created with Inkscape (http://www.inkscape.org/) -->

<svg
   xmlns:dc="http://purl.org/dc/elements/1.1/"
   xmlns:cc="http://creativecommons.org/ns#"
   xmlns:rdf="http://www.w3.org/1999/02/22-rdf-syntax-ns#"
   xmlns:svg="http://www.w3.org/2000/svg"
   xmlns="http://www.w3.org/2000/svg"
   version="1.1"
   width="744.09448"
   height="1052.3622"
   id="svg3313">
  <defs
     id="defs3315" />
  <metadata
     id="metadata3318">
    <rdf:RDF>
      <cc:Work
         rdf:about="">
        <dc:format>image/svg+xml</dc:format>
        <dc:type
           rdf:resource="http://purl.org/dc/dcmitype/StillImage" />
        <dc:title></dc:title>
      </cc:Work>
    </rdf:RDF>
  </metadata>
  <g
     id="layer1">
    <path
       d="m 71.157712,394.83083 c 2.0042,-0.4723 2.9555,-1.3834 4.6162,-4.4212 0.52451,-0.9594 1.78763,-2.1195 2.80694,-2.5779 2.90494,-1.3065 50.641058,-4.8676 53.983188,-4.0272 0.7983,0.2008 2.53151,1.784 3.99181,3.6464 3.08241,3.9311 4.277,4.5671 7.6096,4.0512 5.88404,-0.9107 6.48445,-2.7162 5.98719,-18.00353 -0.88768,-27.29022 -5.04649,-44.5729 -16.02443,-66.59254 -2.64742,-5.31021 -4.90664,-9.84478 -5.02048,-10.0768 -0.11384,-0.23203 0.73014,-0.42187 1.87551,-0.42187 3.01208,0 12.15599,-2.23027 13.30892,-3.24615 2.35431,-2.07445 0.082,-5.95041 -3.867,-6.59614 -1.19236,-0.19497 -3.19011,-0.71922 -4.43943,-1.16501 -3.28103,-1.17073 -11.95483,-6.27805 -15.89783,-9.36098 -5.22896,-4.08839 -5.2471,-4.25979 -2.8752,-27.16223 1.61512,-15.59509 1.88112,-21.47127 1.17732,-26.00827 -1.49378,-9.62957 -7.11351,-16.47847 -15.64626,-19.06847 -3.089628,-0.93782 -12.038998,-1.08152 -15.146128,-0.24322 -7.02488,1.89531 -12.06929,8.91322 -13.77501,19.16413 -0.46857,2.81596 -0.97215,3.9989 -2.19128,5.14747 -2.18051,2.0543 -2.08491,4.0889 0.2979,6.3406 1.28352,1.21289 2.09647,2.67801 2.55989,4.61356 0.80937,3.38047 2.52821,6.39801 3.64442,6.39801 1.26058,0 1.35566,-1.21328 0.28649,-3.65608 -0.54165,-1.23754 -1.16212,-3.21484 -1.37883,-4.39401 -0.35607,-1.9375 -0.26599,-2.17748 0.93554,-2.4923 2.73333,-0.71619 9.94256,-4.69923 10.75547,-5.94232 0.46392,-0.70943 1.13368,-3.17566 1.48835,-5.4805 0.76359,-4.96236 2.30004,-8.41249 4.6158,-10.3649 1.33545,-1.12591 2.2973,-1.41936 4.65237,-1.41936 5.253818,0 7.797058,3.21077 7.856518,9.91862 0.0395,4.4584 0.40236,3.62775 -11.884108,27.2058 -7.90268,15.16543 -11.48223,25.00014 -13.40675,36.83468 -1.56464,9.62153 -0.60824,13.72128 8.82133,37.81395 7.27861,18.59694 8.54565,23.26056 8.60215,31.6622 0.0279,4.14859 -0.23249,7.25156 -0.726,8.65152 -2.65993,7.5456 -14.45545,12.26234 -30.97267,12.38534 -10.105278,0.075 -10.146478,0.049 -11.369088,-7.34761 -2.94845,-17.83669 -3.77665,-40.56079 -1.86221,-51.09491 2.27028,-12.4921 5.990388,-23.01598 14.601368,-41.30603 5.2333,-11.11574 5.71684,-12.28996 6.43634,-15.62998 0.39798,-1.84751 0.33339,-2.52245 -0.29109,-3.04174 -1.15575,-0.96107 -1.95029,0.0379 -2.85368,3.58794 -0.41331,1.62423 -2.20054,6.09579 -3.9716,9.93681 l -3.22012,6.98367 -3.63528,1.22925 c -4.387928,1.48376 -7.942978,3.25253 -8.928368,4.44219 -0.42549,0.51368 -0.58095,1.46009 -0.37494,2.28251 0.40065,1.59948 2.11759,2.24415 5.83549,2.1911 2.005058,-0.0286 2.347228,0.11745 2.023928,0.86389 -3.405738,7.86323 -6.890978,19.34421 -8.415738,27.72293 -3.6098,19.8361 1.21292,62.62958 8.453278,75.00858 1.98479,3.3935 5.43765,4.358 10.95021,3.0589 z m -9.15028,-5.753 c -1.08743,-2.3172 -3.748168,-10.0033 -3.748168,-10.8274 0,-0.089 1.073658,0.089 2.385908,0.396 3.2134,0.752 14.80697,0.2058 20.35036,-0.9587 10.7409,-2.2562 17.31141,-6.27144 19.993428,-12.21799 1.19257,-2.64416 1.33856,-3.77107 1.33207,-10.28202 -0.007,-6.5576 -0.19593,-7.97118 -1.83478,-13.69483 -1.005108,-3.51034 -4.332978,-12.74926 -7.395268,-20.53093 -7.20283,-18.30336 -8.55744,-22.88716 -8.58625,-29.0545 -0.0572,-12.24067 5.17427,-27.0598 17.725908,-50.21244 3.56098,-6.56856 6.90227,-13.44336 7.42508,-15.27734 2.28158,-8.00373 -1.07219,-15.94961 -7.48518,-17.73416 -2.877468,-0.80072 -3.979958,-0.72339 -6.583708,0.46179 -4.42564,2.01447 -7.55649,7.33174 -8.42688,14.31174 -0.4754,3.81248 -1.79256,5.11273 -7.55643,7.4594 -3.85841,1.57088 -6.35674,1.62015 -6.63847,0.13091 -0.2382,-1.25912 3.45744,-3.1457 7.96802,-4.06758 2.76012,-0.56412 3.43079,-0.91147 3.43079,-1.77685 0,-0.88319 -0.4018,-1.07217 -2.24555,-1.05616 -1.23506,0.0107 -3.03649,0.21404 -4.00319,0.45184 l -1.75762,0.43234 0.50002,-2.7018 c 1.33252,-7.20016 4.18634,-12.26205 8.26893,-14.66676 2.46231,-1.45035 2.99203,-1.53484 9.62311,-1.53484 6.007458,0 7.395128,0.17493 9.642238,1.21549 6.24226,2.89056 10.24121,8.90218 11.07667,16.65158 0.48087,4.46035 -0.033,14.64256 -1.31238,26.00724 -1.24065,11.02022 -1.6315,17.8671 -1.18878,20.82514 0.3228,2.15677 0.89628,3.15863 3.01988,5.27565 4.68603,4.6715 17.04402,12.03246 21.4062,12.75046 2.54201,0.41841 5.07426,1.38117 5.07426,1.92923 0,0.66943 -7.16971,2.31445 -11.56948,2.6545 -4.62081,0.35714 -7.91056,-0.31415 -14.77817,-3.01555 -4.00984,-1.57728 -4.9003,-1.75758 -5.5358,-1.12083 -0.63551,0.63675 -0.61778,0.89864 0.11023,1.62807 0.9558,0.95768 8.46436,3.96272 11.56321,4.62777 1.08067,0.23194 2.3869,0.64302 2.90273,0.91354 1.21163,0.63539 10.47847,19.41476 13.04496,26.43577 6.1213,16.74567 8.88661,33.23244 8.9836,53.56002 0.0471,9.8662 -0.024,10.6453 -1.0392,11.3905 -0.59935,0.4399 -1.99803,0.7998 -3.10816,0.7998 -1.77103,0 -2.27777,-0.3481 -4.13434,-2.8397 -3.08435,-4.1395 -4.84097,-5.0305 -9.92251,-5.0331 -7.61275,0 -47.628048,2.9729 -50.234748,3.7369 -1.9807,0.5805 -4.66612,2.9506 -5.96319,5.2629 l -1.26092,2.248 -4.06628,0 -4.06628,0 -1.38587,-2.9531 z M 57.978574,283.7603 c 1.543818,-0.71693 3.367248,-1.46967 4.052058,-1.67277 1.17518,-0.34853 1.21151,-0.27267 0.64682,1.35038 -0.58261,1.67457 -0.68884,1.71842 -4.052068,1.67277 l -3.45376,-0.0469 2.80695,-1.30349 z m 46.563476,-62.85189 c 1.71654,-2.45552 0.70247,-6.02257 -2.09858,-7.38182 -2.874348,-1.39482 -4.886958,0.0857 -4.886958,3.59492 0,4.14587 4.883808,6.79342 6.985538,3.7869 z"
       id="path3477"
       style="fill:#000000" />
    <path
       d="m 629.94113,392.40303 c -1.13679,-1.1368 -1.74613,-2.7742 -1.74895,-4.6995 -0.003,-1.8819 -0.38652,-2.2787 -2.71053,-2.8022 -9.20564,-2.0736 -38.6768,-5.2598 -42.33336,-4.5767 -0.95632,0.1787 -1.88468,0.652 -2.75832,1.4063 -0.72424,0.6254 -2.43244,2.0479 -3.79594,3.1611 -2.37437,1.9386 -2.53911,2.0188 -3.89918,1.8974 -1.55898,-0.1391 -12.0007,-5.1688 -12.47539,-6.0093 -0.78166,-1.384 0.69232,-2.757 4.9438,-4.6052 1.34067,-0.5828 2.47769,-1.18 2.52671,-1.3271 0.049,-0.1471 -0.66542,-2.2084 -1.58765,-4.5805 -5.47285,-14.07717 -7.7655,-25.89809 -7.74836,-39.95028 0.0158,-13.06167 2.35906,-24.44695 7.89354,-38.35492 0.66267,-1.6652 1.20429,-3.12943 1.20361,-3.25383 0,-0.1244 -1.15111,-0.23892 -2.55658,-0.25448 -2.91187,-0.0322 -4.41576,-0.61124 -4.90073,-1.88681 -0.87723,-2.3073 1.26955,-4.02138 8.07829,-6.45003 1.78961,-0.63834 3.47574,-1.27644 3.74693,-1.418 1.14773,-0.59907 7.71895,-15.93378 7.71895,-18.01309 0,-0.92562 0.53626,-1.48824 1.41854,-1.48824 1.09713,0 1.47557,0.75357 1.28675,2.56238 -0.30406,2.91306 -1.21721,5.12287 -8.35329,20.21442 -6.55473,13.86221 -9.91287,24.01156 -11.77186,35.57859 -0.61652,3.83599 -0.70549,5.50413 -0.69743,13.0739 0.01,9.03638 0.25082,11.72647 1.75013,19.52297 0.64109,3.33372 0.68776,3.44036 2.11883,4.84337 2.68072,2.62812 9.56641,5.50875 17.05018,7.13285 2.69758,0.5854 4.20218,0.7053 8.97391,0.7148 5.30578,0.011 5.86711,-0.043 7.53388,-0.7137 2.50368,-1.0082 3.66672,-2.2849 4.74064,-5.20402 0.86115,-2.34087 0.89499,-2.63824 0.87661,-7.70297 -0.0183,-5.03469 -0.0685,-5.45355 -1.13378,-9.4537 -1.37039,-5.14586 -3.24695,-10.27377 -7.37048,-20.14064 -4.5029,-10.77463 -6.09486,-15.07772 -7.28179,-19.6826 -1.3826,-5.36402 -1.60306,-8.33659 -0.95334,-12.85569 1.6825,-11.70256 6.31078,-24.3188 14.40466,-39.26566 l 1.88096,-3.47354 -1.0031,-0.73255 c -0.5517,-0.4029 -2.00817,-1.46329 -3.2366,-2.35642 -3.56992,-2.5955 -4.4179,-4.74253 -2.59361,-6.56681 0.7622,-0.76221 1.15414,-0.90583 2.47204,-0.90583 1.70937,0 4.73928,1.01369 7.01345,2.34645 0.77683,0.45526 1.45952,0.77593 1.51706,0.71262 0.38702,-0.4259 2.42346,-4.85653 2.94844,-6.41494 0.78646,-2.33457 0.84407,-5.93897 0.13529,-8.46502 -0.93735,-3.3407 -3.61357,-5.51925 -6.78008,-5.51925 -3.99235,0 -7.16421,3.4776 -8.37228,9.1793 -0.24683,1.16491 -0.45197,2.60609 -0.45588,3.20263 -0.0118,1.81516 -0.60267,3.36735 -1.69884,4.46351 -1.3812,1.38122 -4.97925,3.33429 -8.14362,4.42047 -1.9681,0.67556 -2.55645,1.00984 -2.55658,1.45255 -2.8e-4,1.0605 0.96785,4.32444 1.72707,5.82271 0.94516,1.86519 0.94181,2.29534 -0.0229,2.92739 -0.70314,0.46073 -0.84252,0.4632 -1.50863,0.0267 -0.83406,-0.54648 -2.03408,-3.33552 -2.8238,-6.56288 -0.44156,-1.8046 -0.69309,-2.27339 -1.49639,-2.78899 -2.92472,-1.87728 -3.19736,-5.34942 -0.56548,-7.20147 1.14315,-0.80444 1.22905,-0.9762 1.43488,-2.86992 0.31475,-2.89591 1.48012,-7.26352 2.59277,-9.71743 2.39215,-5.27582 5.81757,-8.46326 10.57869,-9.84381 2.21543,-0.64238 11.42367,-0.56387 13.94498,0.1189 6.95464,1.88331 12.0515,6.87569 14.20578,13.91453 1.54861,5.05981 1.51185,9.74921 -0.13198,16.83873 -1.33209,5.74511 -1.39282,5.31877 1.03035,7.23087 3.79687,2.99607 9.14177,7.91538 11.13847,10.2516 3.134,3.66689 3.85207,7.06581 2.59163,12.26682 -0.80233,3.31082 -1.73438,5.51413 -4.98142,11.77576 -4.01656,7.74566 -3.97525,6.82834 -0.58117,12.90871 11.43606,20.48711 17.55165,37.24289 19.66062,53.86696 0.71798,5.65967 0.5027,15.84743 -0.44868,21.23263 -0.83413,4.7214 -1.96243,8.6687 -3.31565,11.5995 -0.5848,1.2666 -0.95607,2.3944 -0.82505,2.5062 0.13102,0.1118 1.45725,1.208 2.94716,2.4362 3.57723,2.9486 3.94916,4.3541 1.38015,5.2154 -1.77557,0.5953 -11.50129,1.9744 -15.30821,2.1707 l -3.47186,0.1791 -1.06704,-1.0671 z m 11.26463,-2.7859 c 2.6418,-0.3542 4.99351,-0.7478 5.22605,-0.8747 0.30013,-0.1637 -0.3515,-0.8826 -2.24669,-2.4786 -1.46822,-1.2363 -2.66947,-2.363 -2.66947,-2.5038 0,-0.1408 0.41968,-0.9311 0.93261,-1.7562 3.56514,-5.7351 5.83414,-19.1 5.02692,-29.60924 -1.34938,-17.56704 -7.70786,-35.43209 -21.03718,-59.10713 -2.50427,-4.44794 -2.38497,-5.16408 2.40101,-14.41189 3.46006,-6.68582 4.62202,-10.05397 4.61275,-13.37091 -0.009,-3.23665 -0.57456,-4.3964 -3.76328,-7.71785 -8.19444,-8.53552 -24.2721,-20.10469 -29.31052,-21.09127 -2.09621,-0.41046 -0.87968,0.83927 4.26097,4.37728 6.74094,4.6394 11.19927,8.83882 13.78042,12.98009 2.45277,3.93533 3.16347,7.0195 2.16702,9.40432 -0.62544,1.49691 -1.08247,1.9803 -3.92095,4.14726 -2.55584,1.95115 -3.70642,2.27011 -4.28554,1.188 -0.52864,-0.9878 -0.12957,-1.64179 1.89837,-3.11092 l 1.88214,-1.36352 -0.2238,-1.24317 c -0.12312,-0.68375 -0.30992,-2.85306 -0.41516,-4.82071 -0.22206,-4.15156 -0.28795,-4.27193 -4.58042,-8.36753 -3.31057,-3.15868 -4.26928,-3.8219 -4.72717,-3.27016 -0.94788,1.14214 -8.21402,16.10069 -9.87453,20.32839 -3.5467,9.02999 -5.55754,17.01192 -5.8616,23.26756 -0.29867,6.14451 1.11027,11.10713 7.55514,26.61117 7.82905,18.83384 9.4798,24.47522 9.52492,32.55159 0.0279,5.01258 -0.27735,6.70177 -1.8206,10.07134 -1.98613,4.3367 -5.28164,6.1201 -12.09928,6.5476 -7.35195,0.4611 -17.87399,-1.7638 -25.06337,-5.2997 -1.54024,-0.7575 -2.85702,-1.3207 -2.92616,-1.2516 -0.24382,0.2438 1.27334,4.7225 3.69409,10.9049 1.34656,3.4391 2.4483,6.3215 2.4483,6.4053 0,0.084 -0.73211,0.3916 -1.62691,0.6839 -0.8948,0.2923 -2.52785,0.9356 -3.62898,1.4295 l -2.00209,0.8981 1.07243,0.6548 c 0.58981,0.3601 2.45406,1.3314 4.14274,2.1585 l 3.07031,1.5038 1.11318,-0.8334 c 0.61225,-0.4584 2.0893,-1.6947 3.28237,-2.7474 2.88689,-2.547 3.84944,-3.0014 6.71851,-3.1716 5.69039,-0.3376 34.08121,2.7867 41.70924,4.5899 4.48688,1.0606 5.09482,1.661 5.4858,5.4174 0.3424,3.2894 0.41789,3.3665 3.05916,3.1262 1.21879,-0.1108 4.37745,-0.4914 7.01925,-0.8456 z M 568.52478,285.34501 c 0.47255,-0.18134 1.88257,-2.53311 1.65511,-2.76057 -0.15878,-0.15878 -6.18438,2.25804 -6.55581,2.62948 -0.35932,0.35932 4.00196,0.47597 4.9007,0.13109 z m 49.9401,-46.75493 c 0.72408,-3.08764 0.87391,-4.42857 0.8829,-7.90216 0.01,-3.79141 -0.073,-4.43924 -0.88355,-6.91229 -3.01509,-9.19883 -10.96413,-13.67422 -21.8824,-12.32001 -3.79468,0.47066 -6.2326,1.60172 -8.22221,3.81467 -2.47365,2.75128 -4.63289,7.81881 -5.27312,12.37555 l -0.20394,1.45129 1.4236,-0.42843 c 2.19627,-0.66098 4.9562,-0.89436 5.72311,-0.48393 0.69099,0.36981 0.86728,1.39327 0.37422,2.17244 -0.1718,0.27151 -1.1103,0.53262 -2.4157,0.6721 -2.49163,0.26623 -6.26344,1.64806 -7.52651,2.75739 -0.72151,0.63369 -0.83134,0.90183 -0.60286,1.47207 0.21172,0.52843 0.52563,0.69476 1.29648,0.68697 2.23346,-0.0226 10.00221,-3.61406 10.90863,-5.04303 0.2371,-0.37379 0.52368,-1.58605 0.63685,-2.6939 0.67801,-6.63723 3.53831,-11.89215 7.53813,-13.84908 3.0437,-1.48914 7.38378,-1.08725 10.04287,0.92999 2.99816,2.27447 4.41073,5.66758 4.41073,10.59493 0,3.64139 -0.4666,5.42615 -2.5241,9.65479 -0.77953,1.60213 -1.35353,2.97676 -1.27556,3.05474 0.078,0.078 1.52669,1.10327 3.21936,2.27842 1.96894,1.36696 3.15027,2.01047 3.2793,1.78639 0.11094,-0.19264 0.59412,-2.02365 1.07377,-4.06891 z m -12.58001,-11.33516 c -2.72333,-1.12814 -4.12896,-5.48792 -2.34462,-7.27224 1.12626,-1.12627 2.91645,-1.05027 4.32161,0.18348 1.99522,1.75181 2.61571,5.13075 1.20181,6.54463 -0.70199,0.702 -2.18493,0.95584 -3.1788,0.54413 z"
       id="path12932-5"
       style="fill:#000000" />
    <path
       d="m 452.65004,392.52172 c -1.22358,-0.9749 -1.76803,-2.2111 -1.98172,-4.4994 -0.10279,-1.1007 -0.34045,-2.2085 -0.52812,-2.4616 -0.90735,-1.2237 -19.32018,-3.8574 -36.62081,-5.2382 -7.42842,-0.5928 -8.55575,-0.4725 -10.46843,1.1174 -5.79454,4.8166 -6.35122,5.2035 -7.4868,5.2035 -1.26549,0 -12.28161,-5.2395 -12.74063,-6.0597 -0.79811,-1.4261 0.95862,-2.9931 5.38381,-4.8024 l 2.3662,-0.9675 -0.90375,-2.1916 c -8.00895,-19.42191 -10.59362,-39.05242 -7.52603,-57.16034 1.29169,-7.625 3.5511,-15.56235 6.62907,-23.28821 0.69068,-1.73367 1.25561,-3.25358 1.25539,-3.37759 -2.1e-4,-0.124 -1.00797,-0.23059 -2.23945,-0.23686 -2.88603,-0.0147 -4.42739,-0.54333 -5.04036,-1.72866 -0.83224,-1.60935 0.12174,-3.14701 2.8013,-4.51536 1.26318,-0.64505 8.62346,-3.47463 9.03817,-3.47463 0.18812,0 4.68013,-9.49367 5.79248,-12.24215 0.55918,-1.38165 1.19194,-3.32766 1.4061,-4.32447 0.21418,-0.9968 0.51072,-2.05563 0.65892,-2.35293 0.38488,-0.77198 1.68707,-0.67929 2.23646,0.1592 0.39813,0.60758 0.40301,0.96359 0.0371,2.70279 -0.5767,2.74149 -1.75987,5.60899 -5.77187,13.98841 -7.86825,16.43357 -11.23114,25.52196 -13.34179,36.05693 -1.3931,6.95338 -1.60076,9.29806 -1.58603,17.90585 0.0145,8.49568 0.28838,11.5448 1.72278,19.18565 0.65194,3.47272 0.67916,3.53615 2.12492,4.9478 2.66708,2.60419 9.58126,5.50614 16.84235,7.06893 4.36105,0.93862 12.20394,1.19295 14.96517,0.4853 2.5562,-0.6551 4.41362,-1.7478 5.23777,-3.08133 1.79676,-2.90718 2.64963,-7.87842 2.16146,-12.59879 -0.64895,-6.27552 -2.69461,-12.88644 -7.77268,-25.11875 -8.04839,-19.38749 -9.37149,-23.7114 -9.31045,-30.42681 0.0716,-7.87888 3.49213,-20.00743 9.03783,-32.04665 2.09344,-4.54468 3.42773,-7.09616 9.88617,-18.90485 4.45911,-8.15307 5.05901,-9.68482 5.22155,-13.33265 0.16726,-3.75401 -0.40783,-5.94533 -2.03352,-7.74843 -1.43483,-1.59144 -3.16879,-2.39651 -5.16157,-2.39651 -4.15075,0 -7.19613,3.51743 -8.33241,9.62395 -0.26238,1.41002 -0.55199,3.21245 -0.64355,4.0054 -0.24986,2.16344 -1.44431,3.56179 -4.48799,5.25421 -1.42909,0.79464 -3.74506,1.83714 -5.14655,2.31668 -2.28453,0.78166 -2.54755,0.95178 -2.54178,1.6441 0.006,0.71138 1.17916,4.32757 2.17994,6.71905 0.38438,0.91848 0.36474,1.06021 -0.22904,1.65401 -0.76534,0.76533 -1.68346,0.59592 -2.33676,-0.43116 -0.7018,-1.10334 -1.73727,-3.9278 -2.23084,-6.08516 -0.25224,-1.10242 -0.60731,-2.05397 -0.78906,-2.11456 -0.67206,-0.22401 -2.19705,-1.69591 -2.63543,-2.54365 -0.9684,-1.87269 -0.22793,-4.28851 1.65553,-5.40109 0.82514,-0.48743 0.94175,-0.75224 1.13607,-2.57979 0.54822,-5.15643 2.58081,-10.67824 5.18415,-14.08334 3.57834,-4.68049 7.85608,-6.24157 16.28326,-5.94227 3.37735,0.11995 4.63976,0.30096 6.64115,0.95226 5.40621,1.75933 9.29263,5.1339 11.70196,10.1608 1.87667,3.91557 2.45042,6.40358 2.48922,10.79436 l 0.0319,3.60953 2.30963,1.50993 c 4.6063,3.01138 9.44585,9.11763 12.09344,15.25875 2.08042,4.82559 2.863,8.19595 2.85761,12.30692 -0.004,3.23407 -0.0922,3.7828 -0.9825,6.12636 -1.2525,3.29714 -2.59852,5.69448 -6.09894,10.86262 -3.35547,4.95414 -4.41312,6.7249 -4.77931,8.00174 -0.24423,0.85157 -2.4e-4,1.43468 2.36971,5.66329 3.55011,6.33432 8.82481,17.01713 11.02101,22.32074 3.80555,9.19005 7.06575,20.40963 8.39234,28.88127 0.67896,4.33578 0.93662,15.05956 0.46918,19.52706 -0.66177,6.3248 -2.24787,12.6697 -4.14703,16.5895 -0.44641,0.9213 -0.77783,1.702 -0.73649,1.7348 6.61429,5.2429 7.48497,6.7608 4.45997,7.7749 -1.76899,0.5931 -11.46869,1.9688 -15.19598,2.1552 -3.17607,0.1589 -3.45363,0.1255 -4.25342,-0.5118 z m 10.89457,-3.1417 c 2.63329,-0.3531 4.97743,-0.7454 5.2092,-0.8719 0.29918,-0.1632 -0.35035,-0.8798 -2.23945,-2.4706 -1.46347,-1.2323 -2.66086,-2.378 -2.66086,-2.5458 0,-0.1679 0.28541,-0.706 0.63424,-1.1959 3.8122,-5.3537 6.31358,-20.19493 5.2543,-31.17483 -1.62503,-16.84399 -7.60735,-33.7943 -19.49835,-55.24657 -2.95792,-5.33632 -3.13453,-5.7543 -3.00426,-7.1101 0.18711,-1.94719 1.1987,-3.85627 5.24346,-9.89541 5.8596,-8.74885 7.47999,-12.97445 6.74427,-17.58752 -1.55648,-9.75941 -8.39311,-20.57418 -14.98822,-23.70965 -3.21061,-1.5264 -3.37816,-0.80509 -0.75516,3.25092 2.52422,3.90328 3.31331,5.53084 4.01873,8.28899 1.06194,4.15216 0.6493,8.70828 -1.04193,11.50437 -1.08847,1.79955 -3.60174,4.28308 -6.76287,6.68284 -3.16639,2.40375 -4.27973,2.7787 -4.88617,1.64554 -0.51638,-0.96481 -0.14855,-1.56564 1.88386,-3.07724 1.71637,-1.27655 1.85398,-1.46564 1.68587,-2.31668 -0.10068,-0.50967 -0.26683,-2.84934 -0.36922,-5.19926 -0.21042,-4.82917 0.10584,-7.80372 1.41084,-13.26932 l 0.85948,-3.59962 -0.72696,-1.21905 c -0.39982,-0.67048 -0.81112,-1.83312 -0.91399,-2.58365 -0.16773,-1.2237 -0.0862,-1.47945 0.78952,-2.47684 0.5371,-0.61173 1.28263,-1.15578 1.65671,-1.209 0.66023,-0.0939 0.67907,-0.20538 0.64267,-3.80345 -0.0471,-4.66072 -0.91626,-7.63754 -3.24745,-11.12297 -3.35948,-5.02281 -8.31964,-7.35133 -15.71183,-7.37579 -6.24339,-0.0207 -9.27614,0.98192 -11.94307,3.94818 -2.3418,2.60465 -4.49131,7.72783 -5.22878,12.46253 l -0.20403,1.30974 1.50625,-0.4535 c 0.82841,-0.24943 2.28533,-0.54174 3.23755,-0.64958 2.17456,-0.24625 3.05647,0.16292 3.05647,1.41805 0,1.08855 -0.70693,1.54446 -2.39477,1.54446 -2.09947,0 -6.659,1.67498 -8.1646,2.99933 -0.78579,0.69117 -0.1319,1.94292 1.01492,1.94292 2.0511,0 9.6428,-3.41225 10.7646,-4.83837 0.36736,-0.46705 0.66739,-1.52045 0.8028,-2.81872 0.70604,-6.76891 3.47657,-11.90202 7.48643,-13.87037 1.50754,-0.74003 2.13008,-0.86392 4.26609,-0.849 2.07303,0.0145 2.79506,0.16135 4.2196,0.85832 3.24116,1.58575 5.20555,4.64469 5.85818,9.1224 0.77911,5.34548 -0.23034,8.28951 -7.146,20.84096 -9.43303,17.1203 -13.55533,27.04719 -15.95813,38.42847 -2.24499,10.63387 -1.44252,14.49135 7.44819,35.80379 6.1342,14.70463 8.36349,22.24688 8.70667,29.45679 0.37141,7.80268 -2.25444,14.10561 -6.65202,15.96709 -7.28065,3.0819 -21.74535,1.3884 -32.32461,-3.78449 -1.52184,-0.74413 -2.82811,-1.29184 -2.9028,-1.21715 -0.22089,0.22087 2.00461,6.66654 4.14438,12.00344 1.09379,2.7281 1.98874,5.0574 1.98874,5.1763 0,0.1189 -0.72976,0.4545 -1.62168,0.7459 -0.89192,0.2913 -2.52209,0.9337 -3.62261,1.4274 l -2.00093,0.8976 1.38315,0.8006 c 0.76074,0.4404 2.63116,1.4 4.15656,2.1325 l 2.77337,1.3319 1.08776,-0.8094 c 0.59823,-0.4451 2.06073,-1.6681 3.24996,-2.7176 3.47558,-3.0674 3.53071,-3.0855 9.26673,-3.044 9.51074,0.069 35.15373,3.1799 41.07772,4.9838 2.40897,0.7336 3.10243,1.708 3.40639,4.7867 0.33225,3.3653 0.39815,3.4346 3.03844,3.1944 1.21486,-0.1105 4.36336,-0.4898 6.99665,-0.8429 z m -72.44698,-103.9364 c 0.27597,-0.1059 0.77668,-0.7314 1.11266,-1.39 0.51322,-1.00596 0.53614,-1.19747 0.14342,-1.19747 -0.73936,0 -6.03177,2.19666 -6.03177,2.50354 0,0.3113 4.00001,0.38159 4.77569,0.0839 z m 53.1541,-27.14428 c 0.93983,-2.05942 1.17736,-4.17599 0.76265,-6.79559 -0.32057,-2.02496 -1.99958,-6.33226 -2.46835,-6.33226 -0.1163,0 -0.54451,1.63326 -0.95157,3.62946 -0.57112,2.80073 -0.74086,4.6169 -0.74339,7.95394 -0.002,2.37846 0.1112,4.60247 0.25111,4.94225 0.23516,0.57112 0.33708,0.52446 1.34955,-0.61778 0.60235,-0.67956 1.41235,-1.93057 1.8,-2.78002 z M 428.63996,227.6622 c -2.18568,-0.87536 -3.5431,-3.10991 -3.31724,-5.46068 0.18339,-1.9086 0.97653,-2.66796 2.78663,-2.66796 1.0818,0 1.43597,0.1896 2.57522,1.37859 2.50544,2.61484 2.13521,6.3403 -0.67486,6.79042 -0.49852,0.0799 -1.11491,0.0617 -1.36975,-0.0404 z"
       id="path15053-4"
       style="fill:#000000" />
    <path
       d="m 284.61884,389.23058 c -1.09025,-1.0205 -1.45372,-1.9737 -1.79795,-4.7152 -0.15029,-1.1969 -0.39774,-2.3007 -0.54989,-2.4528 -1.30857,-1.3086 -32.26939,-5.2517 -42.40428,-5.4005 -3.94208,-0.058 -4.0149,-0.031 -6.84436,2.5038 -1.08081,0.9684 -2.7248,2.3247 -3.6533,3.014 -2.38318,1.7693 -3.11961,1.6312 -10.05131,-1.8847 -5.56267,-2.8216 -5.56485,-2.8231 -5.56485,-3.8906 0,-0.9191 0.20156,-1.2026 1.4465,-2.0347 0.79557,-0.5317 2.42375,-1.3712 3.61818,-1.8656 1.19443,-0.4944 2.29079,-0.9996 2.43638,-1.1228 0.14558,-0.1231 -0.51306,-2.2568 -1.46365,-4.7414 -5.16218,-13.49303 -7.45291,-24.28783 -7.96905,-37.55319 -0.50774,-13.0497 2.17375,-27.18393 7.92026,-41.74799 0.77211,-1.95686 1.40356,-3.62871 1.40322,-3.71524 -3.2e-4,-0.0865 -1.18756,-0.17035 -2.63825,-0.1863 -3.019,-0.0332 -4.54393,-0.67642 -5.0561,-2.13276 -0.72951,-2.07437 1.52017,-3.84859 7.80244,-6.15341 l 4.65565,-1.70805 2.04754,-4.26981 c 3.09119,-6.44618 4.47738,-9.8117 5.01979,-12.18749 0.61552,-2.6961 0.8106,-3.06945 1.67041,-3.19699 2.27466,-0.3374 2.11956,2.69926 -0.45745,8.95636 -0.58013,1.40859 -2.67207,5.93918 -4.64874,10.06798 -8.44551,17.64064 -11.8034,27.44185 -13.92083,40.63294 -0.6792,4.23126 -0.94012,15.87461 -0.47404,21.15356 0.39057,4.42367 1.67477,12.62879 2.25061,14.37978 1.03037,3.13307 9.26158,7.18719 18.70401,9.21229 2.01312,0.43176 4.84241,0.73576 7.89406,0.8482 7.81401,0.28793 11.1315,-0.81578 13.00232,-4.3258 1.32482,-2.48561 1.89526,-5.23838 1.90069,-9.17218 0.009,-6.85499 -2.2226,-14.5373 -8.90512,-30.64946 -8.88173,-21.41466 -9.76633,-25.54725 -7.75169,-36.21345 2.40222,-12.71815 6.66299,-23.07016 17.75695,-43.14245 2.02254,-3.65938 4.19624,-7.89319 4.83045,-9.40847 1.09087,-2.60635 1.15311,-2.94185 1.15311,-6.21592 0,-2.94791 -0.10743,-3.69404 -0.72477,-5.03399 -1.39262,-3.02267 -3.59588,-4.54266 -6.60278,-4.55515 -4.68895,-0.0195 -7.99523,4.54436 -8.87398,12.24921 -0.41447,3.63403 -1.16815,4.80832 -4.29654,6.69434 -2.02986,1.22375 -4.2276,2.17322 -8.18791,3.53735 -0.51139,0.17614 0.25548,3.37363 1.47612,6.15475 0.97343,2.21786 0.96477,2.93005 -0.0422,3.46894 -1.43795,0.76957 -2.89997,-1.50972 -4.10853,-6.4052 -0.58354,-2.36378 -0.75674,-2.69414 -1.67047,-3.18621 -2.21201,-1.19125 -3.07928,-4.63228 -1.60816,-6.38061 0.41583,-0.49419 1.09625,-1.08059 1.51205,-1.30312 0.66574,-0.35629 0.80029,-0.75527 1.12699,-3.34192 1.21556,-9.62424 5.94362,-16.76643 12.45276,-18.8111 1.9544,-0.61393 2.93135,-0.7047 7.59166,-0.70543 4.17057,-6.6e-4 5.79905,0.12324 7.39367,0.56246 7.10553,1.95714 12.24532,7.00415 14.44276,14.18203 1.64196,5.36343 1.4954,9.85239 -0.75126,23.00961 -0.76825,4.49913 -1.56196,9.73762 -1.7638,11.6411 -0.39208,3.69748 -0.2071,11.05988 0.29037,11.55735 0.18573,0.18574 0.99818,-0.69055 2.17341,-2.34418 3.51461,-4.94528 5.12722,-7.93893 6.11352,-11.34909 1.83805,-6.35514 3.22037,-8.404 5.66998,-8.404 1.73046,0 3.4416,1.68065 4.15417,4.08016 1.63174,5.49464 1.33396,17.72359 -0.61477,25.24716 -0.25609,0.98873 -1.50515,4.38668 -2.77568,7.55099 -2.36742,5.89618 -3.02724,7.99859 -3.02724,9.64586 0,0.58554 0.96787,2.69674 2.56846,5.60257 9.81204,17.81343 15.08672,33.55527 17.11225,51.07006 1.37854,11.92036 -0.46332,26.52931 -4.29063,34.03141 -0.35954,0.7048 -0.53606,1.383 -0.39226,1.5071 0.14381,0.1242 1.50173,1.2564 3.01761,2.5161 3.62392,3.0116 3.99189,4.4019 1.39543,5.2724 -1.8589,0.6232 -11.74213,2.0125 -15.63537,2.1979 -3.56527,0.1698 -3.63088,0.1604 -4.4866,-0.6405 z m 11.40834,-3.0741 c 2.50913,-0.343 4.8266,-0.7293 5.14994,-0.8584 0.49461,-0.1976 0.15765,-0.5971 -2.12371,-2.5182 -1.49139,-1.2559 -2.71161,-2.4078 -2.71161,-2.5597 0,-0.152 0.49036,-1.1006 1.08969,-2.108 3.24919,-5.4615 5.57184,-18.20292 5.06554,-27.78814 -0.96762,-18.31905 -6.70473,-36.50902 -17.91146,-56.78971 -2.01873,-3.65328 -2.08628,-3.84748 -2.08675,-5.99941 -6.3e-4,-2.71872 0.41441,-4.15829 3.16837,-10.9903 2.4995,-6.20077 2.96322,-7.834 3.60015,-12.67975 0.54672,-4.15948 0.61629,-12.67015 0.12527,-15.32628 -1.095,-5.92342 -2.43144,-5.53924 -4.39343,1.26295 -0.54903,1.90348 -1.40231,4.26142 -1.89619,5.23987 -2.48894,4.93097 -10.32117,15.22003 -12.04849,15.82789 -1.0552,0.37133 -1.88367,-0.0689 -2.03321,-1.08048 -0.0715,-0.48339 0.25416,-1.08214 1.00915,-1.85561 l 1.11466,-1.14195 -0.49323,-2.83162 c -0.37872,-2.1742 -0.45684,-4.21949 -0.33648,-8.80948 0.14046,-5.35667 0.32591,-6.95869 1.78459,-15.4166 1.92178,-11.14309 2.24361,-15.40574 1.46141,-19.35649 -1.20809,-6.10187 -4.66574,-10.92279 -9.46698,-13.19958 -1.38523,-0.65689 -3.15934,-1.3461 -3.94245,-1.53157 -4.58451,-1.08579 -11.10988,-0.6727 -14.36139,0.90915 -3.74663,1.82273 -6.60664,6.07721 -8.13469,12.10096 -0.42795,1.68703 -0.77809,3.38926 -0.77809,3.78274 0,0.70361 0.0239,0.70823 1.44748,0.2798 0.79612,-0.23959 2.3266,-0.52569 3.40108,-0.63578 1.59688,-0.1636 2.05068,-0.10306 2.48532,0.33158 1.32242,1.32243 0.24896,2.53499 -2.4572,2.77561 -2.34721,0.20871 -6.02421,1.55748 -7.41792,2.72101 -1.03328,0.86261 -1.04214,0.89151 -0.51847,1.69071 l 0.53276,0.81311 2.28601,-0.62168 c 2.60964,-0.70969 8.36852,-3.44765 9.21201,-4.37969 0.37494,-0.41431 0.70712,-1.65238 0.98815,-3.68298 0.99762,-7.20815 3.65473,-11.78922 7.95839,-13.72088 1.85642,-0.83323 5.21897,-0.88194 7.46331,-0.10809 5.73145,1.97619 8.53267,10.15964 6.03638,17.63464 -0.7808,2.33806 -2.63308,6.03627 -6.73348,13.44389 -8.33883,15.06465 -12.70157,25.14138 -15.24756,35.21771 -3.36844,13.33137 -2.7297,17.41167 6.02083,38.46163 4.81138,11.57408 6.68309,16.67959 7.98246,21.77401 1.70654,6.69079 2.08877,11.43485 1.28031,15.89067 -1.15987,6.39269 -3.52728,9.45482 -8.49147,10.98329 -7.24312,2.23015 -21.19092,0.18078 -30.92266,-4.54351 -1.59272,-0.77318 -2.96715,-1.40579 -3.0543,-1.40579 -0.25184,0 2.42423,7.61457 4.52667,12.88035 1.05758,2.6488 1.88072,4.8582 1.8292,4.9097 -0.0515,0.051 -1.22573,0.5177 -2.60937,1.0359 -3.94884,1.4789 -4.56077,1.7466 -4.56077,1.9953 0,0.1281 1.85349,1.1605 4.11886,2.2944 l 4.11886,2.0616 1.30841,-1.0155 c 0.71963,-0.5585 2.1579,-1.7768 3.19616,-2.7072 2.74831,-2.4628 3.91394,-2.9797 7.07905,-3.1392 5.99268,-0.302 34.28095,2.832 42.08881,4.6629 3.03758,0.7123 4.31723,1.3079 4.81724,2.2422 0.19817,0.3703 0.4922,1.7356 0.6534,3.034 0.44593,3.5919 0.48576,3.6319 3.36042,3.3793 1.32493,-0.1164 4.46189,-0.4923 6.97102,-0.8353 z M 222.02439,280.27582 c 0.97913,-0.26228 2.19579,-2.63002 1.35144,-2.63002 -0.53406,0 -5.27639,1.90309 -5.87906,2.35926 -0.53817,0.40734 -0.37851,0.45292 1.60474,0.45806 1.21131,0.003 2.5266,-0.0811 2.92288,-0.1873 z m 37.94026,-59.08514 c -1.62877,-0.70889 -2.73715,-2.4692 -2.89062,-4.59084 -0.11889,-1.64369 -0.0484,-1.91937 0.67576,-2.64355 1.02669,-1.02669 2.56166,-1.06417 4.01546,-0.098 1.2081,0.80285 2.48486,3.06664 2.48486,4.40584 0,1.26585 -0.83687,2.72422 -1.76598,3.07747 -1.01714,0.38671 -1.32691,0.36816 -2.51948,-0.15088 z"
       id="path15138-9"
       style="fill:#000000" />
    <path
       d="m 639.12665,751.75371 c -2.0042,-0.4723 -2.9555,-1.3834 -4.6162,-4.4212 -0.52451,-0.9594 -1.78763,-2.1195 -2.80694,-2.5779 -2.90494,-1.3065 -50.64106,-4.8676 -53.98319,-4.0272 -0.7983,0.2008 -2.53151,1.784 -3.99181,3.6464 -3.08241,3.9311 -4.277,4.5671 -7.6096,4.0512 -5.88404,-0.9107 -6.48445,-2.7162 -5.98719,-18.00353 0.88768,-27.29022 5.04649,-44.5729 16.02443,-66.59254 2.64742,-5.31021 4.90664,-9.84478 5.02048,-10.0768 0.11384,-0.23203 -0.73014,-0.42187 -1.87551,-0.42187 -3.01208,0 -12.15599,-2.23027 -13.30892,-3.24615 -2.35431,-2.07445 -0.082,-5.95041 3.867,-6.59614 1.19236,-0.19497 3.19011,-0.71922 4.43943,-1.16501 3.28103,-1.17073 11.95483,-6.27805 15.89783,-9.36098 5.22896,-4.08839 5.2471,-4.25979 2.8752,-27.16223 -1.61512,-15.59509 -1.88112,-21.47127 -1.17732,-26.00827 1.49378,-9.62957 7.11351,-16.47847 15.64626,-19.06847 3.08963,-0.93782 12.039,-1.08152 15.14613,-0.24322 7.02488,1.89531 12.06929,8.91322 13.77501,19.16413 0.46857,2.81596 0.97215,3.9989 2.19128,5.14747 2.18051,2.0543 2.08491,4.0889 -0.2979,6.3406 -1.28352,1.21289 -2.09647,2.67801 -2.55989,4.61356 -0.80937,3.38047 -2.52821,6.39801 -3.64442,6.39801 -1.26058,0 -1.35566,-1.21328 -0.28649,-3.65608 0.54165,-1.23754 1.16212,-3.21484 1.37883,-4.39401 0.35607,-1.9375 0.26599,-2.17748 -0.93554,-2.4923 -2.73333,-0.71619 -9.94256,-4.69923 -10.75547,-5.94232 -0.46392,-0.70943 -1.13368,-3.17566 -1.48835,-5.4805 -0.76359,-4.96236 -2.30004,-8.41249 -4.6158,-10.3649 -1.33545,-1.12591 -2.2973,-1.41936 -4.65237,-1.41936 -5.25382,0 -7.79706,3.21077 -7.85652,9.91862 -0.0395,4.4584 -0.40236,3.62775 11.88411,27.2058 7.90268,15.16543 11.48223,25.00014 13.40675,36.83468 1.56464,9.62153 0.60824,13.72128 -8.82133,37.81395 -7.27861,18.59694 -8.54565,23.26056 -8.60215,31.6622 -0.0279,4.14859 0.23249,7.25156 0.726,8.65152 2.65993,7.5456 14.45545,12.26234 30.97267,12.38534 10.10528,0.075 10.14648,0.049 11.36909,-7.34761 2.94845,-17.83669 3.77665,-40.56079 1.86221,-51.09491 -2.27028,-12.4921 -5.99039,-23.01598 -14.60137,-41.30603 -5.2333,-11.11574 -5.71684,-12.28996 -6.43634,-15.62998 -0.39798,-1.84751 -0.33339,-2.52245 0.29109,-3.04174 1.15575,-0.96107 1.95029,0.0379 2.85368,3.58794 0.41331,1.62423 2.20054,6.09579 3.9716,9.93681 l 3.22012,6.98367 3.63528,1.22925 c 4.38793,1.48376 7.94298,3.25253 8.92837,4.44219 0.42549,0.51368 0.58095,1.46009 0.37494,2.28251 -0.40065,1.59948 -2.11759,2.24415 -5.83549,2.1911 -2.00506,-0.0286 -2.34723,0.11745 -2.02393,0.86389 3.40574,7.86323 6.89098,19.34421 8.41574,27.72293 3.6098,19.8361 -1.21292,62.62958 -8.45328,75.00858 -1.98479,3.3935 -5.43765,4.358 -10.95021,3.0589 z m 9.15028,-5.753 c 1.08743,-2.3172 3.74817,-10.0033 3.74817,-10.8274 0,-0.089 -1.07366,0.089 -2.38591,0.396 -3.2134,0.752 -14.80697,0.2058 -20.35036,-0.9587 -10.7409,-2.2562 -17.31141,-6.27144 -19.99343,-12.21799 -1.19257,-2.64416 -1.33856,-3.77107 -1.33207,-10.28202 0.007,-6.5576 0.19593,-7.97118 1.83478,-13.69483 1.00511,-3.51034 4.33298,-12.74926 7.39527,-20.53093 7.20283,-18.30336 8.55744,-22.88716 8.58625,-29.0545 0.0572,-12.24067 -5.17427,-27.0598 -17.72591,-50.21244 -3.56098,-6.56856 -6.90227,-13.44336 -7.42508,-15.27734 -2.28158,-8.00373 1.07219,-15.94961 7.48518,-17.73416 2.87747,-0.80072 3.97996,-0.72339 6.58371,0.46179 4.42564,2.01447 7.55649,7.33174 8.42688,14.31174 0.4754,3.81248 1.79256,5.11273 7.55643,7.4594 3.85841,1.57088 6.35674,1.62015 6.63847,0.13091 0.2382,-1.25912 -3.45744,-3.1457 -7.96802,-4.06758 -2.76012,-0.56412 -3.43079,-0.91147 -3.43079,-1.77685 0,-0.88319 0.4018,-1.07217 2.24555,-1.05616 1.23506,0.0107 3.03649,0.21404 4.00319,0.45184 l 1.75762,0.43234 -0.50002,-2.7018 c -1.33252,-7.20016 -4.18634,-12.26205 -8.26893,-14.66676 -2.46231,-1.45035 -2.99203,-1.53484 -9.62311,-1.53484 -6.00746,0 -7.39513,0.17493 -9.64224,1.21549 -6.24226,2.89056 -10.24121,8.90218 -11.07667,16.65158 -0.48087,4.46035 0.033,14.64256 1.31238,26.00724 1.24065,11.02022 1.6315,17.8671 1.18878,20.82514 -0.3228,2.15677 -0.89628,3.15863 -3.01988,5.27565 -4.68603,4.6715 -17.04402,12.03246 -21.4062,12.75046 -2.54201,0.41841 -5.07426,1.38117 -5.07426,1.92923 0,0.66943 7.16971,2.31445 11.56948,2.6545 4.62081,0.35714 7.91056,-0.31415 14.77817,-3.01555 4.00984,-1.57728 4.9003,-1.75758 5.5358,-1.12083 0.63551,0.63675 0.61778,0.89864 -0.11023,1.62807 -0.9558,0.95768 -8.46436,3.96272 -11.56321,4.62777 -1.08067,0.23194 -2.3869,0.64302 -2.90273,0.91354 -1.21163,0.63539 -10.47847,19.41476 -13.04496,26.43577 -6.1213,16.74567 -8.88661,33.23244 -8.9836,53.56002 -0.0471,9.8662 0.024,10.6453 1.0392,11.3905 0.59935,0.4399 1.99803,0.7998 3.10816,0.7998 1.77103,0 2.27777,-0.3481 4.13434,-2.8397 3.08435,-4.1395 4.84097,-5.0305 9.92251,-5.0331 7.61275,0 47.62805,2.9729 50.23475,3.7369 1.9807,0.5805 4.66612,2.9506 5.96319,5.2629 l 1.26092,2.248 4.06628,0 4.06628,0 1.38587,-2.9531 z m 4.02886,-105.31753 c -1.54382,-0.71693 -3.36725,-1.46967 -4.05206,-1.67277 -1.17518,-0.34853 -1.21151,-0.27267 -0.64682,1.35038 0.58261,1.67457 0.68884,1.71842 4.05207,1.67277 l 3.45376,-0.0469 -2.80695,-1.30349 z m -46.56348,-62.85189 c -1.71654,-2.45552 -0.70247,-6.02257 2.09858,-7.38182 2.87435,-1.39482 4.88696,0.0857 4.88696,3.59492 0,4.14587 -4.88381,6.79342 -6.98554,3.7869 z"
       id="path3477-0"
       style="fill:#000000" />
    <path
       d="m 80.343229,749.32591 c 1.13679,-1.1368 1.74613,-2.7742 1.74895,-4.6995 0.003,-1.8819 0.38652,-2.2787 2.71053,-2.8022 9.20564,-2.0736 38.676801,-5.2598 42.333361,-4.5767 0.95632,0.1787 1.88468,0.652 2.75832,1.4063 0.72424,0.6254 2.43244,2.0479 3.79594,3.1611 2.37437,1.9386 2.53911,2.0188 3.89918,1.8974 1.55898,-0.1391 12.0007,-5.1688 12.47539,-6.0093 0.78166,-1.384 -0.69232,-2.757 -4.9438,-4.6052 -1.34067,-0.5828 -2.47769,-1.18 -2.52671,-1.3271 -0.049,-0.1471 0.66542,-2.2084 1.58765,-4.5805 5.47285,-14.07717 7.7655,-25.89809 7.74836,-39.95028 -0.0158,-13.06167 -2.35906,-24.44695 -7.89354,-38.35492 -0.66267,-1.6652 -1.20429,-3.12943 -1.20361,-3.25383 0,-0.1244 1.15111,-0.23892 2.55658,-0.25448 2.91187,-0.0322 4.41576,-0.61124 4.90073,-1.88681 0.87723,-2.3073 -1.26955,-4.02138 -8.07829,-6.45003 -1.78961,-0.63834 -3.47574,-1.27644 -3.74693,-1.418 -1.14773,-0.59907 -7.71895,-15.93378 -7.71895,-18.01309 0,-0.92562 -0.53626,-1.48824 -1.41854,-1.48824 -1.09713,0 -1.47557,0.75357 -1.28675,2.56238 0.30406,2.91306 1.21721,5.12287 8.35329,20.21442 6.55473,13.86221 9.91287,24.01156 11.77186,35.57859 0.61652,3.83599 0.70549,5.50413 0.69743,13.0739 -0.01,9.03638 -0.25082,11.72647 -1.75013,19.52297 -0.64109,3.33372 -0.68776,3.44036 -2.11883,4.84337 -2.68072,2.62812 -9.56641,5.50875 -17.05018,7.13285 -2.69758,0.5854 -4.20218,0.7053 -8.97391,0.7148 -5.30578,0.011 -5.86711,-0.043 -7.53388,-0.7137 -2.50368,-1.0082 -3.66672,-2.2849 -4.74064,-5.20402 -0.86115,-2.34087 -0.89499,-2.63824 -0.87661,-7.70297 0.0183,-5.03469 0.0685,-5.45355 1.13378,-9.4537 1.37039,-5.14586 3.24695,-10.27377 7.37048,-20.14064 4.5029,-10.77463 6.09486,-15.07772 7.28179,-19.6826 1.3826,-5.36402 1.60306,-8.33659 0.95334,-12.85569 -1.6825,-11.70256 -6.31078,-24.3188 -14.40466,-39.26566 l -1.88096,-3.47354 1.0031,-0.73255 c 0.5517,-0.4029 2.00817,-1.46329 3.2366,-2.35642 3.56992,-2.5955 4.4179,-4.74253 2.59361,-6.56681 -0.7622,-0.76221 -1.15414,-0.90583 -2.47204,-0.90583 -1.70937,0 -4.73928,1.01369 -7.01345,2.34645 -0.77683,0.45526 -1.45952,0.77593 -1.51706,0.71262 -0.38702,-0.4259 -2.423461,-4.85653 -2.948441,-6.41494 -0.78646,-2.33457 -0.84407,-5.93897 -0.13529,-8.46502 0.93735,-3.3407 3.613571,-5.51925 6.780081,-5.51925 3.99235,0 7.16421,3.4776 8.37228,9.1793 0.24683,1.16491 0.45197,2.60609 0.45588,3.20263 0.0118,1.81516 0.60267,3.36735 1.69884,4.46351 1.3812,1.38122 4.97925,3.33429 8.14362,4.42047 1.9681,0.67556 2.55645,1.00984 2.55658,1.45255 2.8e-4,1.0605 -0.96785,4.32444 -1.72707,5.82271 -0.94516,1.86519 -0.94181,2.29534 0.0229,2.92739 0.70314,0.46073 0.84252,0.4632 1.50863,0.0267 0.83406,-0.54648 2.03408,-3.33552 2.8238,-6.56288 0.44156,-1.8046 0.69309,-2.27339 1.49639,-2.78899 2.92472,-1.87728 3.19736,-5.34942 0.56548,-7.20147 -1.14315,-0.80444 -1.22905,-0.9762 -1.43488,-2.86992 -0.31475,-2.89591 -1.48012,-7.26352 -2.59277,-9.71743 -2.39215,-5.27582 -5.81757,-8.46326 -10.57869,-9.84381 -2.21543,-0.64238 -11.42367,-0.56387 -13.94498,0.1189 -6.954641,1.88331 -12.051501,6.87569 -14.205781,13.91453 -1.54861,5.05981 -1.51185,9.74921 0.13198,16.83873 1.33209,5.74511 1.39282,5.31877 -1.03035,7.23087 -3.79687,2.99607 -9.14177,7.91538 -11.13847,10.2516 -3.134,3.66689 -3.85207,7.06581 -2.59163,12.26682 0.80233,3.31082 1.73438,5.51413 4.98142,11.77576 4.01656,7.74566 3.97525,6.82834 0.58117,12.90871 -11.43606,20.48711 -17.55165,37.24289 -19.66062,53.86696 -0.71798,5.65967 -0.5027,15.84743 0.44868,21.23263 0.83413,4.7214 1.96243,8.6687 3.31565,11.5995 0.5848,1.2666 0.95607,2.3944 0.82505,2.5062 -0.13102,0.1118 -1.45725,1.208 -2.94716,2.4362 -3.57723,2.9486 -3.94916,4.3541 -1.38015,5.2154 1.77557,0.5953 11.50129,1.9744 15.30821,2.1707 l 3.47186,0.1791 1.06704,-1.0671 z m -11.26463,-2.7859 c -2.6418,-0.3542 -4.99351,-0.7478 -5.22605,-0.8747 -0.30013,-0.1637 0.3515,-0.8826 2.24669,-2.4786 1.46822,-1.2363 2.66947,-2.363 2.66947,-2.5038 0,-0.1408 -0.41968,-0.9311 -0.93261,-1.7562 -3.56514,-5.7351 -5.83414,-19.1 -5.02692,-29.60924 1.34938,-17.56704 7.70786,-35.43209 21.03718,-59.10713 2.50427,-4.44794 2.38497,-5.16408 -2.40101,-14.41189 -3.46006,-6.68582 -4.62202,-10.05397 -4.61275,-13.37091 0.009,-3.23665 0.57456,-4.3964 3.76328,-7.71785 8.19444,-8.53552 24.272101,-20.10469 29.310521,-21.09127 2.09621,-0.41046 0.87968,0.83927 -4.26097,4.37728 -6.740941,4.6394 -11.199271,8.83882 -13.780421,12.98009 -2.45277,3.93533 -3.16347,7.0195 -2.16702,9.40432 0.62544,1.49691 1.08247,1.9803 3.92095,4.14726 2.55584,1.95115 3.70642,2.27011 4.28554,1.188 0.52864,-0.9878 0.12957,-1.64179 -1.89837,-3.11092 l -1.88214,-1.36352 0.2238,-1.24317 c 0.12312,-0.68375 0.30992,-2.85306 0.41516,-4.82071 0.22206,-4.15156 0.28795,-4.27193 4.58042,-8.36753 3.310571,-3.15868 4.269281,-3.8219 4.727171,-3.27016 0.94788,1.14214 8.21402,16.10069 9.87453,20.32839 3.5467,9.02999 5.55754,17.01192 5.8616,23.26756 0.29867,6.14451 -1.11027,11.10713 -7.55514,26.61117 -7.82905,18.83384 -9.4798,24.47522 -9.52492,32.55159 -0.0279,5.01258 0.27735,6.70177 1.8206,10.07134 1.98613,4.3367 5.28164,6.1201 12.09928,6.5476 7.35195,0.4611 17.87399,-1.7638 25.06337,-5.2997 1.54024,-0.7575 2.85702,-1.3207 2.92616,-1.2516 0.24382,0.2438 -1.27334,4.7225 -3.69409,10.9049 -1.34656,3.4391 -2.4483,6.3215 -2.4483,6.4053 0,0.084 0.73211,0.3916 1.62691,0.6839 0.8948,0.2923 2.52785,0.9356 3.62898,1.4295 l 2.00209,0.8981 -1.07243,0.6548 c -0.58981,0.3601 -2.45406,1.3314 -4.14274,2.1585 l -3.07031,1.5038 -1.11318,-0.8334 c -0.61225,-0.4584 -2.0893,-1.6947 -3.28237,-2.7474 -2.88689,-2.547 -3.84944,-3.0014 -6.71851,-3.1716 -5.69039,-0.3376 -34.081211,2.7867 -41.709241,4.5899 -4.48688,1.0606 -5.09482,1.661 -5.4858,5.4174 -0.3424,3.2894 -0.41789,3.3665 -3.05916,3.1262 -1.21879,-0.1108 -4.37745,-0.4914 -7.01925,-0.8456 z M 141.75958,642.26789 c -0.47255,-0.18134 -1.88257,-2.53311 -1.65511,-2.76057 0.15878,-0.15878 6.18438,2.25804 6.55581,2.62948 0.35932,0.35932 -4.00196,0.47597 -4.9007,0.13109 z M 91.819479,595.51296 c -0.72408,-3.08764 -0.87391,-4.42857 -0.8829,-7.90216 -0.01,-3.79141 0.073,-4.43924 0.88355,-6.91229 3.01509,-9.19883 10.964131,-13.67422 21.882401,-12.32001 3.79468,0.47066 6.2326,1.60172 8.22221,3.81467 2.47365,2.75128 4.63289,7.81881 5.27312,12.37555 l 0.20394,1.45129 -1.4236,-0.42843 c -2.19627,-0.66098 -4.9562,-0.89436 -5.72311,-0.48393 -0.69099,0.36981 -0.86728,1.39327 -0.37422,2.17244 0.1718,0.27151 1.1103,0.53262 2.4157,0.6721 2.49163,0.26623 6.26344,1.64806 7.52651,2.75739 0.72151,0.63369 0.83134,0.90183 0.60286,1.47207 -0.21172,0.52843 -0.52563,0.69476 -1.29648,0.68697 -2.23346,-0.0226 -10.00221,-3.61406 -10.90863,-5.04303 -0.2371,-0.37379 -0.52368,-1.58605 -0.63685,-2.6939 -0.67801,-6.63723 -3.53831,-11.89215 -7.53813,-13.84908 -3.0437,-1.48914 -7.38378,-1.08725 -10.04287,0.92999 -2.998161,2.27447 -4.410731,5.66758 -4.410731,10.59493 0,3.64139 0.4666,5.42615 2.5241,9.65479 0.77953,1.60213 1.35353,2.97676 1.27556,3.05474 -0.078,0.078 -1.52669,1.10327 -3.21936,2.27842 -1.96894,1.36696 -3.15027,2.01047 -3.2793,1.78639 -0.11094,-0.19264 -0.59412,-2.02365 -1.07377,-4.06891 z M 104.39949,584.1778 c 2.72333,-1.12814 4.12896,-5.48792 2.34462,-7.27224 -1.12626,-1.12627 -2.91645,-1.05027 -4.32161,0.18348 -1.99522,1.75181 -2.615711,5.13075 -1.20181,6.54463 0.70199,0.702 2.18493,0.95584 3.1788,0.54413 z"
       id="path12932-5-2"
       style="fill:#000000" />
    <path
       d="m 257.63432,749.4446 c 1.22358,-0.9749 1.76803,-2.2111 1.98172,-4.4994 0.10279,-1.1007 0.34045,-2.2085 0.52812,-2.4616 0.90735,-1.2237 19.32018,-3.8574 36.62081,-5.2382 7.42842,-0.5928 8.55575,-0.4725 10.46843,1.1174 5.79454,4.8166 6.35122,5.2035 7.4868,5.2035 1.26549,0 12.28161,-5.2395 12.74063,-6.0597 0.79811,-1.4261 -0.95862,-2.9931 -5.38381,-4.8024 l -2.3662,-0.9675 0.90375,-2.1916 c 8.00895,-19.42191 10.59362,-39.05242 7.52603,-57.16034 -1.29169,-7.625 -3.5511,-15.56235 -6.62907,-23.28821 -0.69068,-1.73367 -1.25561,-3.25358 -1.25539,-3.37759 2.1e-4,-0.124 1.00797,-0.23059 2.23945,-0.23686 2.88603,-0.0147 4.42739,-0.54333 5.04036,-1.72866 0.83224,-1.60935 -0.12174,-3.14701 -2.8013,-4.51536 -1.26318,-0.64505 -8.62346,-3.47463 -9.03817,-3.47463 -0.18812,0 -4.68013,-9.49367 -5.79248,-12.24215 -0.55918,-1.38165 -1.19194,-3.32766 -1.4061,-4.32447 -0.21418,-0.9968 -0.51072,-2.05563 -0.65892,-2.35293 -0.38488,-0.77198 -1.68707,-0.67929 -2.23646,0.1592 -0.39813,0.60758 -0.40301,0.96359 -0.0371,2.70279 0.5767,2.74149 1.75987,5.60899 5.77187,13.98841 7.86825,16.43357 11.23114,25.52196 13.34179,36.05693 1.3931,6.95338 1.60076,9.29806 1.58603,17.90585 -0.0145,8.49568 -0.28838,11.5448 -1.72278,19.18565 -0.65194,3.47272 -0.67916,3.53615 -2.12492,4.9478 -2.66708,2.60419 -9.58126,5.50614 -16.84235,7.06893 -4.36105,0.93862 -12.20394,1.19295 -14.96517,0.4853 -2.5562,-0.6551 -4.41362,-1.7478 -5.23777,-3.08133 -1.79676,-2.90718 -2.64963,-7.87842 -2.16146,-12.59879 0.64895,-6.27552 2.69461,-12.88644 7.77268,-25.11875 8.04839,-19.38749 9.37149,-23.7114 9.31045,-30.42681 -0.0716,-7.87888 -3.49213,-20.00743 -9.03783,-32.04665 -2.09344,-4.54468 -3.42773,-7.09616 -9.88617,-18.90485 -4.45911,-8.15307 -5.05901,-9.68482 -5.22155,-13.33265 -0.16726,-3.75401 0.40783,-5.94533 2.03352,-7.74843 1.43483,-1.59144 3.16879,-2.39651 5.16157,-2.39651 4.15075,0 7.19613,3.51743 8.33241,9.62395 0.26238,1.41002 0.55199,3.21245 0.64355,4.0054 0.24986,2.16344 1.44431,3.56179 4.48799,5.25421 1.42909,0.79464 3.74506,1.83714 5.14655,2.31668 2.28453,0.78166 2.54755,0.95178 2.54178,1.6441 -0.006,0.71138 -1.17916,4.32757 -2.17994,6.71905 -0.38438,0.91848 -0.36474,1.06021 0.22904,1.65401 0.76534,0.76533 1.68346,0.59592 2.33676,-0.43116 0.7018,-1.10334 1.73727,-3.9278 2.23084,-6.08516 0.25224,-1.10242 0.60731,-2.05397 0.78906,-2.11456 0.67206,-0.22401 2.19705,-1.69591 2.63543,-2.54365 0.9684,-1.87269 0.22793,-4.28851 -1.65553,-5.40109 -0.82514,-0.48743 -0.94175,-0.75224 -1.13607,-2.57979 -0.54822,-5.15643 -2.58081,-10.67824 -5.18415,-14.08334 -3.57834,-4.68049 -7.85608,-6.24157 -16.28326,-5.94227 -3.37735,0.11995 -4.63976,0.30096 -6.64115,0.95226 -5.40621,1.75933 -9.29263,5.1339 -11.70196,10.1608 -1.87667,3.91557 -2.45042,6.40358 -2.48922,10.79436 l -0.0319,3.60953 -2.30963,1.50993 c -4.6063,3.01138 -9.44585,9.11763 -12.09344,15.25875 -2.08042,4.82559 -2.863,8.19595 -2.85761,12.30692 0.004,3.23407 0.0922,3.7828 0.9825,6.12636 1.2525,3.29714 2.59852,5.69448 6.09894,10.86262 3.35547,4.95414 4.41312,6.7249 4.77931,8.00174 0.24423,0.85157 2.4e-4,1.43468 -2.36971,5.66329 -3.55011,6.33432 -8.82481,17.01713 -11.02101,22.32074 -3.80555,9.19005 -7.06575,20.40963 -8.39234,28.88127 -0.67896,4.33578 -0.93662,15.05956 -0.46918,19.52706 0.66177,6.3248 2.24787,12.6697 4.14703,16.5895 0.44641,0.9213 0.77783,1.702 0.73649,1.7348 -6.61429,5.2429 -7.48497,6.7608 -4.45997,7.7749 1.76899,0.5931 11.46869,1.9688 15.19598,2.1552 3.17607,0.1589 3.45363,0.1255 4.25342,-0.5118 z m -10.89457,-3.1417 c -2.63329,-0.3531 -4.97743,-0.7454 -5.2092,-0.8719 -0.29918,-0.1632 0.35035,-0.8798 2.23945,-2.4706 1.46347,-1.2323 2.66086,-2.378 2.66086,-2.5458 0,-0.1679 -0.28541,-0.706 -0.63424,-1.1959 -3.8122,-5.3537 -6.31358,-20.19493 -5.2543,-31.17483 1.62503,-16.84399 7.60735,-33.7943 19.49835,-55.24657 2.95792,-5.33632 3.13453,-5.7543 3.00426,-7.1101 -0.18711,-1.94719 -1.1987,-3.85627 -5.24346,-9.89541 -5.8596,-8.74885 -7.47999,-12.97445 -6.74427,-17.58752 1.55648,-9.75941 8.39311,-20.57418 14.98822,-23.70965 3.21061,-1.5264 3.37816,-0.80509 0.75516,3.25092 -2.52422,3.90328 -3.31331,5.53084 -4.01873,8.28899 -1.06194,4.15216 -0.6493,8.70828 1.04193,11.50437 1.08847,1.79955 3.60174,4.28308 6.76287,6.68284 3.16639,2.40375 4.27973,2.7787 4.88617,1.64554 0.51638,-0.96481 0.14855,-1.56564 -1.88386,-3.07724 -1.71637,-1.27655 -1.85398,-1.46564 -1.68587,-2.31668 0.10068,-0.50967 0.26683,-2.84934 0.36922,-5.19926 0.21042,-4.82917 -0.10584,-7.80372 -1.41084,-13.26932 l -0.85948,-3.59962 0.72696,-1.21905 c 0.39982,-0.67048 0.81112,-1.83312 0.91399,-2.58365 0.16773,-1.2237 0.0862,-1.47945 -0.78952,-2.47684 -0.5371,-0.61173 -1.28263,-1.15578 -1.65671,-1.209 -0.66023,-0.0939 -0.67907,-0.20538 -0.64267,-3.80345 0.0471,-4.66072 0.91626,-7.63754 3.24745,-11.12297 3.35948,-5.02281 8.31964,-7.35133 15.71183,-7.37579 6.24339,-0.0207 9.27614,0.98192 11.94307,3.94818 2.3418,2.60465 4.49131,7.72783 5.22878,12.46253 l 0.20403,1.30974 -1.50625,-0.4535 c -0.82841,-0.24943 -2.28533,-0.54174 -3.23755,-0.64958 -2.17456,-0.24625 -3.05647,0.16292 -3.05647,1.41805 0,1.08855 0.70693,1.54446 2.39477,1.54446 2.09947,0 6.659,1.67498 8.1646,2.99933 0.78579,0.69117 0.1319,1.94292 -1.01492,1.94292 -2.0511,0 -9.6428,-3.41225 -10.7646,-4.83837 -0.36736,-0.46705 -0.66739,-1.52045 -0.8028,-2.81872 -0.70604,-6.76891 -3.47657,-11.90202 -7.48643,-13.87037 -1.50754,-0.74003 -2.13008,-0.86392 -4.26609,-0.849 -2.07303,0.0145 -2.79506,0.16135 -4.2196,0.85832 -3.24116,1.58575 -5.20555,4.64469 -5.85818,9.1224 -0.77911,5.34548 0.23034,8.28951 7.146,20.84096 9.43303,17.1203 13.55533,27.04719 15.95813,38.42847 2.24499,10.63387 1.44252,14.49135 -7.44819,35.80379 -6.1342,14.70463 -8.36349,22.24688 -8.70667,29.45679 -0.37141,7.80268 2.25444,14.10561 6.65202,15.96709 7.28065,3.0819 21.74535,1.3884 32.32461,-3.78449 1.52184,-0.74413 2.82811,-1.29184 2.9028,-1.21715 0.22089,0.22087 -2.00461,6.66654 -4.14438,12.00344 -1.09379,2.7281 -1.98874,5.0574 -1.98874,5.1763 0,0.1189 0.72976,0.4545 1.62168,0.7459 0.89192,0.2913 2.52209,0.9337 3.62261,1.4274 l 2.00093,0.8976 -1.38315,0.8006 c -0.76074,0.4404 -2.63116,1.4 -4.15656,2.1325 l -2.77337,1.3319 -1.08776,-0.8094 c -0.59823,-0.4451 -2.06073,-1.6681 -3.24996,-2.7176 -3.47558,-3.0674 -3.53071,-3.0855 -9.26673,-3.044 -9.51074,0.069 -35.15373,3.1799 -41.07772,4.9838 -2.40897,0.7336 -3.10243,1.708 -3.40639,4.7867 -0.33225,3.3653 -0.39815,3.4346 -3.03844,3.1944 -1.21486,-0.1105 -4.36336,-0.4898 -6.99665,-0.8429 z m 72.44698,-103.9364 c -0.27597,-0.1059 -0.77668,-0.7314 -1.11266,-1.39 -0.51322,-1.00596 -0.53614,-1.19747 -0.14342,-1.19747 0.73936,0 6.03177,2.19666 6.03177,2.50354 0,0.3113 -4.00001,0.38159 -4.77569,0.0839 z m -53.1541,-27.14428 c -0.93983,-2.05942 -1.17736,-4.17599 -0.76265,-6.79559 0.32057,-2.02496 1.99958,-6.33226 2.46835,-6.33226 0.1163,0 0.54451,1.63326 0.95157,3.62946 0.57112,2.80073 0.74086,4.6169 0.74339,7.95394 0.002,2.37846 -0.1112,4.60247 -0.25111,4.94225 -0.23516,0.57112 -0.33708,0.52446 -1.34955,-0.61778 -0.60235,-0.67956 -1.41235,-1.93057 -1.8,-2.78002 z m 15.61177,-30.63714 c 2.18568,-0.87536 3.5431,-3.10991 3.31724,-5.46068 -0.18339,-1.9086 -0.97653,-2.66796 -2.78663,-2.66796 -1.0818,0 -1.43597,0.1896 -2.57522,1.37859 -2.50544,2.61484 -2.13521,6.3403 0.67486,6.79042 0.49852,0.0799 1.11491,0.0617 1.36975,-0.0404 z"
       id="path15053-4-9"
       style="fill:#000000" />
    <path
       d="m 425.66552,746.15346 c 1.09025,-1.0205 1.45372,-1.9737 1.79795,-4.7152 0.15029,-1.1969 0.39774,-2.3007 0.54989,-2.4528 1.30857,-1.3086 32.26939,-5.2517 42.40428,-5.4005 3.94208,-0.058 4.0149,-0.031 6.84436,2.5038 1.08081,0.9684 2.7248,2.3247 3.6533,3.014 2.38318,1.7693 3.11961,1.6312 10.05131,-1.8847 5.56267,-2.8216 5.56485,-2.8231 5.56485,-3.8906 0,-0.9191 -0.20156,-1.2026 -1.4465,-2.0347 -0.79557,-0.5317 -2.42375,-1.3712 -3.61818,-1.8656 -1.19443,-0.4944 -2.29079,-0.9996 -2.43638,-1.1228 -0.14558,-0.1231 0.51306,-2.2568 1.46365,-4.7414 5.16218,-13.49303 7.45291,-24.28783 7.96905,-37.55319 0.50774,-13.0497 -2.17375,-27.18393 -7.92026,-41.74799 -0.77211,-1.95686 -1.40356,-3.62871 -1.40322,-3.71524 3.2e-4,-0.0865 1.18756,-0.17035 2.63825,-0.1863 3.019,-0.0332 4.54393,-0.67642 5.0561,-2.13276 0.72951,-2.07437 -1.52017,-3.84859 -7.80244,-6.15341 l -4.65565,-1.70805 -2.04754,-4.26981 c -3.09119,-6.44618 -4.47738,-9.8117 -5.01979,-12.18749 -0.61552,-2.6961 -0.8106,-3.06945 -1.67041,-3.19699 -2.27466,-0.3374 -2.11956,2.69926 0.45745,8.95636 0.58013,1.40859 2.67207,5.93918 4.64874,10.06798 8.44551,17.64064 11.8034,27.44185 13.92083,40.63294 0.6792,4.23126 0.94012,15.87461 0.47404,21.15356 -0.39057,4.42367 -1.67477,12.62879 -2.25061,14.37978 -1.03037,3.13307 -9.26158,7.18719 -18.70401,9.21229 -2.01312,0.43176 -4.84241,0.73576 -7.89406,0.8482 -7.81401,0.28793 -11.1315,-0.81578 -13.00232,-4.3258 -1.32482,-2.48561 -1.89526,-5.23838 -1.90069,-9.17218 -0.009,-6.85499 2.2226,-14.5373 8.90512,-30.64946 8.88173,-21.41466 9.76633,-25.54725 7.75169,-36.21345 -2.40222,-12.71815 -6.66299,-23.07016 -17.75695,-43.14245 -2.02254,-3.65938 -4.19624,-7.89319 -4.83045,-9.40847 -1.09087,-2.60635 -1.15311,-2.94185 -1.15311,-6.21592 0,-2.94791 0.10743,-3.69404 0.72477,-5.03399 1.39262,-3.02267 3.59588,-4.54266 6.60278,-4.55515 4.68895,-0.0195 7.99523,4.54436 8.87398,12.24921 0.41447,3.63403 1.16815,4.80832 4.29654,6.69434 2.02986,1.22375 4.2276,2.17322 8.18791,3.53735 0.51139,0.17614 -0.25548,3.37363 -1.47612,6.15475 -0.97343,2.21786 -0.96477,2.93005 0.0422,3.46894 1.43795,0.76957 2.89997,-1.50972 4.10853,-6.4052 0.58354,-2.36378 0.75674,-2.69414 1.67047,-3.18621 2.21201,-1.19125 3.07928,-4.63228 1.60816,-6.38061 -0.41583,-0.49419 -1.09625,-1.08059 -1.51205,-1.30312 -0.66574,-0.35629 -0.80029,-0.75527 -1.12699,-3.34192 -1.21556,-9.62424 -5.94362,-16.76643 -12.45276,-18.8111 -1.9544,-0.61393 -2.93135,-0.7047 -7.59166,-0.70543 -4.17057,-6.6e-4 -5.79905,0.12324 -7.39367,0.56246 -7.10553,1.95714 -12.24532,7.00415 -14.44276,14.18203 -1.64196,5.36343 -1.4954,9.85239 0.75126,23.00961 0.76825,4.49913 1.56196,9.73762 1.7638,11.6411 0.39208,3.69748 0.2071,11.05988 -0.29037,11.55735 -0.18573,0.18574 -0.99818,-0.69055 -2.17341,-2.34418 -3.51461,-4.94528 -5.12722,-7.93893 -6.11352,-11.34909 -1.83805,-6.35514 -3.22037,-8.404 -5.66998,-8.404 -1.73046,0 -3.4416,1.68065 -4.15417,4.08016 -1.63174,5.49464 -1.33396,17.72359 0.61477,25.24716 0.25609,0.98873 1.50515,4.38668 2.77568,7.55099 2.36742,5.89618 3.02724,7.99859 3.02724,9.64586 0,0.58554 -0.96787,2.69674 -2.56846,5.60257 -9.81204,17.81343 -15.08672,33.55527 -17.11225,51.07006 -1.37854,11.92036 0.46332,26.52931 4.29063,34.03141 0.35954,0.7048 0.53606,1.383 0.39226,1.5071 -0.14381,0.1242 -1.50173,1.2564 -3.01761,2.5161 -3.62392,3.0116 -3.99189,4.4019 -1.39543,5.2724 1.8589,0.6232 11.74213,2.0125 15.63537,2.1979 3.56527,0.1698 3.63088,0.1604 4.4866,-0.6405 z m -11.40834,-3.0741 c -2.50913,-0.343 -4.8266,-0.7293 -5.14994,-0.8584 -0.49461,-0.1976 -0.15765,-0.5971 2.12371,-2.5182 1.49139,-1.2559 2.71161,-2.4078 2.71161,-2.5597 0,-0.152 -0.49036,-1.1006 -1.08969,-2.108 -3.24919,-5.4615 -5.57184,-18.20292 -5.06554,-27.78814 0.96762,-18.31905 6.70473,-36.50902 17.91146,-56.78971 2.01873,-3.65328 2.08628,-3.84748 2.08675,-5.99941 6.3e-4,-2.71872 -0.41441,-4.15829 -3.16837,-10.9903 -2.4995,-6.20077 -2.96322,-7.834 -3.60015,-12.67975 -0.54672,-4.15948 -0.61629,-12.67015 -0.12527,-15.32628 1.095,-5.92342 2.43144,-5.53924 4.39343,1.26295 0.54903,1.90348 1.40231,4.26142 1.89619,5.23987 2.48894,4.93097 10.32117,15.22003 12.04849,15.82789 1.0552,0.37133 1.88367,-0.0689 2.03321,-1.08048 0.0715,-0.48339 -0.25416,-1.08214 -1.00915,-1.85561 l -1.11466,-1.14195 0.49323,-2.83162 c 0.37872,-2.1742 0.45684,-4.21949 0.33648,-8.80948 -0.14046,-5.35667 -0.32591,-6.95869 -1.78459,-15.4166 -1.92178,-11.14309 -2.24361,-15.40574 -1.46141,-19.35649 1.20809,-6.10187 4.66574,-10.92279 9.46698,-13.19958 1.38523,-0.65689 3.15934,-1.3461 3.94245,-1.53157 4.58451,-1.08579 11.10988,-0.6727 14.36139,0.90915 3.74663,1.82273 6.60664,6.07721 8.13469,12.10096 0.42795,1.68703 0.77809,3.38926 0.77809,3.78274 0,0.70361 -0.0239,0.70823 -1.44748,0.2798 -0.79612,-0.23959 -2.3266,-0.52569 -3.40108,-0.63578 -1.59688,-0.1636 -2.05068,-0.10306 -2.48532,0.33158 -1.32242,1.32243 -0.24896,2.53499 2.4572,2.77561 2.34721,0.20871 6.02421,1.55748 7.41792,2.72101 1.03328,0.86261 1.04214,0.89151 0.51847,1.69071 l -0.53276,0.81311 -2.28601,-0.62168 c -2.60964,-0.70969 -8.36852,-3.44765 -9.21201,-4.37969 -0.37494,-0.41431 -0.70712,-1.65238 -0.98815,-3.68298 -0.99762,-7.20815 -3.65473,-11.78922 -7.95839,-13.72088 -1.85642,-0.83323 -5.21897,-0.88194 -7.46331,-0.10809 -5.73145,1.97619 -8.53267,10.15964 -6.03638,17.63464 0.7808,2.33806 2.63308,6.03627 6.73348,13.44389 8.33883,15.06465 12.70157,25.14138 15.24756,35.21771 3.36844,13.33137 2.7297,17.41167 -6.02083,38.46163 -4.81138,11.57408 -6.68309,16.67959 -7.98246,21.77401 -1.70654,6.69079 -2.08877,11.43485 -1.28031,15.89067 1.15987,6.39269 3.52728,9.45482 8.49147,10.98329 7.24312,2.23015 21.19092,0.18078 30.92266,-4.54351 1.59272,-0.77318 2.96715,-1.40579 3.0543,-1.40579 0.25184,0 -2.42423,7.61457 -4.52667,12.88035 -1.05758,2.6488 -1.88072,4.8582 -1.8292,4.9097 0.0515,0.051 1.22573,0.5177 2.60937,1.0359 3.94884,1.4789 4.56077,1.7466 4.56077,1.9953 0,0.1281 -1.85349,1.1605 -4.11886,2.2944 l -4.11886,2.0616 -1.30841,-1.0155 c -0.71963,-0.5585 -2.1579,-1.7768 -3.19616,-2.7072 -2.74831,-2.4628 -3.91394,-2.9797 -7.07905,-3.1392 -5.99268,-0.302 -34.28095,2.832 -42.08881,4.6629 -3.03758,0.7123 -4.31723,1.3079 -4.81724,2.2422 -0.19817,0.3703 -0.4922,1.7356 -0.6534,3.034 -0.44593,3.5919 -0.48576,3.6319 -3.36042,3.3793 -1.32493,-0.1164 -4.46189,-0.4923 -6.97102,-0.8353 z M 488.25997,637.1987 c -0.97913,-0.26228 -2.19579,-2.63002 -1.35144,-2.63002 0.53406,0 5.27639,1.90309 5.87906,2.35926 0.53817,0.40734 0.37851,0.45292 -1.60474,0.45806 -1.21131,0.003 -2.5266,-0.0811 -2.92288,-0.1873 z m -37.94026,-59.08514 c 1.62877,-0.70889 2.73715,-2.4692 2.89062,-4.59084 0.11889,-1.64369 0.0484,-1.91937 -0.67576,-2.64355 -1.02669,-1.02669 -2.56166,-1.06417 -4.01546,-0.098 -1.2081,0.80285 -2.48486,3.06664 -2.48486,4.40584 0,1.26585 0.83687,2.72422 1.76598,3.07747 1.01714,0.38671 1.32691,0.36816 2.51948,-0.15088 z"
       id="path15138-9-4"
       style="fill:#000000" />
  </g>
</svg>
