<?xml version="1.0" encoding="UTF-8" standalone="no"?>
<!-- Created with Inkscape (http://www.inkscape.org/) -->

<svg
   xmlns:dc="http://purl.org/dc/elements/1.1/"
   xmlns:cc="http://creativecommons.org/ns#"
   xmlns:rdf="http://www.w3.org/1999/02/22-rdf-syntax-ns#"
   xmlns:svg="http://www.w3.org/2000/svg"
   xmlns="http://www.w3.org/2000/svg"
   xmlns:sodipodi="http://sodipodi.sourceforge.net/DTD/sodipodi-0.dtd"
   xmlns:inkscape="http://www.inkscape.org/namespaces/inkscape"
   width="742"
   height="200"
   id="svg6369"
   version="1.1"
   inkscape:version="0.48.2 r9819"
   inkscape:export-filename="/home/darkwingduck/Devel/SCALE/scale_10x_banner_penguin.png"
   inkscape:export-xdpi="90"
   inkscape:export-ydpi="90"
   sodipodi:docname="scale_10x_banner_penguin.svg">
  <title
     id="title5519">SCaLE 10x Banner With Penguin</title>
  <defs
     id="defs6371" />
  <sodipodi:namedview
     id="base"
     pagecolor="#ff00ff"
     bordercolor="#666666"
     borderopacity="1.0"
     inkscape:pageopacity="0"
     inkscape:pageshadow="2"
     inkscape:zoom="1.5128013"
     inkscape:cx="420.82536"
     inkscape:cy="110.02081"
     inkscape:document-units="px"
     inkscape:current-layer="layer6"
     showgrid="false"
     inkscape:window-width="1920"
     inkscape:window-height="1145"
     inkscape:window-x="-2"
     inkscape:window-y="-3"
     inkscape:window-maximized="1" />
  <metadata
     id="metadata6374">
    <rdf:RDF>
      <cc:Work
         rdf:about="">
        <dc:format>image/svg+xml</dc:format>
        <dc:type
           rdf:resource="http://purl.org/dc/dcmitype/StillImage" />
        <dc:title>SCaLE 10x Banner With Penguin</dc:title>
        <cc:license
           rdf:resource="http://creativecommons.org/licenses/by-sa/3.0/" />
        <dc:creator>
          <cc:Agent>
            <dc:title>David Wonderly</dc:title>
          </cc:Agent>
        </dc:creator>
      </cc:Work>
      <cc:License
         rdf:about="http://creativecommons.org/licenses/by-sa/3.0/">
        <cc:permits
           rdf:resource="http://creativecommons.org/ns#Reproduction" />
        <cc:permits
           rdf:resource="http://creativecommons.org/ns#Distribution" />
        <cc:requires
           rdf:resource="http://creativecommons.org/ns#Notice" />
        <cc:requires
           rdf:resource="http://creativecommons.org/ns#Attribution" />
        <cc:permits
           rdf:resource="http://creativecommons.org/ns#DerivativeWorks" />
        <cc:requires
           rdf:resource="http://creativecommons.org/ns#ShareAlike" />
      </cc:License>
    </rdf:RDF>
  </metadata>
  <g
     inkscape:label="background"
     inkscape:groupmode="layer"
     id="layer1"
     transform="translate(0,-852.36218)" />
  <g
     inkscape:groupmode="layer"
     id="layer2"
     inkscape:label="Ovel"
     style="display:inline">
    <path
       style="fill:#8badff;fill-opacity:1;fill-rule:nonzero;display:inline"
       d="m 125.92896,15.811154 c 1.08766,1.57763 1.71415,3.36526 1.9375,5.375 0.23995,1.80004 -0.17005,3.23005 -1.25,4.25 -0.84005,0.78005 -1.8288,1.1563 -2.96875,1.15625 -0.42005,5e-5 -0.7963,-0.0337 -1.15625,-0.0937 -0.78005,-0.23995 -1.4263,-0.6162 -1.90625,-1.15625 -0.72004,-0.77995 -1.13004,-1.76871 -1.25,-2.96875 -4e-5,-0.41994 -0.0675,-0.7937 -0.1875,-1.09375 -0.30004,-0.83994 -0.91254,-1.4187 -1.8125,-1.71875 l -0.34375,-0.15625 -11.0625,0 -11.156251,0 -0.1875,0.15625 c -0.54002,0.36005 -0.70877,0.83506 -0.46875,1.375 0.11998,0.12006 5.47124,6.9738 16.031251,20.59375 10.61996,13.62002 16.00745,20.54127 16.1875,20.78125 0.83995,1.26001 1.3512,2.65626 1.53125,4.15625 0.29995,2.40001 -0.2138,4.61626 -1.59375,6.65625 -1.38005,1.98 -3.2538,3.275 -5.59375,3.875 -0.66004,0.18 -1.47754,0.28375 -2.4375,0.34375 l -10.6875,0 c -7.50001,0 -11.486271,-0.0337 -11.906251,-0.0937 -2.76002,-0.36 -5.046265,-1.48625 -6.90625,-3.40625 -1.860011,-1.91999 -2.95001,-4.23749 -3.25,-6.9375 -0.180009,-1.67999 0.19624,-3.01124 1.15625,-4.03125 0.539989,-0.59998 1.219988,-1.00748 2,-1.1875 0.299987,-0.11998 0.642487,-0.18748 1.0625,-0.1875 1.139985,2e-5 2.12873,0.40752 2.96875,1.1875 0.83998,0.78001 1.31498,1.80251 1.375,3.0625 0.06,0.48001 0.0962,0.82251 0.15625,1.0625 0.35998,0.84001 0.97248,1.41876 1.8125,1.71875 l 0.34375,0.1875 11.093751,0 10.96875,0 0.28125,-0.0937 c 0.65996,-0.29999 0.83121,-0.74374 0.53125,-1.34375 -4e-5,-0.11999 -5.35129,-7.00498 -16.03125,-20.625 -10.620014,-13.67996 -16.007512,-20.63495 -16.187501,-20.875 -1.02001,-1.61995 -1.53126,-3.39246 -1.53125,-5.3125 -8e-6,-1.64503 0.37945,-3.14481 1.125,-4.5 -47.661433,2.5794 -85.2812501,41.79767 -85.2812501,90.124996 l 0,1.40625 c 0,50.00636 40.2748841,90.28125 90.2812501,90.28125 l 558.468751,0 c 50.00636,0 90.25,-40.27489 90.25,-90.28125 l 0,-1.40625 c 0,-50.006356 -40.24364,-90.281246 -90.25,-90.281246 l -154,0 c 0.38613,0.82347 0.62272,1.72754 0.71875,2.6875 0.06,0.36006 0.0937,8.9863 0.0937,25.90625 l 0,25.46875 -0.1875,0.5625 c -0.30005,1.44001 -0.91255,2.67 -1.8125,3.75 -1.50005,1.8 -3.41005,2.8225 -5.75,3.0625 -0.30004,0.06 -4.90379,0.0937 -13.84375,0.0937 l -13.4375,0 -0.53125,-0.15625 c -2.04001,-0.48 -3.71126,-1.5 -5.03125,-3 -0.78001,-1.02 -1.32501,-2.11249 -1.625,-3.3125 -0.18001,-0.59999 -0.28126,-1.79374 -0.28125,-3.59375 l 0,-23.125 0,-23.21875 c -10e-6,-1.85993 0.10124,-3.08495 0.28125,-3.625 0.12881,-0.53364 0.31778,-1.02279 0.53125,-1.5 l -29.3125,0 0,23.90625 0,29 4.25,0 4.125,0 0,-8.90625 c -4e-5,-6.11998 0.10121,-9.45997 0.28125,-10 0.11996,-0.23997 0.22371,-0.47872 0.34375,-0.71875 0.35996,-0.59997 0.87121,-1.11122 1.53125,-1.53125 0.47995,-0.23997 1.0587,-0.41122 1.71875,-0.53125 0.95995,-0.11997 1.8812,0.085 2.78125,0.625 0.59995,0.42003 1.0437,0.89753 1.34375,1.4375 0.29995,0.48003 0.50245,1.02503 0.5625,1.625 0.06,0.24003 0.0937,4.12752 0.0937,11.6875 -5e-5,6.42001 -0.0338,9.99875 -0.0937,10.71875 -5e-5,0.72 -0.13505,1.3325 -0.375,1.8125 -0.42005,0.9 -1.0688,1.54875 -1.96875,1.96875 -0.30005,0.18 -0.57255,0.28375 -0.8125,0.34375 -0.24005,0.06 -6.24004,0.0937 -18,0.0937 l -17.65625,0 -0.4375,-0.15625 c -0.96001,-0.24 -1.74376,-0.74875 -2.34375,-1.46875 -0.54001,-0.78 -0.81251,-1.63375 -0.8125,-2.59375 -10e-6,-1.01999 0.27249,-1.90499 0.8125,-2.625 0.59999,-0.77999 1.38374,-1.29374 2.34375,-1.59375 l 0.375,-0.0937 6.65625,-0.0937 6.75,0 0,-24.65625 0,-24.65625 -6.75,0 -6.65625,0 -0.375,-0.1875 c -1.32001,-0.35994 -2.24126,-1.1437 -2.78125,-2.34375 -0.1593,-0.35398 -0.27844,-0.70851 -0.34375,-1.0625 l -56.75,0 c -0.12377,0.73127 -0.41129,1.43256 -0.90625,2.0625 -0.66005,0.78006 -1.5113,1.25756 -2.53125,1.4375 -0.24005,0.0601 -5.35254,0.0939 -15.3125,0.0937 l -15.03125,0 0,10.15625 0,10.15625 6.75,0 c 3.71997,4e-5 5.83247,0.0339 6.3125,0.0937 0.53997,4e-5 1.05122,0.13504 1.53125,0.375 0.83997,0.42004 1.48622,1.06879 1.90625,1.96875 0.29997,0.54003 0.43746,1.18628 0.4375,1.90625 -4e-5,0.66003 -0.13753,1.27503 -0.4375,1.875 -0.42003,0.84003 -1.06628,1.52003 -1.90625,2 -0.48003,0.18003 -0.99128,0.28378 -1.53125,0.34375 -0.48003,3e-5 -2.59253,0.0338 -6.3125,0.0937 l -6.75,0 0,10.15625 0,10.1875 15.03125,0 c 9.95996,1e-5 15.07245,0.0338 15.3125,0.0937 1.01995,0.18001 1.8712,0.69126 2.53125,1.53125 0.65995,0.78001 0.9687,1.66751 0.96875,2.6875 -5e-5,1.02 -0.3088,1.94125 -0.96875,2.78125 -0.66005,0.78 -1.5113,1.2575 -2.53125,1.4375 -0.24005,0.06 -6.78504,0.0937 -19.625,0.0937 l -19.25,0 0,-33.28125 0,-28.25 -45.5,0 c 0.0456,2.20925 0.0625,9.92405 0.0625,25.71875 l 0,27.1875 15.03125,0 c 9.95996,1e-5 15.07245,0.0338 15.3125,0.0937 1.01995,0.18001 1.83995,0.69126 2.5,1.53125 0.65995,0.78001 0.99995,1.66751 1,2.6875 -5e-5,1.02 -0.34005,1.94125 -1,2.78125 -0.66005,0.78 -1.48005,1.2575 -2.5,1.4375 -0.24005,0.06 -6.78504,0.0937 -19.625,0.0937 l -19.25,0 0,-31.3125 0,-28.625 c 0,-0.66352 0.0144,-1.09442 0.0312,-1.59375 l -15.78125,0 c 1.76295,1.96574 2.76583,4.29923 3.0625,6.96875 -5e-5,0.36004 0.1687,4.18003 0.46875,11.5 0.23995,7.44002 0.4112,12.82501 0.53125,16.125 0.11995,3.48001 0.15375,5.3225 0.0937,5.5625 -0.12005,1.02 -0.5638,1.905 -1.34375,2.625 -1.20005,1.14 -2.5963,1.48 -4.15625,1 -1.56004,-0.48 -2.54879,-1.53625 -2.96875,-3.15625 -0.06,-0.24 -0.0939,-0.41125 -0.0937,-0.53125 -4e-5,-0.18 -0.0339,-0.28125 -0.0937,-0.28125 -4e-5,0 -1.02254,0.6125 -3.0625,1.8125 -2.40004,1.38 -3.79879,2.13 -4.21875,2.25 -0.24004,0.06 -2.79628,0.0625 -7.65625,0.0625 l -7,0 c -0.66002,-0.06 -1.37627,-0.16375 -2.15625,-0.34375 -2.34002,-0.6 -4.35126,-1.76 -6.03125,-3.5 -1.98001,-2.03999 -3.17126,-4.52624 -3.53125,-7.40625 -0.06,-0.53999 -0.0939,-1.83749 -0.0937,-3.9375 -1e-5,-2.09998 0.0337,-3.42873 0.0937,-3.96875 0.35999,-2.81998 1.55124,-5.24123 3.53125,-7.28125 1.91998,-2.03997 4.30748,-3.30122 7.1875,-3.78125 l 0.71875,-0.0937 9.4375,0 9.46875,0 0.71875,0.0937 c 0.47996,0.12003 0.85621,0.22378 1.15625,0.34375 0.35996,0.06 0.56246,0.0939 0.5625,0.0937 0.06,-0.06 0.0262,-1.11622 -0.0937,-3.15625 -0.06,-2.03997 -0.0939,-3.19997 -0.0937,-3.5 -0.30004,-1.55996 -1.22129,-2.61621 -2.78125,-3.15625 l -0.5625,-0.1875 -8.71875,-0.0625 c -4.86003,4e-5 -7.58752,4e-5 -8.1875,0 -0.60002,-0.06 -1.14502,-0.22872 -1.625,-0.46875 -1.08002,-0.53996 -1.83002,-1.42747 -2.25,-2.6875 -0.0525,-0.21004 -0.0873,-0.54352 -0.0937,-0.9375 l -20.125,0 c -0.10091,0.575 -0.28927,1.14192 -0.625,1.6875 -0.48005,0.72005 -1.1263,1.23131 -1.90625,1.53125 -0.42005,0.18006 -0.9313,0.31506 -1.53125,0.375 -0.60005,6e-5 -3.29379,6e-5 -8.09375,0 -5.76003,6e-5 -8.76003,0.003 -9,0.0625 -0.90003,0.30005 -1.65003,0.81131 -2.25,1.53125 -0.18003,0.24006 -1.06753,2.01256 -2.6875,5.3125 -4.20002,8.28004 -6.48377,12.84754 -6.84375,13.6875 -0.30002,0.66004 -0.50502,1.44379 -0.625,2.34375 -0.06,0.42003 -0.0939,0.99878 -0.0937,1.71875 -2e-5,0.72003 0.0337,1.26753 0.0937,1.6875 0.11998,0.90003 0.32498,1.68378 0.625,2.34375 0.35998,0.84003 2.64373,5.44127 6.84375,13.78125 1.61997,3.24001 2.50747,4.97876 2.6875,5.21875 0.59997,0.72001 1.34997,1.23126 2.25,1.53125 0.23997,0.06 3.23997,0.0938 9,0.0937 4.79996,10e-6 7.4937,0.0338 8.09375,0.0937 0.59995,10e-6 1.1112,0.07 1.53125,0.25 0.77995,0.30001 1.4262,0.84501 1.90625,1.625 0.47995,0.72001 0.7187,1.50376 0.71875,2.34375 -5e-5,1.02 -0.34005,1.94125 -1,2.78125 -0.66005,0.78 -1.5113,1.2575 -2.53125,1.4375 -0.30005,0.06 -3.2663,0.0937 -8.90625,0.0937 -5.58003,0 -8.61378,-0.0337 -9.09375,-0.0937 -4.20003,-0.48 -7.40502,-2.49375 -9.625,-6.09375 -0.18002,-0.29999 -1.78377,-3.50249 -4.84375,-9.5625 -3.06001,-6.11998 -4.69501,-9.42622 -4.875,-9.90625 -0.72001,-1.67997 -1.19751,-3.45497 -1.4375,-5.375 -0.06,-0.53997 -0.0939,-1.28997 -0.0937,-2.25 -1e-5,-0.95997 0.0337,-1.70996 0.0937,-2.25 0.23999,-1.91996 0.71749,-3.72621 1.4375,-5.40625 0.17999,-0.47996 1.81499,-3.75246 4.875,-9.8125 3.05998,-6.11992 4.66373,-9.32494 4.84375,-9.625 0.25701,-0.40982 0.53136,-0.78663 0.8125,-1.15625 l -25.59375,0 z m 337.03125,3.59375 0,24.65625 0,24.65625 12.6875,0 12.59375,0 0,-24.65625 0,-24.65625 -12.59375,0 -12.6875,0 z m -116.53125,1.65625 4.5625,0 0,0.65625 -1.90625,0 0,5.15625 -0.75,0 0,-5.15625 -1.90625,0 0,-0.65625 z m 5.3125,0 1.03125,0 1.71875,5.0625 1.71875,-5.0625 1.03125,0 0,5.8125 -0.71875,0 0,-4.875 -1.625,4.875 -0.78125,0 -1.65625,-4.875 0,4.875 -0.71875,0 0,-5.8125 z m 161.5625,7.8125 c 0.41624,-0.0337 0.83124,0.0213 1.28125,0.15625 0.83998,0.24005 1.55373,0.6163 2.09375,1.15625 0.17998,0.18005 2.36248,2.83754 6.5625,7.9375 4.19997,5.04003 6.31497,7.56253 6.375,7.5625 0.06,-0.06 2.20622,-2.61622 6.40625,-7.65625 4.19996,-5.03996 6.34871,-7.6637 6.46875,-7.84375 0.35996,-0.35995 0.80371,-0.6662 1.34375,-0.90625 1.31995,-0.59995 2.61495,-0.4987 3.875,0.28125 1.31995,0.72005 2.0362,1.8438 2.15625,3.34375 0.11995,0.78004 -0.0513,1.53254 -0.53125,2.3125 -0.12005,0.24004 -2.50755,3.20379 -7.1875,8.84375 -4.62004,5.64003 -6.93754,8.47127 -6.9375,8.53125 -4e-5,2e-5 2.38746,2.96377 7.1875,8.84375 4.85995,5.82001 7.38245,8.82251 7.5625,9.0625 0.65995,0.84001 0.93245,1.82876 0.8125,2.96875 -0.0601,1.08 -0.5038,1.99875 -1.34375,2.71875 -0.84005,0.84 -1.86255,1.21625 -3.0625,1.15625 -1.20005,-0.06 -2.22255,-0.5375 -3.0625,-1.4375 -0.18004,-0.24 -2.53129,-3.06875 -7.03125,-8.46875 l -6.65625,-8.09375 -0.34375,0.28125 c -0.18003,0.24002 -2.49753,3.03501 -6.9375,8.375 -4.38002,5.34 -6.66377,8.10125 -6.84375,8.28125 -1.08002,0.96 -2.34126,1.26875 -3.78125,0.96875 -1.38001,-0.3 -2.36876,-1.08625 -2.96875,-2.40625 -0.72001,-1.56 -0.55126,-3.02374 0.46875,-4.34375 0.11999,-0.23999 2.60874,-3.24249 7.46875,-9.0625 l 7.28125,-8.84375 c -3e-5,-0.06 -2.35127,-2.89122 -7.03125,-8.53125 -4.62001,-5.63996 -6.97376,-8.60371 -7.09375,-8.84375 -0.48001,-0.77996 -0.68251,-1.53246 -0.5625,-2.3125 0.06,-0.59995 0.19499,-1.14495 0.375,-1.625 0.65999,-1.31995 1.74999,-2.1037 3.25,-2.34375 0.135,-0.03 0.2675,-0.0513 0.40625,-0.0625 z m -298.71875,9.1875 c -5.88002,2e-5 -8.91377,0.0339 -9.09375,0.0937 -0.18002,2e-5 -0.41877,0.0339 -0.71875,0.0937 -1.32002,0.48002 -2.17377,1.40127 -2.59375,2.78125 l -0.0937,0.46875 0,3.0625 0,3.125 0.0937,0.375 c 0.47998,1.50001 1.43498,2.48876 2.875,2.96875 0.23998,0.06 2.38873,0.0938 6.46875,0.0937 l 6.21875,0 4.59375,-2.625 4.59375,-2.6875 c -4e-5,1e-5 -0.0339,-0.71624 -0.0937,-2.15625 -0.06,-1.43998 -0.12754,-2.32498 -0.1875,-2.625 -0.24004,-0.83998 -0.68379,-1.52248 -1.34375,-2.0625 -0.42004,-0.29998 -0.86379,-0.53873 -1.34375,-0.71875 l -0.5625,-0.1875 -8.8125,0 z"
       id="rect4126"
       inkscape:connector-curvature="0" />
  </g>
  <g
     inkscape:groupmode="layer"
     id="layer3"
     inkscape:label="Date"
     transform="translate(0,-58)">
    <text
       xml:space="preserve"
       style="font-size:27.1096859px;font-style:normal;font-variant:normal;font-weight:500;font-stretch:normal;line-height:125%;letter-spacing:0px;word-spacing:0px;fill:#000000;fill-opacity:1;stroke:none;font-family:OCRA;-inkscape-font-specification:OCRA Medium"
       x="287.02798"
       y="183.14227"
       id="text3853"
       sodipodi:linespacing="125%"><tspan
         sodipodi:role="line"
         id="tspan3855"
         x="287.02798"
         y="183.14227">January 20-22</tspan></text>
  </g>
  <g
     inkscape:groupmode="layer"
     id="layer4"
     inkscape:label="Penguin"
     transform="translate(0,-58)">
    <g
       id="g15239">
      <path
         inkscape:connector-curvature="0"
         id="path3477"
         d="m 599.97674,251.87139 c 2.0042,-0.47232 2.9555,-1.38342 4.6162,-4.42115 0.52451,-0.95944 1.78763,-2.11951 2.80694,-2.57795 2.90494,-1.3065 50.64106,-4.86762 53.98319,-4.02716 0.7983,0.20076 2.53151,1.78397 3.99181,3.64634 3.08241,3.93112 4.277,4.5671 7.6096,4.05126 5.88404,-0.91077 6.48445,-2.71621 5.98719,-18.00356 -0.88768,-27.29022 -5.04649,-44.5729 -16.02443,-66.59254 -2.64742,-5.31021 -4.90664,-9.84478 -5.02048,-10.0768 -0.11384,-0.23203 0.73014,-0.42187 1.87551,-0.42187 3.01208,0 12.15599,-2.23027 13.30892,-3.24615 2.35431,-2.07445 0.082,-5.95041 -3.867,-6.59614 -1.19236,-0.19497 -3.19011,-0.71922 -4.43943,-1.16501 -3.28103,-1.17073 -11.95483,-6.27805 -15.89783,-9.36098 -5.22896,-4.08839 -5.2471,-4.25979 -2.8752,-27.16223 1.61512,-15.595095 1.88112,-21.471272 1.17732,-26.008275 -1.49378,-9.629569 -7.11351,-16.478467 -15.64626,-19.068469 -3.08963,-0.937819 -12.039,-1.081524 -15.14613,-0.243221 -7.02488,1.895314 -12.06929,8.913224 -13.77501,19.164126 -0.46857,2.81596 -0.97215,3.998907 -2.19128,5.147475 -2.18051,2.054296 -2.08491,4.0889 0.2979,6.340597 1.28352,1.212895 2.09647,2.678015 2.55989,4.613559 0.80937,3.380476 2.52821,6.398018 3.64442,6.398018 1.26058,0 1.35566,-1.21328 0.28649,-3.656087 -0.54165,-1.237537 -1.16212,-3.21484 -1.37883,-4.394007 -0.35607,-1.937501 -0.26599,-2.177477 0.93554,-2.492303 2.73333,-0.716186 9.94256,-4.699226 10.75547,-5.942315 0.46392,-0.709436 1.13368,-3.175662 1.48835,-5.480503 0.76359,-4.962359 2.30004,-8.412489 4.6158,-10.364902 1.33545,-1.12591 2.2973,-1.419356 4.65237,-1.419356 5.25382,0 7.79706,3.210767 7.85652,9.918621 0.0395,4.458401 0.40236,3.627747 -11.88411,27.205802 -7.90268,15.16543 -11.48223,25.00014 -13.40675,36.83468 -1.56464,9.62153 -0.60824,13.72128 8.82133,37.81395 7.27861,18.59694 8.54565,23.26056 8.60215,31.6622 0.0279,4.14859 -0.23249,7.25156 -0.726,8.65152 -2.65993,7.5456 -14.45545,12.26238 -30.97267,12.38532 -10.10528,0.0752 -10.14648,0.0486 -11.36909,-7.34759 -2.94845,-17.83669 -3.77665,-40.56079 -1.86221,-51.09491 2.27028,-12.4921 5.99039,-23.01598 14.60137,-41.30603 5.2333,-11.11574 5.71684,-12.28996 6.43634,-15.62998 0.39798,-1.84751 0.33339,-2.52245 -0.29109,-3.04174 -1.15575,-0.96107 -1.95029,0.0379 -2.85368,3.58794 -0.41331,1.62423 -2.20054,6.09579 -3.9716,9.93681 l -3.22012,6.98367 -3.63528,1.22925 c -4.38793,1.48376 -7.94298,3.25253 -8.92837,4.44219 -0.42549,0.51368 -0.58095,1.46009 -0.37494,2.28251 0.40065,1.59948 2.11759,2.24415 5.83549,2.1911 2.00506,-0.0286 2.34723,0.11745 2.02393,0.86389 -3.40574,7.86323 -6.89098,19.34421 -8.41574,27.72293 -3.6098,19.8361 1.21292,62.62963 8.45328,75.00862 1.98479,3.39343 5.43765,4.35796 10.95021,3.05885 z m -9.15028,-5.75301 c -1.08743,-2.31715 -3.74817,-10.00327 -3.74817,-10.82741 0,-0.0892 1.07366,0.089 2.38591,0.39608 3.2134,0.75191 14.80697,0.20574 20.35036,-0.9587 10.7409,-2.25624 17.31141,-6.27149 19.99343,-12.21804 1.19257,-2.64416 1.33856,-3.77107 1.33207,-10.28202 -0.007,-6.5576 -0.19593,-7.97118 -1.83478,-13.69483 -1.00511,-3.51034 -4.33298,-12.74926 -7.39527,-20.53093 -7.20283,-18.30336 -8.55744,-22.88716 -8.58625,-29.0545 -0.0572,-12.24067 5.17427,-27.0598 17.72591,-50.212444 3.56098,-6.568558 6.90227,-13.443365 7.42508,-15.277345 2.28158,-8.003721 -1.07219,-15.949601 -7.48518,-17.734155 -2.87747,-0.800723 -3.97996,-0.723392 -6.58371,0.461788 -4.42564,2.014473 -7.55649,7.331741 -8.42688,14.311739 -0.4754,3.812481 -1.79256,5.112736 -7.55643,7.459399 -3.85841,1.570886 -6.35674,1.620154 -6.63847,0.130914 -0.2382,-1.25912 3.45744,-3.145698 7.96802,-4.067582 2.76012,-0.564117 3.43079,-0.911466 3.43079,-1.776848 0,-0.88319 -0.4018,-1.07217 -2.24555,-1.056161 -1.23506,0.01074 -3.03649,0.214044 -4.00319,0.451838 l -1.75762,0.432347 0.50002,-2.701803 c 1.33252,-7.200163 4.18634,-12.262049 8.26893,-14.666766 2.46231,-1.450345 2.99203,-1.534831 9.62311,-1.534831 6.00746,0 7.39513,0.174929 9.64224,1.215482 6.24226,2.890563 10.24121,8.902188 11.07667,16.651579 0.48087,4.460352 -0.033,14.642563 -1.31238,26.007249 -1.24065,11.02022 -1.6315,17.8671 -1.18878,20.82514 0.3228,2.15677 0.89628,3.15863 3.01988,5.27565 4.68603,4.6715 17.04402,12.03246 21.4062,12.75046 2.54201,0.41841 5.07426,1.38117 5.07426,1.92923 0,0.66943 -7.16971,2.31445 -11.56948,2.6545 -4.62081,0.35714 -7.91056,-0.31415 -14.77817,-3.01555 -4.00984,-1.57728 -4.9003,-1.75758 -5.5358,-1.12083 -0.63551,0.63675 -0.61778,0.89864 0.11023,1.62807 0.9558,0.95768 8.46436,3.96272 11.56321,4.62777 1.08067,0.23194 2.3869,0.64302 2.90273,0.91354 1.21163,0.63539 10.47847,19.41476 13.04496,26.43577 6.1213,16.74567 8.88661,33.23244 8.9836,53.56005 0.0471,9.86614 -0.024,10.64532 -1.0392,11.39044 -0.59935,0.43992 -1.99803,0.79984 -3.10816,0.79984 -1.77103,0 -2.27777,-0.34806 -4.13434,-2.83974 -3.08435,-4.13948 -4.84097,-5.0305 -9.92251,-5.03303 -7.61275,-0.004 -47.62805,2.97284 -50.23475,3.73683 -1.9807,0.58052 -4.66612,2.95061 -5.96319,5.26298 l -1.26092,2.24791 -4.06628,0 -4.06628,0 -1.38587,-2.95308 z M 586.7976,140.80087 c 1.54382,-0.71693 3.36725,-1.46967 4.05206,-1.67277 1.17518,-0.34853 1.21151,-0.27267 0.64682,1.35038 -0.58261,1.67457 -0.68884,1.71842 -4.05207,1.67277 l -3.45376,-0.0469 2.80695,-1.30349 z m 46.56348,-62.851893 c 1.71654,-2.455521 0.70247,-6.022571 -2.09858,-7.381819 -2.87435,-1.394821 -4.88696,0.08568 -4.88696,3.594915 0,4.145869 4.88381,6.79342 6.98554,3.786904 z"
         style="fill:#000000" />
      <path
         id="path4443"
         d="m 624.00159,63.303906 c 1.3099,0.02025 2.64166,0.07653 3.66658,0.1582 3.20383,0.255304 3.98386,0.435335 5.63143,1.248028 5.55398,2.739579 9.44208,8.159958 10.59622,14.800549 0.63729,3.666729 0.17844,15.206387 -1.10523,27.737847 -1.39971,13.66439 -1.57749,20.56174 -0.56139,22.76332 2.15638,4.67221 16.66978,14.2545 24.45552,16.15404 1.4128,0.34469 2.97164,0.82975 3.4736,1.08983 l 0.91225,0.4746 -0.73682,0.38671 c -1.18124,0.60872 -6.09169,1.67011 -9.54362,2.05661 -3.85161,0.43125 -6.55701,0.15633 -10.94709,-1.24803 -0.62715,-0.20062 -1.29562,-0.43762 -1.99995,-0.68553 -2.44086,-0.85915 -5.21361,-1.78372 -6.17528,-2.05661 -1.70582,-0.48405 -1.76076,-0.46817 -2.3859,0.1582 -0.5043,0.50529 -0.58049,0.76772 -0.33333,1.23045 0.57346,1.07363 7.16733,3.84009 12.84178,5.3964 0.92842,0.25463 1.97859,0.77751 2.33328,1.16014 1.39939,1.5096 7.95806,14.52873 11.10498,22.04262 4.02904,9.62015 7.0682,20.65836 8.7717,31.93895 1.13979,7.54766 1.55325,13.39012 1.71926,23.87072 0.19996,12.62388 0.20286,12.59269 -2.40345,13.2537 -1.22604,0.31095 -1.97663,0.34666 -2.56134,0.14063 -0.4574,-0.16118 -1.88793,-1.50952 -3.17536,-3.00582 -2.84166,-3.3027 -4.0899,-4.10734 -7.03491,-4.48235 -3.09411,-0.39399 -15.51444,0.25465 -36.15697,1.88083 -12.06515,0.95047 -16.74155,1.50928 -17.94691,2.12692 -1.76244,0.9031 -3.74568,2.85884 -5.03496,4.99211 l -1.2105,2.02145 -3.96481,0 -3.98236,0 -0.68419,-1.59958 c -1.03489,-2.3995 -3.27327,-8.41035 -3.80692,-10.23031 l -0.45613,-1.59958 1.26313,0.22851 c 2.4735,0.44485 14.45157,0.21656 18.17497,-0.35156 9.47954,-1.44639 16.80343,-4.58668 20.56089,-8.8065 3.36388,-3.77784 4.3231,-7.74639 3.96481,-16.52318 -0.32426,-7.94302 -1.24415,-11.08449 -9.70151,-33.39792 -7.99264,-21.08733 -8.59803,-23.54019 -7.84191,-31.55224 1.05567,-11.18605 5.70286,-23.98364 15.3154,-42.1341 9.24473,-17.455961 10.49747,-20.596968 10.15764,-25.417574 -0.46051,-6.532559 -3.48528,-10.740741 -8.70153,-12.075983 -2.37664,-0.608362 -4.00023,-0.433579 -6.24546,0.667959 -4.29906,2.109178 -7.23697,7.03105 -8.36821,13.97439 -0.41601,2.553412 -1.20831,4.172194 -2.45607,5.062421 -0.53042,0.378433 -1.20896,0.785609 -1.96487,1.177716 -0.37795,0.196056 -0.76565,0.390757 -1.17541,0.580069 -2.04877,0.94656 -4.40231,1.751463 -6.01739,2.021453 -0.84442,0.141163 -1.26725,0.05096 -1.82451,-0.421868 l -0.71928,-0.615225 0.75436,-0.667959 c 1.17866,-1.015341 4.13797,-2.232038 7.26298,-3.005812 2.17962,-0.539688 2.94193,-0.879072 3.29816,-1.423806 0.3907,-0.597461 0.41342,-0.780895 0.0702,-1.195294 -0.34289,-0.413965 -0.91028,-0.461417 -3.47359,-0.333979 -1.67846,0.08345 -3.298,0.255321 -3.61395,0.386713 -0.53191,0.221194 -0.56983,0.132973 -0.36841,-1.212872 0.4341,-2.900424 1.45503,-6.18202 2.75432,-8.876814 1.66892,-3.461436 3.78563,-5.761074 6.54369,-7.083873 1.7379,-0.833517 2.41634,-0.962282 5.49109,-1.124983 0.96251,-0.05091 2.25142,-0.07299 3.56131,-0.05271 z"
         style="fill:#8cadcb;fill-opacity:1;fill-rule:nonzero"
         inkscape:connector-curvature="0" />
      <path
         sodipodi:nodetypes="ccsssssccsssssscccsssssssccssssc"
         id="path4453"
         d="m 607.45813,102.44978 c 0.89618,-1.29097 -0.0529,-3.853821 -0.4035,-4.886645 -1.16299,-3.363028 -1.41752,-4.882491 -0.87717,-5.290933 0.22523,-0.170254 1.37204,-0.675507 2.54379,-1.124982 1.17176,-0.449481 3.55803,-1.675178 5.31566,-2.724567 3.80496,-2.271755 3.9771,-2.527503 5.19285,-8.120966 1.20831,-5.559287 2.24439,-8.024849 4.15779,-9.861174 1.3495,-1.295148 3.32042,-1.874963 5.26302,-1.775363 l 3e-5,0 c 1.9426,0.0996 3.86756,0.87401 5.12268,2.302698 1.50372,1.711678 1.88736,2.987554 2.08766,6.732317 0.22087,4.129461 -0.0538,5.003505 -4.50866,13.763456 -13.57913,26.701549 -15.34711,30.556439 -17.89428,39.128299 -2.2664,7.62702 -3.59052,15.76086 -3.24553,19.96843 0.46627,5.68674 1.69552,9.64152 8.99977,28.9683 8.49186,22.46913 8.65612,23.10404 8.66645,33.09909 l 0.0175,6.85536 -0.99997,2.03903 c -2.69382,5.48267 -10.28853,9.2487 -21.71875,10.75765 -1.97249,0.2604 -5.62089,0.40187 -9.75414,0.36913 -6.1884,-0.049 -6.65081,-0.1012 -7.45595,-0.70311 -1.44233,-1.0783 -1.87762,-2.24902 -2.6666,-7.15419 -2.78264,-17.29999 -3.56263,-38.24272 -1.84205,-49.58711 1.0469,-6.90264 4.11215,-17.35416 7.59629,-25.8746 0.91471,-2.23691 4.04997,-9.32196 6.96474,-15.74975 6.21921,-13.71492 6.83924,-15.48456 6.57878,-18.86103 m 24.7187,-44.788365 c -0.62015,0.0022 -1.17377,0.19163 -1.66663,0.580069 -2.36055,1.860457 -1.50227,6.950327 1.40348,8.331901 1.68128,0.799384 2.86182,0.667598 3.9999,-0.474602 2.27563,-2.283889 1.41504,-6.290677 -1.68417,-7.874877 -0.75124,-0.384007 -1.43244,-0.564702 -2.05258,-0.562491 z"
         style="fill:#ffffff;fill-opacity:1;stroke:#000000;stroke-width:0.56193995px;stroke-linecap:butt;stroke-linejoin:miter;stroke-opacity:1"
         inkscape:connector-curvature="0" />
    </g>
  </g>
  <g
     inkscape:groupmode="layer"
     id="layer5"
     inkscape:label="soclalinuxexpo"
     transform="translate(0,-58)">
    <path
       inkscape:connector-curvature="0"
       id="path6252"
       d="m 63.288496,230.35441 c 0.605419,0.67247 1.110264,1.21084 2.287577,1.84979 1.581584,0.84009 3.19472,1.14378 4.575155,1.14378 2.354626,0 4.372033,-1.11026 4.372033,-2.75889 0,-1.88331 -2.388152,-2.18503 -4.13736,-2.42168 -1.311412,-0.16762 -2.624797,-0.33722 -3.902685,-0.60739 -1.445512,-0.30172 -6.391411,-1.34494 -6.391411,-6.45649 0,-6.12124 5.448772,-7.9375 9.552606,-7.9375 5.482297,0 8.442343,2.65833 10.495246,4.50614 l -4.374005,3.12964 c -0.739519,-0.74149 -1.411988,-1.37846 -2.354627,-1.91881 -0.840093,-0.46934 -2.354627,-1.04124 -3.867189,-1.04124 -2.354626,0 -3.53194,1.34494 -3.53194,2.48873 0,1.81625 2.017407,2.08643 3.027096,2.22053 2.522251,0.30172 5.920092,0.94263 7.265029,1.41395 2.725372,1.00969 4.103834,3.12767 4.103834,5.81755 0,1.71568 -0.638943,3.59899 -1.883307,5.04647 -2.153477,2.4907 -5.584843,3.19472 -8.913662,3.19472 -6.695107,0 -9.351457,-3.09217 -10.832466,-4.80785 l 4.510076,-2.86145 z"
       style="fill:#ffffff;fill-opacity:1" />
    <path
       inkscape:connector-curvature="0"
       id="path6254"
       d="m 101.56795,228.67423 c 0,4.43908 -2.555784,9.31793 -9.418514,9.31793 -4.943927,0 -9.452031,-2.82595 -9.452031,-9.31793 0,-5.38172 3.39784,-9.65516 10.1245,-9.28441 7.164451,0.40427 8.746045,6.08969 8.746045,9.28441 z m -12.780857,-3.46489 c -0.638944,1.00969 -0.87559,2.22052 -0.87559,3.42939 0,2.79242 1.346909,5.24762 4.237933,5.24762 2.792422,0 4.170884,-2.25405 4.170884,-5.01097 0,-1.95036 -0.471319,-3.46489 -1.447484,-4.40556 -1.074766,-1.00969 -2.287577,-1.04322 -3.027095,-0.97617 -1.479037,0.10058 -2.354627,0.60542 -3.058648,1.71569 z"
       style="fill:#ffffff;fill-opacity:1" />
    <path
       inkscape:connector-curvature="0"
       id="path6256"
       d="m 115.42553,219.92819 h 5.18058 v 17.55715 h -5.18058 v -1.68215 c -0.50484,0.57189 -0.80656,0.90714 -1.7492,1.37846 -1.04322,0.5364 -2.18701,0.80657 -3.32882,0.80657 -1.14379,0 -3.26374,-0.16763 -4.47458,-1.84979 -0.90911,-1.27591 -1.07674,-2.3211 -1.07674,-5.1786 v -11.03164 h 5.2141 v 10.89754 c 0,0.77305 0,1.54609 0.40427,2.08643 0.30369,0.4023 1.00969,0.87362 2.0529,0.87362 0.30369,0 1.00969,0 1.78273,-0.4378 1.10829,-0.67444 1.14379,-1.54805 1.17732,-2.49069 v -10.9291 z"
       style="fill:#ffffff;fill-opacity:1" />
    <path
       inkscape:connector-curvature="0"
       id="path6258"
       d="m 125.88725,214.84819 h 5.14705 v 5.4823 h 3.39784 v 3.16316 h -3.43136 v 7.90595 c -0.0335,1.07674 -0.0335,1.98388 1.34494,1.98388 l 1.84978,-0.067 v 4.03679 c -1.10829,0.16762 -1.78274,0.27017 -2.7234,0.27017 -1.78274,0 -3.73506,-0.10255 -4.84336,-1.71569 -0.70599,-1.04124 -0.73951,-2.28757 -0.73951,-3.96973 v -8.47587 h -2.55578 v -3.16317 h 2.55578 v -5.45074 z"
       style="fill:#ffffff;fill-opacity:1" />
    <path
       inkscape:connector-curvature="0"
       id="path6260"
       d="m 142.33414,213.7044 v 8.07357 c 0.73952,-0.73952 2.25406,-2.3211 5.04648,-2.3211 1.27789,0 2.69185,0.37075 3.73309,1.24436 1.54806,1.31142 1.81625,2.96005 1.81625,5.24763 v 11.53846 h -5.14704 v -9.18187 c 0,-1.41395 -0.0335,-2.08642 -0.23468,-2.69184 -0.50484,-1.58159 -1.88528,-1.74921 -2.42365,-1.74921 -0.90714,0 -1.68215,0.43779 -2.11798,1.00969 -0.67247,0.90911 -0.67247,2.35463 -0.67247,3.86916 v 8.74604 h -5.18057 v -23.78292 h 5.18057 z"
       style="fill:#ffffff;fill-opacity:1" />
    <path
       inkscape:connector-curvature="0"
       id="path6262"
       d="m 173.88496,233.01274 c -0.60542,0.90911 -1.21084,1.78273 -2.11995,2.62282 -1.51454,1.41396 -3.80211,2.4907 -6.62609,2.4907 -5.2141,0 -8.88014,-3.32882 -8.88014,-9.08129 0,-4.23793 2.08643,-9.6867 9.01424,-9.6867 1.04321,0 4.07031,0.10057 6.32436,2.52225 2.28758,2.4552 2.42168,5.88459 2.48873,7.87045 h -12.54618 c -0.0335,2.18503 1.21084,4.37203 4.00326,4.37203 2.82595,0 3.80211,-1.84978 4.43908,-3.09415 l 3.90269,1.98389 z m -5.14508,-6.49199 c -0.10057,-0.73952 -0.23664,-1.71568 -0.97616,-2.4907 -0.63895,-0.63697 -1.61511,-0.97419 -2.52225,-0.97419 -1.24437,0 -2.11995,0.60542 -2.6248,1.14379 -0.70599,0.77501 -0.87362,1.58158 -1.04321,2.3211 h 7.16642 z"
       style="fill:#ffffff;fill-opacity:1" />
    <path
       inkscape:connector-curvature="0"
       id="path6264"
       d="m 182.0591,221.74445 c 1.14379,-0.97617 2.38816,-1.74921 5.08,-2.01741 v 4.57318 l -1.71568,0.27017 c -2.48873,0.4378 -3.23022,0.80657 -3.23022,3.0271 v 9.88983 h -5.1786 v -17.59266 h 5.0445 v 1.84979 z"
       style="fill:#ffffff;fill-opacity:1" />
    <path
       inkscape:connector-curvature="0"
       id="path6266"
       d="m 194.97603,221.5078 c 0.50484,-0.5364 0.84009,-0.94264 1.7492,-1.37846 0.80854,-0.33525 1.95036,-0.63697 3.1967,-0.63697 1.04321,0 2.21855,0.20115 3.12767,0.70402 1.84978,0.97616 2.3211,2.55775 2.3211,5.28312 v 12.00781 h -5.14705 v -9.88983 c 0,-1.58158 -0.0335,-2.15348 -0.23468,-2.62283 -0.40427,-0.94461 -1.31338,-1.34691 -2.3211,-1.34691 -2.7234,0 -2.7234,2.18503 -2.7234,4.37401 v 9.48556 h -5.18057 v -17.52561 h 5.2141 v 1.54609 z"
       style="fill:#ffffff;fill-opacity:1" />
    <path
       inkscape:connector-curvature="0"
       id="path6268"
       d="m 239.74547,232.07207 c -0.87362,1.37846 -1.71569,2.72537 -3.59899,4.03678 -1.00969,0.706 -3.32882,2.08643 -6.62609,2.08643 -6.29082,0 -11.37081,-4.57515 -11.37081,-12.61323 0,-7.03035 4.7763,-12.5797 11.50294,-12.5797 2.72537,0 5.14705,0.94264 6.92978,2.35266 1.64863,1.31141 2.42365,2.6248 3.09415,3.80211 l -4.70926,2.35265 c -0.33722,-0.77304 -0.73952,-1.57961 -1.78273,-2.4552 -1.14379,-0.90714 -2.28758,-1.17731 -3.26177,-1.17731 -3.83564,0 -5.85302,3.56744 -5.85302,7.5352 0,5.2141 2.6583,7.8034 5.85302,7.8034 3.09415,0 4.33851,-2.15348 5.14508,-3.53194 l 4.6777,2.38815 z"
       style="fill:#ffffff;fill-opacity:1" />
    <path
       inkscape:connector-curvature="0"
       id="path6270"
       d="m 242.20067,224.90761 c 0.10057,-1.21083 0.2682,-2.65832 1.84978,-3.90268 1.61511,-1.27592 3.69956,-1.54609 5.75247,-1.54609 2.15348,0 7.36757,0.50485 7.36757,5.04648 v 10.22704 c 0,1.88331 0.10058,2.15348 0.50485,2.75693 h -5.08 v -1.61314 c -1.31339,0.97419 -2.79242,2.08643 -5.38172,2.08643 -4.03679,0 -5.75247,-2.89497 -5.75247,-5.35017 0,-2.82595 2.25405,-4.43908 3.69956,-5.04647 1.41199,-0.60542 4.74278,-1.20887 6.92979,-1.61314 v -0.94264 c -0.0671,-0.80657 -0.1341,-2.15348 -1.98389,-2.15348 -2.28757,0 -2.5893,1.41396 -2.72537,2.05291 h -5.18057 z m 6.55903,5.27918 c -0.87361,0.33525 -2.21855,0.84009 -2.21855,2.18503 0,0.84207 0.73952,1.78273 1.95036,1.78273 0.63894,0 1.24436,-0.23467 1.78273,-0.57189 1.71568,-1.07674 1.78273,-2.68988 1.81626,-4.50811 l -3.3308,1.11224 z"
       style="fill:#ffffff;fill-opacity:1" />
    <path
       inkscape:connector-curvature="0"
       id="path6272"
       d="m 267.05835,213.7399 v 23.74742 h -5.18057 V 213.7399 h 5.18057 z"
       style="fill:#ffffff;fill-opacity:1" />
    <path
       inkscape:connector-curvature="0"
       id="path6274"
       d="m 271.76563,213.7044 h 5.11352 v 4.00326 h -5.11352 v -4.00326 z m 0,6.19026 h 5.11352 v 17.59266 h -5.11352 v -17.59266 z"
       style="fill:#ffffff;fill-opacity:1" />
    <path
       inkscape:connector-curvature="0"
       id="path6276"
       d="m 282.36145,218.17898 c 0,-0.87362 0.067,-2.05093 0.73952,-2.99357 0.63894,-0.87362 2.08643,-1.78273 4.5081,-1.78273 1.04322,0 2.08643,0.16762 3.09415,0.30172 v 3.86916 h -1.24436 c -1.95233,0 -2.05291,0.40427 -2.01741,2.75693 h 3.46489 v 3.16316 h -3.43137 v 13.99367 h -5.14507 v -13.99367 h -2.7589 v -3.16316 h 2.79242 v -2.15151 z"
       style="fill:#ffffff;fill-opacity:1" />
    <path
       inkscape:connector-curvature="0"
       id="path6278"
       d="m 311.08829,228.67423 c 0,4.43908 -2.55577,9.31793 -9.41851,9.31793 -4.94392,0 -9.45203,-2.82595 -9.45203,-9.31793 0,-5.38172 3.39784,-9.65516 10.1245,-9.28441 7.16446,0.40427 8.74604,6.08969 8.74604,9.28441 z m -12.78282,-3.46489 c -0.63895,1.00969 -0.87559,2.22052 -0.87559,3.42939 0,2.79242 1.34691,5.24762 4.23793,5.24762 2.79242,0 4.17089,-2.25405 4.17089,-5.01097 0,-1.95036 -0.47132,-3.46489 -1.44749,-4.40556 -1.07476,-1.00969 -2.28758,-1.04322 -3.02709,-0.97617 -1.47904,0.10058 -2.35266,0.60542 -3.05865,1.71569 z"
       style="fill:#ffffff;fill-opacity:1" />
    <path
       inkscape:connector-curvature="0"
       id="path6280"
       d="m 319.43006,221.74445 c 1.14379,-0.97617 2.38815,-1.74921 5.08,-2.01741 v 4.57318 l -1.71569,0.27017 c -2.48872,0.4378 -3.23021,0.80657 -3.23021,3.0271 v 9.88983 h -5.1786 v -17.59266 h 5.0445 v 1.84979 z"
       style="fill:#ffffff;fill-opacity:1" />
    <path
       inkscape:connector-curvature="0"
       id="path6282"
       d="m 332.34501,221.5078 c 0.50484,-0.5364 0.84206,-0.94264 1.74921,-1.37846 0.80854,-0.33525 1.95233,-0.63697 3.19669,-0.63697 1.04321,0 2.21855,0.20115 3.12767,0.70402 1.84978,0.97616 2.32307,2.55775 2.32307,5.28312 v 12.00781 h -5.14705 v -9.88983 c 0,-1.58158 -0.0335,-2.15348 -0.23467,-2.62283 -0.4023,-0.94461 -1.31141,-1.34691 -2.3211,-1.34691 -2.72537,0 -2.72537,2.18503 -2.72537,4.37401 v 9.48556 h -5.18058 v -17.52561 h 5.2141 v 1.54609 z"
       style="fill:#ffffff;fill-opacity:1" />
    <path
       inkscape:connector-curvature="0"
       id="path6284"
       d="m 347.44696,213.7044 h 5.1155 v 4.00326 h -5.1155 v -4.00326 z m 0,6.19026 h 5.1155 v 17.59266 h -5.1155 v -17.59266 z"
       style="fill:#ffffff;fill-opacity:1" />
    <path
       inkscape:connector-curvature="0"
       id="path6286"
       d="m 357.13564,224.90761 c 0.10057,-1.21083 0.2682,-2.65832 1.84978,-3.90268 1.61314,-1.27592 3.69759,-1.54609 5.7505,-1.54609 2.15348,0 7.36757,0.50485 7.36757,5.04648 v 10.22704 c 0,1.88331 0.10058,2.15348 0.50485,2.75693 h -5.08 v -1.61314 c -1.31339,0.97419 -2.79242,2.08643 -5.38172,2.08643 -4.03679,0 -5.75444,-2.89497 -5.75444,-5.35017 0,-2.82595 2.25405,-4.43908 3.70153,-5.04647 1.41396,-0.60542 4.74081,-1.20887 6.92978,-1.61314 v -0.94264 c -0.067,-0.80657 -0.13409,-2.15348 -1.98388,-2.15348 -2.28757,0 -2.59127,1.41396 -2.72734,2.05291 h -5.17663 z m 6.55706,5.27918 c -0.87361,0.33525 -2.21855,0.84009 -2.21855,2.18503 0,0.84207 0.73952,1.78273 1.95035,1.78273 0.63895,0 1.24437,-0.23467 1.78077,-0.57189 1.71765,-1.07674 1.78273,-2.68988 1.81822,-4.50811 l -3.33079,1.11224 z"
       style="fill:#ffffff;fill-opacity:1" />
    <path
       inkscape:connector-curvature="0"
       id="path6288"
       d="m 385.92756,213.7044 h 5.92206 v 18.77194 h 9.28244 v 5.01098 h -15.2045 V 213.7044 z"
       style="fill:#ffffff;fill-opacity:1" />
    <path
       inkscape:connector-curvature="0"
       id="path6290"
       d="m 404.22817,213.7044 h 5.11353 v 4.00326 h -5.11353 v -4.00326 z m 0,6.19026 h 5.11353 v 17.59266 h -5.11353 v -17.59266 z"
       style="fill:#ffffff;fill-opacity:1" />
    <path
       inkscape:connector-curvature="0"
       id="path6292"
       d="m 419.26308,221.5078 c 0.50484,-0.5364 0.84206,-0.94264 1.74921,-1.37846 0.80656,-0.33525 1.95035,-0.63697 3.19472,-0.63697 1.04321,0 2.22052,0.20115 3.12964,0.70402 1.84978,0.97616 2.3211,2.55775 2.3211,5.28312 v 12.00781 h -5.14508 v -9.88983 c 0,-1.58158 -0.0355,-2.15348 -0.23664,-2.62283 -0.4023,-0.94461 -1.31142,-1.34691 -2.32111,-1.34691 -2.72537,0 -2.72537,2.18503 -2.72537,4.37401 v 9.48556 h -5.1786 v -17.52561 h 5.2141 v 1.54609 z"
       style="fill:#ffffff;fill-opacity:1" />
    <path
       inkscape:connector-curvature="0"
       id="path6294"
       d="m 444.79125,219.92819 h 5.18058 v 17.55715 h -5.18058 v -1.68215 c -0.50484,0.57189 -0.80656,0.90714 -1.7492,1.37846 -1.04322,0.5364 -2.18503,0.80657 -3.32882,0.80657 -1.14379,0 -3.26177,-0.16763 -4.47458,-1.84979 -0.90912,-1.27591 -1.07674,-2.3211 -1.07674,-5.1786 v -11.03164 h 5.2141 v 10.89754 c 0,0.77305 0,1.54609 0.40427,2.08643 0.30172,0.4023 1.00969,0.87362 2.05093,0.87362 0.30172,0 1.00969,0 1.78273,-0.4378 1.10829,-0.67444 1.14379,-1.54805 1.17731,-2.49069 v -10.9291 z"
       style="fill:#ffffff;fill-opacity:1" />
    <path
       inkscape:connector-curvature="0"
       id="path6296"
       d="m 469.17959,219.92819 -5.31468,8.2057 5.95362,9.35145 h -5.51582 l -3.32882,-5.45074 -2.92652,5.45074 h -5.71697 l 5.95559,-9.51908 -5.31468,-8.03807 h 5.85305 l 2.3211,4.47458 2.4907,-4.47458 h 5.54343 z"
       style="fill:#ffffff;fill-opacity:1" />
    <path
       inkscape:connector-curvature="0"
       id="path6298"
       d="m 481.25444,213.7399 h 17.55716 v 4.60868 h -11.63706 v 4.30498 h 10.86402 v 4.50811 h -10.86402 v 5.64992 h 12.68224 v 4.67573 H 481.25444 V 213.7399 z"
       style="fill:#ffffff;fill-opacity:1" />
    <path
       inkscape:connector-curvature="0"
       id="path6300"
       d="m 517.54804,219.92819 -5.31467,8.2057 5.95361,9.35145 h -5.51582 l -3.32882,-5.45074 -2.92652,5.45074 h -5.71697 l 5.95559,-9.51908 -5.31467,-8.03807 h 5.85304 l 2.3211,4.47458 2.4907,-4.47458 h 5.54343 z"
       style="fill:#ffffff;fill-opacity:1" />
    <path
       inkscape:connector-curvature="0"
       id="path6302"
       d="m 524.98266,221.6419 c 0.16763,-0.20115 0.33525,-0.4023 0.50485,-0.57189 0.87362,-0.8401 2.4552,-1.54609 4.40556,-1.54609 4.30498,0 7.63577,3.26177 7.63577,9.11481 0,3.59899 -1.58158,9.18383 -7.60225,9.18383 -1.95036,0 -2.96005,-0.63894 -4.33851,-1.481 v 7.2315 h -5.2141 v -23.57782 h 4.60868 v 1.64666 z m 4.10384,1.55003 c -0.94264,0 -1.91881,0.4023 -2.65832,1.41199 -0.73952,0.97616 -1.07674,2.4907 -1.07674,4.13933 0,2.22053 0.57189,3.59899 1.24436,4.33851 0.60542,0.63894 1.48101,1.00969 2.3211,1.00969 2.52225,0 3.63449,-2.72537 3.63449,-5.4823 0,-2.3211 -0.63895,-4.7763 -2.7589,-5.31467 -0.23664,-0.071 -0.47132,-0.10255 -0.70599,-0.10255 z"
       style="fill:#ffffff;fill-opacity:1" />
    <path
       inkscape:connector-curvature="0"
       id="path6304"
       d="m 558.48384,228.67423 c 0,4.43908 -2.55775,9.31793 -9.41851,9.31793 -4.9459,0 -9.45203,-2.82595 -9.45203,-9.31793 0,-5.38172 3.39784,-9.65516 10.1245,-9.28441 7.16445,0.40427 8.74604,6.08969 8.74604,9.28441 z m -12.7848,-3.46489 c -0.63894,1.00969 -0.87362,2.22052 -0.87362,3.42939 0,2.79242 1.34691,5.24762 4.23794,5.24762 2.79242,0 4.17088,-2.25405 4.17088,-5.01097 0,-1.95036 -0.47132,-3.46489 -1.44551,-4.40556 -1.07674,-1.00969 -2.28758,-1.04322 -3.0271,-0.97617 -1.48101,0.10058 -2.35462,0.60542 -3.06259,1.71569 z"
       style="fill:#ffffff;fill-opacity:1" />
  </g>
  <g
     inkscape:groupmode="layer"
     id="layer6"
     inkscape:label="tenth"
     transform="translate(0,-58)">
    <path
       inkscape:connector-curvature="0"
       id="path4687"
       style="font-size:25px;font-style:normal;font-variant:normal;font-weight:normal;font-stretch:normal;line-height:125%;letter-spacing:0px;word-spacing:0px;fill:#ffffff;fill-opacity:1;stroke:none;font-family:Mukti Narrow;-inkscape-font-specification:Mukti Narrow"
       d="m 52.281077,186.98272 0,16.17432 -2.319336,0 0,-16.17432 -6.005859,0 0,-2.05078 14.294434,0 0,2.05078 -5.969239,0" />
    <path
       inkscape:connector-curvature="0"
       id="path4689"
       style="font-size:25px;font-style:normal;font-variant:normal;font-weight:normal;font-stretch:normal;line-height:125%;letter-spacing:0px;word-spacing:0px;fill:#ffffff;fill-opacity:1;stroke:none;font-family:Mukti Narrow;-inkscape-font-specification:Mukti Narrow"
       d="m 60.459788,184.93194 2.075196,0 0,6.92139 0.45166,-0.5249 c 0.887039,-1.00097 1.953118,-1.54215 3.198242,-1.62354 l 0.549316,-0.0244 c 1.839183,1e-5 3.084299,0.6185 3.735352,1.85547 0.260404,0.49643 0.390613,1.07016 0.390625,1.72119 l 0,9.8999 -2.075195,0 0,-9.06983 c -1.1e-5,-0.91958 -0.280772,-1.57876 -0.842286,-1.97753 -0.537118,-0.39876 -1.155607,-0.59814 -1.855468,-0.59815 -1.399746,1e-5 -2.40886,0.63885 -3.027344,1.9165 -0.349939,0.69988 -0.524906,1.53403 -0.524902,2.50245 l 0,7.22656 -2.075196,0 0,-18.2251" />
    <path
       inkscape:connector-curvature="0"
       id="path4691"
       style="font-size:25px;font-style:normal;font-variant:normal;font-weight:normal;font-stretch:normal;line-height:125%;letter-spacing:0px;word-spacing:0px;fill:#ffffff;fill-opacity:1;stroke:none;font-family:Mukti Narrow;-inkscape-font-specification:Mukti Narrow"
       d="m 85.447581,197.30987 -9.655762,0 c 0.01627,1.19629 0.248207,2.1281 0.695801,2.79541 0.72428,1.13119 1.774083,1.69678 3.149414,1.69678 1.700838,0 2.844229,-0.87484 3.430176,-2.62451 l 2.099609,0 c -0.366223,2.01823 -1.416026,3.38541 -3.149414,4.10156 -0.73243,0.30111 -1.5503,0.45166 -2.453613,0.45166 -2.262374,0 -3.91846,-0.91553 -4.968262,-2.74658 -0.651043,-1.13118 -0.976563,-2.53092 -0.976562,-4.19922 -10e-7,-2.63671 0.781248,-4.59797 2.34375,-5.88379 1.000972,-0.81379 2.217605,-1.22069 3.649902,-1.2207 1.920564,1e-5 3.422028,0.6836 4.504395,2.05078 0.333647,0.41505 0.602201,0.88298 0.805664,1.40381 0.349922,0.89519 0.524889,2.28679 0.524902,4.1748 m -9.606933,-1.69678 7.348632,0 0.02441,-0.15869 c -1e-5,-1.33462 -0.488291,-2.37629 -1.464843,-3.125 -0.634774,-0.48013 -1.354989,-0.7202 -2.160645,-0.72021 -1.416021,10e-6 -2.465825,0.62257 -3.149414,1.86767 -0.333662,0.60223 -0.533044,1.3143 -0.598144,2.13623" />
    <path
       inkscape:connector-curvature="0"
       id="path4693"
       style="font-size:25px;font-style:normal;font-variant:normal;font-weight:normal;font-stretch:normal;line-height:125%;letter-spacing:0px;word-spacing:0px;fill:#ffffff;fill-opacity:1;stroke:none;font-family:Mukti Narrow;-inkscape-font-specification:Mukti Narrow"
       d="m 102.32991,186.98272 0,16.17432 -2.31934,0 0,-16.17432 -6.005855,0 0,-2.05078 14.294435,0 0,2.05078 -5.96924,0" />
    <path
       inkscape:connector-curvature="0"
       id="path4695"
       style="font-size:25px;font-style:normal;font-variant:normal;font-weight:normal;font-stretch:normal;line-height:125%;letter-spacing:0px;word-spacing:0px;fill:#ffffff;fill-opacity:1;stroke:none;font-family:Mukti Narrow;-inkscape-font-specification:Mukti Narrow"
       d="m 121.5804,197.30987 -9.65576,0 c 0.0163,1.19629 0.2482,2.1281 0.6958,2.79541 0.72428,1.13119 1.77408,1.69678 3.14941,1.69678 1.70084,0 2.84423,-0.87484 3.43018,-2.62451 l 2.09961,0 c -0.36623,2.01823 -1.41603,3.38541 -3.14942,4.10156 -0.73243,0.30111 -1.5503,0.45166 -2.45361,0.45166 -2.26237,0 -3.91846,-0.91553 -4.96826,-2.74658 -0.65105,-1.13118 -0.97657,-2.53092 -0.97656,-4.19922 -1e-5,-2.63671 0.78124,-4.59797 2.34375,-5.88379 1.00097,-0.81379 2.2176,-1.22069 3.6499,-1.2207 1.92056,1e-5 3.42203,0.6836 4.50439,2.05078 0.33365,0.41505 0.6022,0.88298 0.80567,1.40381 0.34992,0.89519 0.52489,2.28679 0.5249,4.1748 m -9.60693,-1.69678 7.34863,0 0.0244,-0.15869 c -1e-5,-1.33462 -0.48829,-2.37629 -1.46484,-3.125 -0.63478,-0.48013 -1.35499,-0.7202 -2.16065,-0.72021 -1.41602,10e-6 -2.46582,0.62257 -3.14941,1.86767 -0.33366,0.60223 -0.53304,1.3143 -0.59814,2.13623" />
    <path
       inkscape:connector-curvature="0"
       id="path4697"
       style="font-size:25px;font-style:normal;font-variant:normal;font-weight:normal;font-stretch:normal;line-height:125%;letter-spacing:0px;word-spacing:0px;fill:#ffffff;fill-opacity:1;stroke:none;font-family:Mukti Narrow;-inkscape-font-specification:Mukti Narrow"
       d="m 124.42464,190.05889 1.92871,0 0,2.19727 c 0.90331,-1.416 1.98567,-2.24201 3.24707,-2.47803 0.33365,-0.0651 0.69986,-0.0976 1.09863,-0.0977 1.73339,1e-5 2.95002,0.57374 3.6499,1.72119 0.31737,0.52084 0.4842,1.13933 0.50049,1.85547 l 0,9.8999 -2.07519,0 0,-9.06983 c -1e-5,-1.15558 -0.48016,-1.9409 -1.44043,-2.35595 -0.36622,-0.14648 -0.78533,-0.21972 -1.25733,-0.21973 -1.39974,1e-5 -2.40886,0.63885 -3.02734,1.9165 -0.34994,0.69988 -0.52491,1.53403 -0.5249,2.50245 l 0,7.22656 -2.09961,0 0,-13.09815" />
    <path
       inkscape:connector-curvature="0"
       id="path4701"
       style="font-size:25px;font-style:normal;font-variant:normal;font-weight:normal;font-stretch:normal;line-height:125%;letter-spacing:0px;word-spacing:0px;fill:#ffffff;fill-opacity:1;stroke:none;font-family:Mukti Narrow;-inkscape-font-specification:Mukti Narrow"
       d="m 142.84651,190.05889 0,1.69678 -2.14844,0 0,8.97217 c 0,0.63477 0.18311,1.00098 0.54932,1.09863 l 0.59815,0.0855 c 0.41503,0 0.74869,-0.0366 1.00097,-0.10986 l 0,1.75781 c -0.65105,0.11393 -1.21664,0.1709 -1.69678,0.1709 -1.48112,0 -2.31526,-0.55746 -2.50244,-1.67236 -0.0163,-0.26856 -0.0244,-0.40283 -0.0244,-0.40284 l 0,-9.8999 -1.77002,0 0,-1.69678 1.77002,0 0,-3.60107 2.07519,0 0,3.60107 2.14844,0" />
    <path
       inkscape:connector-curvature="0"
       id="path4703"
       style="font-size:25px;font-style:normal;font-variant:normal;font-weight:normal;font-stretch:normal;line-height:125%;letter-spacing:0px;word-spacing:0px;fill:#ffffff;fill-opacity:1;stroke:none;font-family:Mukti Narrow;-inkscape-font-specification:Mukti Narrow"
       d="m 145.19026,184.93194 2.0752,0 0,6.92139 0.45166,-0.5249 c 0.88704,-1.00097 1.95312,-1.54215 3.19824,-1.62354 l 0.54932,-0.0244 c 1.83918,1e-5 3.08429,0.6185 3.73535,1.85547 0.2604,0.49643 0.39061,1.07016 0.39062,1.72119 l 0,9.8999 -2.07519,0 0,-9.06983 c -1e-5,-0.91958 -0.28077,-1.57876 -0.84229,-1.97753 -0.53712,-0.39876 -1.1556,-0.59814 -1.85547,-0.59815 -1.39974,1e-5 -2.40886,0.63885 -3.02734,1.9165 -0.34994,0.69988 -0.52491,1.53403 -0.5249,2.50245 l 0,7.22656 -2.0752,0 0,-18.2251" />
    <path
       inkscape:connector-curvature="0"
       id="path4705"
       style="font-size:25px;font-style:normal;font-variant:normal;font-weight:normal;font-stretch:normal;line-height:125%;letter-spacing:0px;word-spacing:0px;fill:#ffffff;fill-opacity:1;stroke:none;font-family:Mukti Narrow;-inkscape-font-specification:Mukti Narrow"
       d="m 176.13509,197.67608 -7.03125,0 -1.91651,5.48096 -2.47803,0 6.49415,-18.2251 3.00293,0 6.39648,18.2251 -2.6001,0 -1.86767,-5.48096 m -0.64698,-1.94092 -2.80761,-8.30078 -3.00293,8.30078 5.81054,0" />
    <path
       inkscape:connector-curvature="0"
       id="path4707"
       style="font-size:25px;font-style:normal;font-variant:normal;font-weight:normal;font-stretch:normal;line-height:125%;letter-spacing:0px;word-spacing:0px;fill:#ffffff;fill-opacity:1;stroke:none;font-family:Mukti Narrow;-inkscape-font-specification:Mukti Narrow"
       d="m 182.73909,190.05889 1.92871,0 0,2.19727 c 0.90332,-1.416 1.98567,-2.24201 3.24707,-2.47803 0.33365,-0.0651 0.69986,-0.0976 1.09863,-0.0977 1.73339,1e-5 2.95003,0.57374 3.64991,1.72119 0.31737,0.52084 0.4842,1.13933 0.50048,1.85547 l 0,9.8999 -2.07519,0 0,-9.06983 c -10e-6,-1.15558 -0.48015,-1.9409 -1.44043,-2.35595 -0.36622,-0.14648 -0.78533,-0.21972 -1.25732,-0.21973 -1.39975,1e-5 -2.40886,0.63885 -3.02735,1.9165 -0.34994,0.69988 -0.5249,1.53403 -0.5249,2.50245 l 0,7.22656 -2.09961,0 0,-13.09815" />
    <path
       inkscape:connector-curvature="0"
       id="path4709"
       style="font-size:25px;font-style:normal;font-variant:normal;font-weight:normal;font-stretch:normal;line-height:125%;letter-spacing:0px;word-spacing:0px;fill:#ffffff;fill-opacity:1;stroke:none;font-family:Mukti Narrow;-inkscape-font-specification:Mukti Narrow"
       d="m 196.65511,190.05889 1.92871,0 0,2.19727 c 0.90331,-1.416 1.98567,-2.24201 3.24707,-2.47803 0.33365,-0.0651 0.69986,-0.0976 1.09863,-0.0977 1.73339,1e-5 2.95002,0.57374 3.6499,1.72119 0.31737,0.52084 0.4842,1.13933 0.50049,1.85547 l 0,9.8999 -2.07519,0 0,-9.06983 c -2e-5,-1.15558 -0.48016,-1.9409 -1.44043,-2.35595 -0.36622,-0.14648 -0.78533,-0.21972 -1.25733,-0.21973 -1.39974,1e-5 -2.40886,0.63885 -3.02734,1.9165 -0.34994,0.69988 -0.52491,1.53403 -0.5249,2.50245 l 0,7.22656 -2.09961,0 0,-13.09815" />
    <path
       inkscape:connector-curvature="0"
       id="path4711"
       style="font-size:25px;font-style:normal;font-variant:normal;font-weight:normal;font-stretch:normal;line-height:125%;letter-spacing:0px;word-spacing:0px;fill:#ffffff;fill-opacity:1;stroke:none;font-family:Mukti Narrow;-inkscape-font-specification:Mukti Narrow"
       d="m 220.87386,203.15704 -1.86768,0 0,-1.83106 c -0.93588,1.31836 -2.02231,2.08741 -3.25928,2.30713 -0.33366,0.0651 -0.70801,0.0977 -1.12304,0.0977 -1.78223,0 -3.01514,-0.58187 -3.69873,-1.74561 -0.31739,-0.52083 -0.47608,-1.13118 -0.47608,-1.83105 l 0,-10.09522 2.0752,0 0,9.27735 c -1e-5,1.16374 0.49234,1.94499 1.47705,2.34375 0.34993,0.15462 0.75683,0.23193 1.2207,0.23193 1.41601,0 2.4414,-0.65104 3.07617,-1.95312 0.33365,-0.69987 0.50048,-1.52588 0.50049,-2.47803 l 0,-7.42188 2.0752,0 0,13.09815" />
    <path
       inkscape:connector-curvature="0"
       id="path4713"
       style="font-size:25px;font-style:normal;font-variant:normal;font-weight:normal;font-stretch:normal;line-height:125%;letter-spacing:0px;word-spacing:0px;fill:#ffffff;fill-opacity:1;stroke:none;font-family:Mukti Narrow;-inkscape-font-specification:Mukti Narrow"
       d="m 236.12044,201.93634 0,1.5747 c -0.4883,0.13021 -0.87485,0.20345 -1.15967,0.21973 l -0.0244,0 -0.24414,0 c -1.18003,0 -1.8799,-0.5249 -2.09961,-1.57471 -0.0163,-0.11393 -0.0326,-0.23193 -0.0488,-0.354 -0.47202,0.43945 -0.93181,0.78939 -1.3794,1.0498 -0.93588,0.58594 -1.96127,0.87891 -3.07617,0.87891 -1.83106,0 -3.10466,-0.62256 -3.8208,-1.86768 -0.31738,-0.56966 -0.47607,-1.23697 -0.47607,-2.00195 0,-1.70084 0.76497,-2.86865 2.29492,-3.50342 l 0.28076,-0.0977 0.85449,-0.25635 c 0.14648,-0.0325 0.30517,-0.0651 0.47608,-0.0977 0.49641,-0.0814 1.35904,-0.19937 2.58789,-0.354 1.22069,-0.14648 1.92463,-0.45979 2.11181,-0.93994 l 0,-0.0244 0,-0.0366 0.0733,-0.43945 0,-0.54932 c -1e-5,-1.07421 -0.67547,-1.70897 -2.02637,-1.90429 -0.28484,-0.0325 -0.58595,-0.0488 -0.90332,-0.0488 -1.71713,1e-5 -2.71811,0.62257 -3.00293,1.86767 -0.0326,0.15464 -0.057,0.30519 -0.0732,0.45166 l -2.09961,0 c 0.0488,-1.19628 0.34993,-2.10366 0.90332,-2.72216 0.91145,-1.01724 2.36002,-1.52587 4.3457,-1.52588 2.93782,1e-5 4.56542,0.96843 4.88281,2.90527 0.0325,0.19532 0.0488,0.41912 0.0488,0.67139 l 0,7.70263 c -1e-5,0.6836 0.37434,1.0254 1.12305,1.02539 l 0.0488,0 c 0.0976,1e-5 0.18716,-0.008 0.26855,-0.0244 l 0.0244,0 0.10987,-0.0244 m -3.6499,-2.90528 0,-2.34375 -0.25635,0.0977 c -0.26857,0.11394 -0.58595,0.21159 -0.95215,0.29297 l -2.14844,0.32959 c -1.76595,0.25228 -2.7832,0.82601 -3.05176,1.72119 l -0.0976,0.65918 0,0.0244 c -1e-5,1.08236 0.55745,1.74561 1.67236,1.98975 0.26855,0.0732 0.56966,0.10986 0.90332,0.10986 1.20442,0 2.23795,-0.39469 3.10059,-1.18408 0.21971,-0.19531 0.39468,-0.38655 0.5249,-0.57373 0.20344,-0.3011 0.30517,-0.67545 0.30518,-1.12305" />
    <path
       inkscape:connector-curvature="0"
       id="path4715"
       style="font-size:25px;font-style:normal;font-variant:normal;font-weight:normal;font-stretch:normal;line-height:125%;letter-spacing:0px;word-spacing:0px;fill:#ffffff;fill-opacity:1;stroke:none;font-family:Mukti Narrow;-inkscape-font-specification:Mukti Narrow"
       d="m 240.45393,184.93194 0,18.2251 -2.09961,0 0,-18.2251 2.09961,0" />
  </g>
</svg>
